<svg width="35" height="35" viewBox="0 0 35 35" fill="none" xmlns="http://www.w3.org/2000/svg">
<circle cx="17.5" cy="17.5" r="17.5" fill="#4ED964"/>
<g clip-path="url(#clip0_2_403)">
<path d="M16.5675 19.1437C17.5597 20.1503 18.7603 20.9274 20.0848 21.4204L21.8767 19.9945C21.9299 19.9579 21.9928 19.9383 22.0573 19.9383C22.1219 19.9383 22.1848 19.9579 22.238 19.9945L25.5651 22.1382C25.6914 22.2141 25.7984 22.3184 25.8775 22.4427C25.9565 22.5671 26.0056 22.7082 26.0208 22.8548C26.0361 23.0013 26.017 23.1495 25.9651 23.2874C25.9132 23.4254 25.83 23.5494 25.722 23.6496L24.163 25.1896C23.9397 25.4102 23.6653 25.5721 23.3642 25.6609C23.0632 25.7496 22.7448 25.7625 22.4376 25.6982C19.3729 25.0653 16.5481 23.5829 14.2861 21.4204C12.0742 19.2365 10.5436 16.4577 9.87994 13.421C9.81438 13.1185 9.82806 12.8043 9.91966 12.5086C10.0113 12.213 10.1777 11.9461 10.4028 11.7337L12.0188 10.1746C12.1188 10.0719 12.2408 9.99306 12.3756 9.94411C12.5103 9.89515 12.6545 9.87732 12.7971 9.89195C12.9398 9.90658 13.0772 9.9533 13.1993 10.0286C13.3213 10.1039 13.4247 10.2058 13.5018 10.3267L15.7167 13.6111C15.7549 13.6627 15.7756 13.7252 15.7756 13.7894C15.7756 13.8535 15.7549 13.916 15.7167 13.9676L14.2575 15.7215C14.764 17.0195 15.5531 18.1885 16.5675 19.1437Z" fill="white"/>
</g>
<defs>
<clipPath id="clip0_2_403">
<rect width="17.1111" height="17.1111" fill="white" transform="translate(9.33334 9.33334)"/>
</clipPath>
</defs>
</svg>
