<svg height="115" viewBox="0 0 1330 115" width="1330" xmlns="http://www.w3.org/2000/svg"><g fill="none" fill-rule="evenodd"><path d="m6.61230469 113.700195.09277343 1.95459 1323.34180188.413086-1.70411-5.359863-51.91797.743164.12159-30.6894532-4.7959-.557129.18603-5.5205078 3.90528.4643555v-5.7705078l-3.84473-.496582.46777-5.8247071 2.51563.4038086.08935-17.4384765-10.16601.3427734-.71143 16.4555664-5.82422 1.0537109-8.49365-4.8378906-.09326 6.6962891 4.77393 3.5659179 10.84521 1.2719727-.58301 3.5087891-3.5625.6503906-5.35986-.6826172-5.51416-2.6367188-.18555 6.2636719 2.54395 1.7368164 4.80273 1.1469727 7.08985 1.0825195-.06104 15.6157227-.99316 12.8608396-6.75684.125-20.90869 1.611328-6.78565-.714355v-28.2485353l2.54395-1.4575195-25.98535-23.2280274-83.54981.9291993-16.15966 17.5283203.15673 17.7167968-.95752 14.4975588-15.64453.061035.34375-44.9433594-44.97558-.8364258.93261 17.2172852-28.80517 1.1147461 1.24365 25.2724609-16.22656 1.637207-1.30078-14.8085937 1.125-26.8105469-1.11475-16.8876953-8.205077-.4648437-.614746-1.8613282.125-5.1743164-9.727051.6181641-1.013671-6.3178711-13.81836 1.2719727-1.243164 4.7133789-8.833496.4643554-.82959 8.4868164-7.160644 2.5410157-.342774 28.0595703.743164 24.8427738-7.090332.896972-9.948242-1.396972-.922363-8.9838871-12.36084.0927734-.906738-7.7753906-4.802735-5.3891601-8.486816-2.1079102h-22.158203l-1.37793-4.3383789 5.242188.1572266-17.060547-19.4184571-20.196778 19.2075196 7.100098.6499023-.708008 26.9189451-8.859375 2.626953-15.551758-.246582-1.890136-22.1835934-62.394532 1.2397461.747559 21.0024413-6.879395 3.344727-24.163574-1.086426-21.855957-.246582-18.705566 1.611816-1.333008-14.1225584-32.428711-.9291992-.682617-32.121582-41.009277 2.5083008.096191 42.5180668-4.001465.835937-11.652832-1.208008-1.22168-3.184082-.560547-16.6665037-18.614257.2788086-1.38086-26.1367187-1.790527-.2788086-11.645996-.0927735.339844-9.3554687-10.249024.6826172-1.672363 8.2758789-9.811035.5571289-1.069825-9.4765625-10.784667 1.0859375-1.182129 7.7436523-20.45752.9936524-1.664551-17.9653321-47.105957 2.6689453.493653 26.4184571-20.876465-17.4418946-36.369141 30.0170899.890137 1.2114258 4.187988-.0932617-.589844 12.1782222-21.222168 2.043946-.921386-1.45459.092773-21.8691408.868164-6.96875-85.942383.7114258-.464355 25.8325196-21.472656.6503906-.036133-61.3920899-54.202637 3.2485352.739746 52.2509766-2.740234-.5288086-4.431152-3.1655274-6.782715 6.2250977-.835938 9.7622072-3.794922 2.35498-6.381836-.403808-1.472656-33.021973-22.673828.0322266 1.083008 28.2089844-12.084961 1.951172-.964844-10.7265627-11.306152-5.8857421-9.727051 6.8754882-.554199 10.0444336-11.895508.211426-5.485352-2.976563-1.983398 2.626953-13.289551.557129-.376953-19.8540036-35.0263671-.868164-.7465821-14.1870117-29.7666015.7114257.2783203 11.0122071-.4780273 21.1806645-14.6225586.403808-1.4223633-8.4262694 3.2231445-1.7363281-1.8867187-2.0410157-.9614258-2.5048828-.7109375-8.3686523c-2.821564 1.0604096-3.7519531 5.0844726-3.7519531 5.0844726l-7.8720704-7.4750976-18.52441402 15.3339844 5.30224609 2.0473632-.49316406 16.0126957z" fill="#fff"/><path d="m705.412445 110.20329v2.456597s6.767212-1.387525 11.4198-1.387525c2.610471 0 11.756606-.988309 15.692886-.716583 1.634522.112834 2.848597.219345 3.749218.314034 2.272365.238909 2.140705 0 2.140705 0l.69104-.666523-3.391906-1.751619-1.64589.835971-19.365722.128412h-2.650025z" fill="#000"/><g transform="translate(738 75)"><path d="m.2859468 36.1085519s.18366244.0140068.50844107.0379869c2.01049922.1484461 9.42866323.67908 12.16171333.6351158 4.0881913-.0657632 8.852074.6114188 8.852074.6114188l-.0488514-3.0839356s-2.8377278.200021-3.6835472.200021-4.011184-.1151089-4.011184-.1151089l-.1964285-1.9529785 3.3449125-2.9295968 2.9571708-2.1455148s.0002558-1.3413016.3575614-1.801995c.3573056-.4606933 1.2033807-1.9173618.8609096-2.5930454-.3424712-.6756836-1.7369094-1.0971471-2.2740188-2.526716s.3555152-7.7058384.3555152-7.7058384-4.3948335-1.1242467-7.3972749-6.6164342c-.1831287-1.68198242-.5089751-5.92603934-.5089751-5.92603934l-2.11288593.57941546-.42303758 2.57059152s-3.92882719 4.15733817-3.92882719 4.45388532c0 .29654716.76192801 4.04584264.76192801 4.04584264l.82740421 1.1141811-1.980399 1.6393973s.68340774 2.8661063.17980376 4.3555525c-.50360398 1.4894461-.06547619 1.2791015-.76371838 2.2441057s-.87599981 1.2938128-.87599981 1.7545061c0 .4606934-1.33612351 1.9640765-.66806176 3.8089147.66806176 1.8448381 1.83614676 2.1243512 1.83614676 2.1243512l4.06131418 2.2438477 2.07784603 1.5072545.9547758 1.4259556-4.82170758.9804897h-6.40259952z" fill="#000"/><g fill="#fe9901"><path d="m9.64213635 5.52006138-1.78729539 2.16125837-.68136161 2.52490935 2.92519995.5363141-2.24383834 1.0654018s-.68136161 4.1266253-.68136161 4.5215053c0 .3948801.98393322-.5396693.98393322-.5396693s.92423446.8945578 1.18829056.8498953c.42544215-.0719592.73168307 2.229092 1.41106307 3.471589.6117671 1.1188421 1.6228376 1.1971682 1.6228376 1.0623047 0-.6170108.4110165-.9867699.4110165-1.6037807 0-.9976957-.4110165-3.240339-.4110165-3.240339l-1.3261486-3.3598353 1.7371651-.0983329 1.4430339 8.9147391s1.5657324-.7266682 2.0049526-1.6747559c.2553492-.5511894-.7363817-1.3796333-.3726516-1.6543666.6144513-.4641085 1.6534145.9980115 1.871954.5262486.1125314-.2429224.4093788-1.6566084.4491258-2.016469.1713509-1.551374-.4491258-2.7453195-.4491258-2.7453195s-1.5791917 2.3455132-2.1476702 2.1080915c-.3349373-.1398846.5179036-2.7174443 0-3.054255-.0994556-.0646794-.281331-.2991774-.4161319-.4039132-.4735438-.3679281-1.0441725-.7748119-1.4013439-1.0633371-1.0485558-.8470297-2.4272228-2.43050503-2.4272228-2.87513948 0-1.24477539-1.70340405-3.41274414-1.70340405-3.41274414z"/><path d="m8.34335472 20.9572893s.76495826-1.208368.42457211-1.8853585c-.35280906-.7016982-1.81458501-.8701195-2.00162748-.7061384-.33628487.2948226-.534296 4.4425293-.534296 4.4425293l1.77067057 1.2785854-2.96714565 1.4600237s-.09629603 1.441183.7788086 2.2438477c.87510463.8026646 2.95359003 1.5392578 2.95359003 1.5392578l2.6129092-2.636663-1.98014321-1.3921456 1.45991441-1.212514.4399182-1.9831752z"/><path d="m12.7251442 24.0355469.2432338 5.3701102 2.9387556-.8687361v-1.1975446s1.8811616-1.0310756 2.3359142-2.8178432-.1294178-2.9825056-.9734468-3.4413923-.9095052-.0490374-.9095052-.0490374v1.7697336l-.2601144 1.8053501s-.1163699.22497-1.4468704 0c-1.3305004-.22497-.3926013-1.5291922-1.0386672-1.0499163-.6460658.479276-.8892996.479276-.8892996.479276z"/></g></g><g transform="translate(122 66)"><path d="m.47623698 40.7805551s2.79290596-.866206 8.53696987-.3585549c.31945219.0282327 1.24941875-2.5378606 1.24941875-2.5378606l4.1835705 3.4336063s2.8042224-1.0928611 6.4949311-1.0928611c.4263626.0621119-.2716239-1.6269719-.2716239-1.6269719s-2.04854.3199059-4.3935546 0c-2.3450147-.3199059-3.3126861-1.051282-3.3126861-1.051282s.0531995-2.6264085 1.6829428-4.9155649 4.3393322-.2043019 7.273484-10.4974209c.1281389-2.2429575-4.7569987-6.3728841-4.7569987-6.3728841l1.4281994-4.7115197-3.9252465-3.81474736-1.7839704-7.55993965-2.4200614 1.48375526s-5.62865049 10.90268805-7.31696429 12.06305085c-.50795201.7661321-1.6883138 2.037629-1.6883138 2.037629s1.27755301.9260316 1.27755301 2.051232c0 1.1252003-.17929223 2.6505346-.55373419 4.2053848-.37444196 1.5548503-.63813709 5.6927334-.63813709 5.6927334s3.36179315 4.668144 4.90048363 6.0407652 1.4785857.6336952 1.47858538 5.0577549c-.61767578.5238444-5.1319522.9514411-7.40443638.2643605-.69466146-.3400754-.04041109 2.2093349-.04041109 2.2093349z" fill="#000"/><g fill="#fe9901"><path d="m4.19047619 17.1003293h3.53065322l.56280822-4.4067574s.45618186-1.141594.83937037-2.3191186c.09331866-.286765.59015113-2.07374997.59015113-2.07374997l1.35689187 2.62467187 3.4036226-.5509218s-2.6012791 4.021575-4.0646944 8.0863597c-1.46341529 4.0647846-1.82798742 7.8212382-1.82798742 7.8212382l2.72859452-.4129599s1.6778863-2.1583173 2.980662-6.5937782.5235028-1.3431999 2.1492666-6.1589049c.4483098-.9256104 1.3697089-2.2743658 1.3697089-2.2743658s-3.1099711-1.48455689-5.6030179-4.26910412c-.2483648-.68641465-1.6741836.17623326-1.6741836.17623326s-2.6388756 1.18332435-2.6388756 3.07096485c0 1.88764051-1.32128914 2.40029081-1.32128914 2.40029081s-2.17376133.1678998-2.17376133 1.3935082-.20792004 3.4863938-.20792004 3.4863938z"/><path d="m5.32419082 29.4358974s-1.77142911-1.0678258-.88571455-5.2500183c.88571455-4.1821925 3.52578794-6.3140842 3.52578794-6.3140842s1.14899249 1.4129892-.36895074 6.4885459c-1.51794322 5.0755566-2.27112265 5.0755566-2.27112265 5.0755566z"/><path d="m8.38095238 31.5508014 2.28148932 2.0902242s8.4622602-7.500735 9.0689324-9.0021271c.6066721-1.5013921-.5735125-5.7158216-.5735125-5.7158216s-5.3238936 4.0275337-4.5426305 5.693254c-.2336101 1.1003681-1.1536021 1.2539764-1.5748355 1.9592285-.6853688 1.1474822-.8865201 2.509151-.8865201 2.509151s-.9596223.1460408-.4798112-1.1237095c.4798112-1.2697502-2.96352439-1.3854415-2.96352439-1.3854415z"/></g></g><path d="m-.35769901 17.5945724v1.5686677l8.36912743.5566407-.61812447-10.60701073s2.1328125-3.20826481 9.26260295-6.61698191c1.1894135-.07966694 10.3079075 5.37726151 10.3079075 5.37726151l-.1049937 10.27600743s.1960911.7524676 2.4287506.7524671c2.2326594-.0000006 4.4478199-1.338919 6.2924144-1.3389186 1.8445946.0000004 2.9593803-.3274054 2.9593803-.3274054v-1.1132813s-6.0988967 1.5008219-9.4391364.3238076c-.1924884-.7185444-.1585198-3.6871192-.1585198-4.5127467 0-.8256276 1.4385161-4.42228621 1.4385161-4.42228621s-10.9080183-6.07113481-13.4577175-8.03042764c-.2933646.29348273-12.04905242 8.515625-12.04905242 8.515625l-.4560019 1.27518504 1.46888196-.2292352-1.31036212 7.33861021.2228542 1.015111z" fill="#000" transform="translate(143 87)"/><g transform="translate(181 54)"><path d="m.47833055 49.0036128c-.19866632.1841773-.14333023 1.1962304-.14333023 1.1962304s2.87102287.2223323 3.28061208-.183082c1.78077747-20.4886569.36228894-25.9454815-.93457031-28.2627986-.00363849-.3449895 20.44619451-.1859225 20.44619451-.1859225l1.4221271 33.7784987 8.5436775-.0340858.2624906-2.8874793s-5.4125032.2504789-6.237919.0986422c-1.5484344-5.0529592-.4298608-24.8728117-2.2101185-32.7151254-.5993101-.0914119-5.981146-.0072304-6.5061271-.0914119 0-3.1787579-.6616841-3.9911358 2.3088773-11.7492676.3035534-1.73321064-.7879915-7.73850661-.7879915-7.73850661s-4.8386624 1.65987455-9.106083 5.63551682c.050419-.12136606-2.03339215-.61974158-3.78662111-.61974158s1.25475681 3.29805814 1.25475681 3.29805814l-3.19926601 4.00921163-.726657 5.4118934s4.60527973.3594501 5.53153351.3594501c.9262538 0 6.5045678-3.7685453 6.5045678-3.7685453l-.1600932 3.7685453s.4158266 1.5080379-15.31385464 1.5080379c-.71938004.0712703.35397241 1.5421236 1.05723917 28.9398663-.00363849.6610576-1.30077846.0478384-1.49944478.2320157z" fill="#000"/><g fill="#fff"><path d="m8.33732359 9.49866955s-1.55135651 2.25969255-1.74959048 3.21119745c-.09700292.4656052.86387979 1.040133.86387979 1.040133l2.53360321-.1019118s2.82810669-1.6132391 4.48773829-4.14941858c1.2728006-1.94504046 2.375684-3.49962882 3.0323064-4.61665516 1.5128065-2.57354064.0000005-3.31871631.0000005-3.31871631l-5.2633258 3.90850361 1.3103736 4.02686779z"/><path d="m6.48169733 16.0544058c4.65206027-2.3581167 7.15585627-3.8057298 9.52918657-6.52329665 2.3733304-2.71756686 2.9669229-7.5773738 2.9669229-7.5773738v6.88584548c0 .69152832-2.2745715 3.27326847-3.628607 4.84586277-1.3540354 1.5725943-13.5195627 4.7270789-8.86750247 2.3689622z"/></g></g><path d="m1.05590495 56.3206723-.71182292-2.708933s2.78966048.1278236 3.24589193.2839741c1.16912834.4001478 1.65999923 1.0520048 2.25710612 0 .39315576-.6926762.24788314-8.0148724.39860026-15.5147512.16751011-8.33552.60844401-16.8942743.60844401-16.8942743s7.12487595.1252838 10.68351565 0c4.2009501-.1478967 12.5952539-.8195415 12.5952539-.8195415l-1.614974-10.1398026s-1.4686653-.4475101-2.5168392-.5021588c-1.4541786-.07581658-4.9902181.1107628-4.9902181.1107628s.1906612-.58213907.6843067-.77225537c2.0458239-.78790248 6.9341015-2.16180098 6.9341015-2.16180098l-10.2288541-.73344984s.3321861-.43149344 1.578457-.62731291c1.7223152-.27061762 7.3273014-.77199835 7.3273014-.77199835s-.116434-1.51896465 0-2.68323397c.0674365-.67432375.5516114-2.83254523.5516114-2.83254523l1.3498405.58490954 1.1253385 4.69623767s2.0747394-.20481423 3.6275195-.37237871c1.7646027-.19042278 6.3246289-.70158305 6.3246289-.70158305l.0658334 1.41987047-7.3113575 1.48386102 3.8826237 1.20733964-5.9689746 2.26434007s-.1229892 3.8841982 0 5.7162315c.1127422 1.6793942.707194 4.818051.707194 4.818051h7.3915918s-.5291078 4.3855038-.4394889 5.8457545c.1713142 2.791394.4394889 8.4421258.4394889 8.4421258s2.0249834-.006241 3.2590072 0c.984851.0049809 3.3976172.0336657 3.3976172.0336657l25.2342252-.0336657 2.7081674 1.3725843 1.7973014 1.74522.0496322 16.8423622 3.9839453.4399671-.0336882 2.3792147-3.7527571.6003289-.6850782 1.4517373-2.7909733-1.74522-.0488606-19.6633429s-1.8356915-1.0056839-7.2979851-1.1903783c-6.2727552-.2120983-27.9071614 0-27.9071614 0l-.0995215-12.9096423s-6.3595492-.3043378-9.8994304-.2819182c-3.1958631.0202408-10.3078027.4098993-10.3078027.4098993s-2.8693512.1150144-4.2475358 0c-1.4241038-.1188466-4.15932943-.7015831-4.15932943-.7015831s1.34978455.9487114 1.64506185 1.6627262c.25307668.6119686 0 2.3152241 0 2.3152241s-.71517893 9.3795215-.86380533 13.8892886c-.13930872 4.2270408 0 12.3211349 0 12.3211349l-1.17625652 2.3810136z" fill="#000" transform="translate(43 49)"/><path d="m11.438639 35.854205h-5.20740275s.9179453-3.7022634 1.29929295-8.6308594c.38134766-4.9285961 0-8.6220703 0-8.6220703s-4.83909969-.4686639-6.29313151-.0170611c-.70473312.2188806-1.45153333-1.6920682.00000001-3.5818015 1.54332469-2.0092354 6.09984504-4.4009552 10.5800313-7.34610526 8.3939965-5.51798023 10.3820365-7.77340877 10.3820365-7.77340877l7.086295 6.0197323s2.580296-3.29912595 3.6500418-3.64539292c1.0697459-.34626696 2.330799 1.57220818 2.330799 1.57220818s-.9263852 4.83553539.0000003 8.00425097c.9263855 3.1687155 4.4682381 5.1030847 5.0897507 5.5771771s-4.0093936.5410444-4.0093936.5410444l-.3406808 5.8873793 7.9548456.6072208.0319708 2.6292222-10.0927967.1476046-.5125561-10.6577723 2.8052459-.7101045s-.9381514-.5348404-1.8990656-3.2320485c-.9609143-2.69720821-1.3581192-8.79397407-1.3581192-8.79397407s-.8034313.75108989-1.0871696 2.81166627c-.2837384 2.06057638-1.2702293 3.28509959-1.2702293 3.28509959l-7.9300362-8.41837087-17.41947965 14.34762758 5.41892185.7101045z" fill="#000" transform="translate(0 78)"/><g transform="translate(213 37)"><path d="m.34814453 69.8964843.56103518 2.3076172 2.81093748-1.1434326 3.23613281-1.1641809s-1.21918945-5.8267679-.43527832-9.6338717c.78391113-3.8071037 5.12515872-5.5868961 5.12515872-5.5868961s3.3871216.5052347 6.2266845 4.4844037c.4452759.4782141 2.2720093-1.7232019 2.7111329-2.7938304.4391235-1.0706284-.6490723-20.7768196-.3245362-36.8204417.358374-5.8741814 1.3153198-13.95615166 1.3153198-13.95615166s2.3260987-1.0053711 7.7591309-1.0053711 5.7696167-.26179406 11.2746826-.26179435 11.400293-1.01429279 15.6997559-1.01429279c1.8643696 0 4.9698036-.44476774 7.7288818-.56513883 3.6036915-.15721927 6.716565-.00000004 6.716565-.00000004s.7805786 5.29833625.210205 11.62422087c-.5703735 6.3258847-.1145874 7.9229054-.5216674 11.7786973-.4070801 3.8557919.4709106 4.9582843.4709106 8.1092458s-.0771606 30.0295984-.0771606 30.0295984 1.5139892-.3245023 1.8403198-.3245023c3.9110962-1.5891186 1.1671631-.4570565 9.4213012-1.0726679 1.0146241.1101218 2.1079331 0 2.1079331 0l.5253677-1.7973633h-10.3515625s-1.6066528-5.5672857-.6948242-20.8329179c.4446075-7.4435197-.2865632-12.2536257-.3714477-17.2455293-.089202-5.2458022 0-10.666949 0-14.08309857 0-6.66695629.0574218-7.58769654 0-8.18164042-3.205608-1.2153907-8.2756131-.51214358-15.9496949-.00000001-1.801331.12021505-3.7946101-.12263436-5.8854858-.00000002-3.0535461.17909703-6.5257852.64973581-10.2185303.67577052-8.4034748.10909627-14.3170317.67654305-18.4967651.75683237-3.1547259.06059976-5.6455444-.35024848-5.6455444-.35024848l.4255371 45.57333991-1.3691529 7.72025-4.5363281-4.8841051-7.98471679 8.6657177-.70136719 9.4750617z" fill="#000"/><path d="m26.5030151 10.0491225 1.1238282 10.9303517 1.6752319 1.5689805 11.2039307-1.1810051s-1.3658204-2.1167854-1.3658204-3.5927232.2776246-9.09065514.2776246-9.09065514z" fill="#000"/><path d="m29.4856201 13.0996489s-.0674194 4.8524959 1.2850708 5.3541618c1.3524903.5016659 6.0369873.4848418 6.0369873.4848418l.3901612-6.9379273z" fill="#fe9901"/></g><g transform="translate(297 70)"><path d="m.12781114 28.1891937-.09659401 2.18116s1.6376202.1234741 4.32664373.1234741 6.68328154-.4613418 6.68328154-.4613418 1.868934-2.8763504.934467-12.7686768c-.934467-9.89232635.7387202-11.56376648 1.5438409-12.81290435.3852245-.00492859 81.7455221-.67028809 81.7455221-.67028809s.3728145 2.56403351-.180522 4.53248596c-.5533366 1.96845248-.7716006 6.42610168-1.0075203 8.58443448-.2359196 2.1583329-.1873028 9.2036209 0 10.4881668s1.0075203 5.4647675 1.0075203 5.4647675.3461374 1.6177673 7.0351766.657341c.713516-.1795044 2.918228-.657341 2.918228-.657341l4.71019-.8289871v-1.9889984l-13.6874195 1.0798797s-.2948996.1115418.1207745-11.0880279c.4156741-11.19956973.6901034-18.20101932.6901034-18.20101932l-63.5014097-.29610443s-15.2935814.33021545-18.3440329-.24681854c-3.0504514-.577034-3.8633763-1.02125549-4.8286766-1.02125549-.96530037 0-2.43442479 1.29855346-2.43442479 1.29855346l-.51879296.37872315s.52634136 2.61331939.93267587 6.37668609c.40633451 3.76336668.59350938 8.58443448.59350938 8.58443448l-.17041485 9.1861115s-.25101647 1.9480896-1.11985074 1.9480896c-.86883428 0-7.35227497.1574554-7.35227497.1574554z" fill="#000"/><path d="m70.6410499 7.1866925-.904871 9.4691265s-1.2261509-.3004266 7.183865-.3004268c8.0453951.1429143 10.7806576.8381202 10.7806576.8381202s.564979-7.53295949.0000009-8.91581764c-.5649782-1.38285814-5.4542566-.5769038-9.5921044-1.09100227-4.1378479-.51409846-7.4675481.00000001-7.4675481.00000001z" fill="#000"/><g fill="#fe9901"><path d="m72.1919783 8.61532836s-.9227475 4.89168704-.9227475 5.85748324c0 .9657963 7.3365384-.1112319 7.3365384-.1112319l-.0995392-5.8615797z"/><path d="m80.9340495 8.6612728-.2321264 6.5505945 6.2884615.7256327s-.0179966-6.15405784-.908679-6.97403381-5.1476561-.30219339-5.1476561-.30219339z"/></g></g><g transform="translate(406 18)"><path d="m.50755603 82.0610352-.01487532 2.08657 6.47717409-.0969904 3.3087318-1.0367765s-1.13924395-6.6890203.2272333-13.3479226c-.53345958-.0201637-5.36998893-.4104225-5.36998893-.4104225s9.31733353-6.7673784 14.41495023-10.7483243c5.0976168-3.980946 7.873915-7.2148105 11.3442235-10.2628618 3.4703086-3.0480513 9.3937619-7.568315 9.3937619-7.568315s6.5543718 4.9899015 11.7461135 9.8687744c5.1917416 4.878873 10.1880523 7.764593 10.1880523 7.764593s1.1071852-5.4421831.2287721-15.4276012c-.878413-9.9854182-.0602706-11.2348078-.0602706-11.2348078l44.2825321-2.8839334s-.553977 6.3620606.097459 9.1375178 1.319543 6.3242853 1.319543 6.3242853l-3.007122.3884721-.395734 1.978094 8.219124-.0484952s9.662544.4050626 11.421165-.2429865c1.758622-.6480491 2.462378-.8422852 2.462378-.8422852l4.967842.7452948.67298-8.0736861s1.54216-.2738703 2.030224-.5819425c.488065-.3080722 5.169429.0673828 5.593632.4239502s1.431877.9147727 1.431877.9147727l.127723 7.1545743s7.936237.7468262 9.126006.3734131 3.274878-.0148038 3.274878-.6480491 1.957386-6.0894664 1.450856-6.6423118c-.50653-.5528453 1.544724-1.1523992 1.544724-1.1523992s5.016829-.6967995 5.016829-1.0048717 1.073587.5173673 1.073587 1.7483798-.683238 7.6905739-.683238 7.6905739 4.253571-.924727 8.093967-.924727 6.497691.1140914 6.497691.1140914-.037444 12.5326926.40189 15.0432129c.439335 2.5105202.715298 11.8504416.715298 11.8504416l18.891138-.0520685.39753 14.6782227 1.430338 5.0077681 9.322976.3884721-.193635-1.9778387s-6.099906-.3568226-6.525904-.3568226-2.216678-1.3767534-2.216678-1.3767534-.847893-4.2050448-.423947-8.033869c-.060527-2.969438-.272372-10.2748579-.272372-10.2748579l-19.308673.3920454s-.489859-22.7667125-.489859-24.0273326-1.529593-2.2711071-1.529593-2.2711071l-5.970644-.3083274-6.15915-.7835804s.977924-9.5627442.977924-14.945712c0-5.3829679-.212102-11.4530362-.212102-11.4530362l.439335-12.92244101.211845-2.954379-7.554352-.77719948-6.13735 1.10211736.957406 7.78118342-.390349 8.74394091-.748895 10.2210027-.653232 15.6287287-.178247.6163996-7.354048-.1960227-.880209-.8555576s.700423-9.237571.101306-15.81786c-.599116-6.5802889-.64964-16.0182217-.111051-21.23247731.538589-5.2142556.14824-5.40517356.14824-5.40517356l-2.652166-.56586249s.341619-.08422851-3.663688.49873491-4.511837.56611772-4.511837.56611772l-3.532375.29148171.016927 2.54395641s-.163372 1.47553045-.163372 8.42591441c0 6.950384.099511 13.0564409.099511 13.0564409l-.065656 8.1459184s.358546 6.1211159 0 6.7694203c-.358547.6483043-1.301078 2.0584938-1.610638 2.0584938-.309561 0-2.410058.79379-3.646761.79379s-13.212101 1.0515803-13.212101 1.0515803l-.488064-1.6044257-1.512923-16.3872958s-17.0884032.3665217-25.4503823.6799539c-8.3619792.3134321-25.3534367 1.2325439-24.9515467 1.5674161.0995107.0653409.172092 2.4150612.8802083 7.4659646.5537208 7.2268066.3672664 17.4592951.3672664 17.4592951s-7.2986506-6.8255727-9.7743647-8.8054533c-2.4757142-1.9798806-9.7169153-6.5302623-9.7169153-6.5302623s-9.6115057 6.5532338-16.201527 12.758323-20.75516885 17.1042591-20.75516885 17.1042591-.44933712 1.0643422-.67400568 1.5965133l.61758207.9114546 4.16867898-.2092951s.55013021 2.7611639.55013021 5.6504572-.61758207 5.5603582-.61758207 5.5603582z" fill="#000"/><g fill="#fefefe"><path d="m131.352628 4.04322399-.372909 4.25890003s3.260282.83785598 4.860509.91043379c1.626263.0737586 4.818962-.47142455 4.818962-.47142455l.764027-5.32758124s-3.876903.75162924-6.427163.62967197c-1.531942-.07325979-3.643426 0-3.643426 0z"/><path d="m136.187105 13.1677246c-1.577362.1573024-4.781644.1835161-4.781644.1835161l.24416 3.6611328s3.148834.6291079 4.718553.6319691c1.510924.002754 4.523378-.6151234 4.523378-.6151234l.439335-4.6677912s-3.412669.6336615-5.143782.8062966z"/><path d="m136.146327 21.1501631c-1.380684.204404-4.188941.3157293-4.188941.3157293l-.400094 4.6232522s3.310429.4993662 4.900006.3482722c1.46978-.1397071 4.278063-1.2206754 4.278063-1.2206754l-.210306-5.0192538s-2.903522.7342779-4.378728.9526755z"/><path d="m135.971926 30.0805553c-1.35563.0610334-4.086352-.3823464-4.086352-.3823464l.585524 5.5366211s4.405549.3879453 5.842408.2626398c1.226507-.106961 2.147688-.9594393 2.147688-.9594393l-.275963-5.2134899s-2.802382.692492-4.213305.7560147z"/><path d="m155.882536 34.4224077s1.192192.6593646 2.520597.6347767c1.296234-.0239924 5.353318-.7805176 5.353318-.7805176v-5.9100342s-2.654971 1.02129-4.33577 1.3445934c-1.209714.2326899-4.335769.3233865-4.335769.3233865z"/><path d="m158.33209 27.133323c1.167505 0 4.448379-.6590243 4.448379-.6590243l1.641112-6.0710894s-2.993056.808772-4.496683.9714356c-1.48962.1611483-4.48306 0-4.48306 0l-.013622 5.0996538s1.620628.6590243 2.903874.6590243z"/><path d="m156.16645 17.539695s2.427861.9533381 3.782305.8701061c1.188893-.0730586 3.847706-1.3389781 3.847706-1.3389781l.097715-5.0695357s-2.120816.9209605-3.221275 1.0702126c-1.529822.2074854-4.669567 0-4.669567 0z"/><path d="m156.603989 8.71535423s2.120901.61455858 3.482748.56050248c1.225261-.04863462 4.278576-.86857466 4.278576-.86857466l-.129774-5.11445756s-2.799104.36521458-4.148802.33410644c-1.459429-.03363722-4.278577-.52834251-4.278577-.52834251z"/></g><path d="m33.0616714 62.4373224s1.5583176.0969905 5.5402857.0969905 10.0403251-.8739347 10.0403251-.8739347.6283538-2.2113814-.5857797-4.628995c-.2168187-1.802149-7.1662699-11.1335552-13.1744002-2.1174539-.6155093.9236642-.9080993 2.0130165-1.5029199 3.3502531-.7473563 2.8663219-.317511 4.17314-.317511 4.17314z" fill="#000"/><path d="m35.1026673 60.7629616.4878078-4.7698863s3.0258443-2.2746804 3.5813604-2.2746804.9797191 2.9883256.9797191 2.9883256l-3.4305555.519154.228772 1.1056907 2.8006629.1306818.3867582 1.5237704 1.1110322-.1607999-.0979719-1.6580256 4.2645991.519154-.1313131-1.2062545-4.0019728-.6799538-.3903488-3.1118608 3.8065419.9642889.9125237 1.0719993.5180714 1.3195801.4878077 3.5039062-1.1443734.5528454-3.8101326-.2613637z" fill="#fe9901"/></g><path d="m.06457519 64.6515108v1.8259735l4.25711338 1.634543 4.45313609-.9078813-.49899014-38.759921.94131747-4.5536999s4.29233621-.972967 17.95828521-1.3280029c13.6659491-.355036 19.4470881-.8741899 19.4470881-.8741899s.8256947 9.6444203.8256947 14.069225c0 4.4248046.8593861 11.1204612.0168457 14.1534534-.8425404 3.0329923-.7789862 3.6830833-.7789862 3.6830833s9.6500356-.0990323 17.9769177-.0990323 16.2767777 1.2759344 16.2767777 1.2759344l-.0145485 14.0730535 10.5477073-.0484952.0972456-2.5776478-7.5165017.259577s-1.0199307-2.3293013-1.0199307-5.586903c0-3.2576016 1.1825173-7.8564786 1.1825173-7.8564786s-.2562589-.3213445-1.9278121-.7937899c-1.6715531-.4724454-10.3164617-.423695-10.3164617-.423695l-21.3450373-.1944913s-1.1689897-6.0259122-1.1689897-11.4035201c0-5.3776078.1942361-20.3715598.1942361-20.3715598s-2.8221658-.3683083-5.1869451-.3683083c-2.3647794 0-5.0544767.1773903-5.0544767.1773903l-.3065408-10.34147502s.9226852-2.76831055 1.3599077-2.76831055c.4372226 0 8.0693471-1.20089444 8.0693471-1.20089444l-7.7257968-.35682262s-1.247603-.29479981-1.8790616-1.41018955c-.6314587-1.11538973-.534213-3.82167746-.534213-3.82167746l-2.6580478 1.68661221.355036 2.28437944-7.5144598 1.73153409-.2598322 1.05336692 7.3840332-.56586248 1.1825173 2.98449707.2090399 10.44382549s-11.2822821-.3785179-16.6300271-.0487505c-5.3477451.3297674-2.8362039.3739236-7.2620295.924727-4.42582564.5508035-4.65273215-.7771994-5.10654519-.7771994-.45381303 0-1.97452059 1.2795077-1.97452059 1.2795077s.58653675 15.4643554.29326837 22.0058483c-.29326837 6.5414928-.53446821 21.8922674-.53446821 21.8922674l-1.29431153.5995538z" fill="#000" transform="translate(614 44)"/><g transform="translate(759 58)"><path d="m.49157431 51.3154584s2.53017692.1018497 4.41471543-.5035616c1.88453852-.6054113 2.35567315-.6036018 2.35567315-.6036018s.87865075-2.4234547.87865075-6.969468c0-4.5460134-.40393918-7.0097944-.40393918-9.2455768s.16249546-5.7622644.16249546-5.7622644 2.27314798.1137408 6.17942628.1137408c3.9062784 0 6.6066157-.4275621 9.8240769-.4275621 3.2174611 0 7.9014693-.0491153 10.447998-.0491153s6.3554631-.3631951 10.3286814-.3631951c3.9732184 0 8.2532874-.2962431 8.2532874-.2962431l.0166072-11.2388844-12.0462533 11.535127 11.8714941-13.7097742.1714378-6.22666258-3.581543-.17086972v-.79437614l3.7892612-.62583295-.1997978-2.0248449-1.953267.09487022-.4747115-1.06347657 2.2486203-.06953704.1793582-2.37976792s.7559981-.41337577 1.0779376 0c.3139049.4030592 0 2.44930496 0 2.44930496h2.9976069s-.5616153.68258471-.9613038.8224236c-.6135235.21465332-1.6250823.24105297-1.6250823.24105297v1.82528147l4.4472912-.00000004s.6928231.53492804.1760367.73052624c-.8261857.3127026-4.2049532.79437615-4.2049532.79437615l.0406239 5.88556985 11.3878401 13.216423-2.1056703.0000004-9.3227937-11.2846392.7761969 11.6933306 16.1138774-.1137408 2.331912 22.3162052s19.9422295-.0000004 15.8885299-.0000004v1.7924517s-3.0686289-.1072099-6.0358375 0c-5.6270812.2033153-12.9735761.6868399-12.9735761.6868399s-1.4266896-5.3445255-1.4266896-10.1818704.2598394-12.5295841.2598394-12.5295841-9.7229004.983858-18.7950525.983858c-9.072152 0-41.22785699-.0152517-41.22785699-.0152517s.48620889 12.3429458.48620889 14.47662.6619901 6.5793888.6619901 6.5793888l-1.05622043 1.6151195s-4.01486419 1.7234317-5.49367505 1.7234317h-3.47500114z" fill="#000"/><path d="m13.0412825 34.1683852s.0729441 3.6977396.3645928 4.7722025.8658759 4.0012207.8658759 4.0012207 6.611534.03968 8.2820946.2043457c1.6705606.1646656 5.536279.2450597 6.7543562.704676 1.2180772.4596162 1.516752.2392434 1.516752.2392434s.4375369-.7777028.7049135-2.1321231c.2673765-1.3544204.2758079-3.9815746.2758079-5.2894646 0-1.3078901.2607337-3.0558795.2607337-3.0558795s-2.9355213-.0576459-3.9807555-.0576459c-1.0452341 0-7.3654388.820097-9.4399386.820097-2.0744997 0-5.6044325-.2066722-5.6044325-.2066722z" fill="#000"/><g fill="#fe9901"><path d="m14.3457173 35.4420238s.0556308 2.6187554.3403207 3.518727c.3245829 1.0260826.317837 3.0996955.317837 3.0996955s3.4309384-.1870108 4.50976-.3130457c1.100687-.1285894 2.5540658 0 2.5540658 0l-.6152344-6.3053768z"/><path d="m26.2822351 34.9044692c-1.2411183.1190693-3.0393805.4901195-3.0393805.4901195s.139976 1.638768.1476767 1.969267c.0303256 1.3015093-.1476767 4.3441234-.1476767 4.3441234s2.8598094.3739229 4.2247542.3739229c.7764523 0 2.3822447.3943446 2.3822447.3943446s.5723232-2.7245236.5347531-3.9444796c-.0167364-.5434583-.0142925-1.5408544-.1608347-2.4279785-.1042775-.631266.1608347-1.3943589.1608347-1.3943589s-2.9629057.0857225-4.1023715.1950396z"/></g></g><path d="m6.93312818 48.3510742s1.15450966.7278297 2.04192405-3.797404c.8874144-4.5252336.42866147-5.7817746.49923919-9.1608683.09583534-4.5883677 0-12.9577637 0-12.9577637s-3.16492235-.0050668-4.25221997 0c-.20418814.0009516-4.43771008 0-4.43771008 0s1.50779445-2.313976 2.16277367-2.9546101c1.8297717-1.789697 4.71976628-3.928193 7.19374546-6.2942505.992138-.9488583 3.7903375-3.96833669 4.7808412-4.94105024 3.6876927-3.62145889 5.3458675-5.12540003 6.6436626-6.44124349.539992-.54750166 2.2800466-1.65886432 2.2800466-1.65886432s1.85175 1.72277261 2.4699993 2.43731684c2.0195784 2.33413618 5.8915734 7.02126574 8.5477543 10.00946081 4.541698 5.109396 9.1035783 9.2501828 9.1035783 9.2501828l-6.6280773.3290812.3014853 2.4027506s8.8598349-.5269368 15.9135685-.5269368c7.0537337 0 13.9638786-.1675924 18.8326104 7.6774597s-.4994947 8.014679 3.2624285 8.014679c3.7619231 0 10.4548964-.3275554 10.4548964-.3275554s1.7059848 3.2135181 1.8027798 5.1422119c.0527553 1.0511782.4923408 3.797404.4923408 3.797404l3.6007151 1.1873868v1.9065857l-6.4865425-.7573432s-.154064-1.0080974-.154064-4.9143474-.4409861-4.019928-.4409861-4.019928-.6522813-.2901713-4.9607104-.2901713h-5.2379236l-.7276526 2.5021871s-.4485004.2738868-.7626556 0c-.3611229-.3148342-.6077532-1.2030544-.8426258-1.5546163-.4391976-.6573995-.7141113-1.3633728-.7141113-2.6718139 0-.7817772-.2592369-1.4110692-.3850325-2.7198792-.0847454-.881713.174878-2.3209597-.4581043-3.380839-.6580722-1.1018903-1.4813872-3.4126847-3.0761719-4.7625224-2.2162307-1.8758341-5.3014869-2.1072857-7.7637571-2.4119059-5.5500309-.686623-22.3490018 0-22.3490018 0h-2.0766715l-.7003146-4.028829s-1.9039373-2.7389249-1.6872956-2.9546101c.1778442-.177059 4.1627964 1.2654622 4.1627964 1.2654622l2.1781034.0630697-15.6713583-18.22662357-18.62335915 18.16355387h6.41397165s.2067054 16.7658825 0 24.466451c-.0509197 1.8969555-.7728754 4.326121-.7728754 4.326121l-.7222872 1.3048808s-2.10903434.6017049-3.81072289.6017049c-1.19980923 0-5.04451307.5969455-5.04451307.5969455l-.50128317-1.890625z" fill="#161514" transform="translate(846 57)"/><g transform="translate(937 36)"><g fill="#000"><path d="m.36471071 72.6470843 12.78218059.5081822 1.9204137-.933259s-2.0986364-9.0513985-2.0986364-15.0615757c0-2.5517492-.2882514-11.694539-.1474857-19.2618862.1907821-10.256151.8260233-19.1525844.8260233-19.1525844l8.5783214-1.7360526s-1.084084-1.4456353-1.3534591-3.9375732c-.1533824-1.4189121.3357471-3.8834492.4914038-4.84334544.0493341-.30996792 7.3285673-.30351563 7.3285673-.30351563l.5336348 3.65999577s2.2946813-6.72431614 2.2946813-8.74336631c.1322463-.23925083 12.316477-.35461774 12.316477-.35461774l.0831706 8.41842915s1.67271-.1063337 2.0167572-2.53858819c-.0374526-.41165597-.0204052-.69116909 2.3556386-.34558454 2.3760438.34558454 6.0310288-.97003697 6.0310288-.60741839s-.7096619 6.16748392-.7096619 6.16748392l2.1107761 1.1047608h7.2141432s.9337318 8.657809.9337318 9.3639474v10.1667411c0 4.8046317-.3931231 7.9702532-.3931231 10.5411028 0 1.3215074-1.3259543 9.9052714-1.1871178 16.6204485.1312549 6.3484727 1.1871178 10.9603725 1.1871178 10.9603725l.7332959 1.2277413 9.3923938.0000013-.8826523-2.549942-7.0638134-.528833s-.8849142-16.159368-.4424571-24.0185128.1456777-31.28637.1456777-31.28637l-1.7393498-2.1109305-6.7672951-.2454451-1.1305516-.6031598.4272178-5.68343335s-.5767698-.8519601-2.9034795-.8519601-6.6706932-.03200334-6.6706932-.03200334l-.5896845-5.84577288s-4.6036548.53102329-6.9300201.53102329c-3.00938 0-9.0772157-.53102329-9.0772157-.53102329l-.6408267 2.9481794-.0643151 2.34218053s-3.4081154.67249699-5.1671656.73156041c-1.4846882.0498512-4.5640497-.40481655-4.5640497-.40481655l-.9660185 10.06944058-6.4725819.1321428-1.8372432 2.1117048s.9339901 8.1864049.9339901 11.0685129-.2068933 17.5793875-.2068933 21.6252302c0 4.0458426.277924 19.944022.277924 19.944022s-4.68622265.6382603-5.83356329.6382603c-1.14734063 0-5.26066788-.5587681-5.26066788-.5587681z"/><path d="m25.4315982 24.0314174s-.460796 5.4808315.5899428 5.4808315 9.1451469.8532505 9.1451469.8532505.657616-6.5467494.6576158-7.0753208c-.0000002-.5285715-8.0339674-1.5857143-9.2133365-.7928572-1.179369.7928572-1.179369 1.534096-1.179369 1.534096z"/><path d="m42.049182 43.0217913.6844783 6.1270926h9.2200521l1.0884496-6.6520508-9.7345731-1.5072544z"/></g><g fill="#fe9901"><path d="m27.0004741 24.2151786-.3967391 3.8414341 7.6403278 1.3446568.6581323-5.7342773z"/><path d="m43.9884511 43.2091657-.2985875 4.650293 7.4543563.3288086.6168053-4.751981-6.0642196-1.1485073z"/></g></g><g transform="translate(1010 44)"><path d="m-.50925381 62.8105934.03377965 2.5909133 8.48329843.6813616s2.21307883-2.3469122 2.21307883-5.1056083c0-2.758696-1.94744795-10.3513764-1.94744795-12.4358724 0-2.0844959.03685053-9.7810174.03685053-9.7810174s5.57005952-1.1043992 12.16988662-1.1043992c6.599827 0 13.6152461.453218 13.6152461.453218l1.5953207 7.5389695 1.1684688-4.0242281s.8803182-5.648856.1612211-6.3675595-.2354339-6.5624535-.7825619-8.8275205c-.547128-2.2650669.0603939-5.1286272.0603939-5.1286272s.35571-.8158947 1.0108304-.8158947c.6551205 0 8.224833-.1943824 8.224833-.1943824l9.4163333-.2920852s5.4861222.5202288 7.0138836.5202288c1.5277615 0 9.3293251.7447916 9.3293251.7447916l6.5322678-.3253348s1.3972491 4.7766927 1.3972491 5.7905506-.1617328 6.6274182-.779491 10.7616257c-.6177581 4.1342076-.6515378 16.1219773-.6515378 16.7429781 0 .6210007.4161039 12.1437872.4161039 12.1437872l8.6926299-.1611328v-3.0579427l-5.9180923.1948939s-.9402002-22.837379.0337797-27.321475-.2513002-17.4969773-.2513002-17.4969773-9.5703889-.0675224-12.3044933-.0675224-6.3935665.1309524-7.8015637.1309524-8.5912909-.9432663-8.5912909-.9432663l-1.0415393-1.17141-2.9889871-4.3464937.0337796-2.69884671 1.2662251-5.32300968.5205137-2.05124628-1.5989035-1.69880022-2.505324 2.24562872-.5542934 1.36630394-1.2022484 1.00669643-1.3035874 1.14174107s.6320889-1.14174107-.5773249-1.14174107-1.5825254 1.14174107-1.5825254 1.14174107l.8163415 1.19442895-.8163415 1.1453218-.5865376.97293527-1.3066583 1.29980471-1.616305 1.0471075-1.9817395 2.0773344s1.3071701.1309524 2.8953255.1309524c1.5881553 0 3.8795416-.8158947 3.8795416-.8158947l3.0258377-.6547619-.2922452 2.6988467-.812247 2.0512463-1.6224468.6849423-4.2245035.1943825-2.0221727.0977027-2.7341044-.1611328.3894896 3.1147229s1.0717362 7.4678664 1.0717362 8.4448939c0 .9770276-.4872459 6.2703683-.4872459 6.2703683h-7.7943983l-8.6076689.2619048-9.0938912.2920852-3.41225645-.2619048-.1950007 5.4539621s.09775625 3.0717541.84653849 7.8203125 1.32610717 12.4092727 1.32610717 12.4092727l-.64795511.711542z" fill="#000"/><g fill="#fefefe"><path d="m46.0565053 12.960705-2.3814653 4.9782366 5.2696254.0971912 2.464379-.0971912-2.4413474-2.6988467-1.2662251-1.8865328-.0972444-1.3964843z"/><path d="m38.6705337 12.054269s1.8885895-.0971912 4.0678887-2.07733448c2.1792993-1.98014323 4.9958055-6.87602306 4.9958055-6.87602306s-.8879953 5.28157552-.8879953 5.28157552-.2620482 2.01390442-.2620482 2.01390442-3.3748941 1.6578776-3.3748941 1.6578776z"/></g></g><path d="m-.18380127 73.0773145-.0061785.3707452c-.01417585.8506316-.04252755 2.5518947-.04252755 2.5518947l9.11162109.2617904s.87799072-8.2055078.87799072-9.7243034.06408692-4.1611296.43912351-4.6523079c.3750366-.4911784 1.2530274-2.27125 1.2530274-2.27125l-1.46323245-13.5392937s-.7487915-2.5916731.58524165-3.6851237c1.3340333-1.0934505 6.5514771-5.8874544 6.9603516-6.5100423s6.7163086-7.6047786 7.0275147-8.0452962c.311206-.4405176 1.6601074-1.2233171 2.0671875-1.2233171.40708 0 12.6822876-.2936783 13.042456-.2936783.3601685 0 8.8252808-.7529688 14.0852783-.2296452 5.2599976.5233235 25.694751.342539 26.5460816.342539.8513305 0 20.4411617 1.2420899 22.7693117.621045 2.328149-.621045 4.233838-1.3228386 4.233838-1.3228386s.977453.114694.977453.114694 13.086035 12.2653158 14.929688 13.5392937c1.843652 1.2739778 10.154443 7.7989355 10.154443 7.7989355s-1.49707 1.3079232-2.198437 1.3079232c-.701368 0-.359912 2.1938444-.359912 2.1938444l.080493 12.3159765.032043 14.6062566.221741.9147233s6.294104.4742057 8.344629.4742057 7.400757-.6362175 7.6953-.6362175c.294544 0 .116126-2.5178678.116126-2.5178678s-3.671668.8319173-6.881141.8319173c-3.209472 0-7.503808-1.4038444-7.503808-1.4038444l-.161499-10.1007877s-.097412-5.2813249-.097412-7.1984636.992321-8.5925358.992321-8.5925358l4.686292.4083724.358374-1.6165169s-1.375561-.4006576-3.881873-2.199502c-2.506311-1.7988444-12.763293-11.5851237-14.91123-13.60847-2.147937-2.0233464-7.678381-6.413864-7.678381-6.413864l.743408-2.0313183s-1.79469-.652933-3.237927-.652933c-1.443238 0-10.2282719.0336882-10.2282719.0336882l-.8292846-7.2288086.423999-2.156556 1.7744385-1.1104232 1.140491-.2445605-2.1158939-1.1104232-1.5626953-.6699056.4557861-1.16108398 2.8946781-.44026042h3.774719l.94541-.37648437-.146374-1.04458985-3.416346.1468392s-1.347107-.09772136-2.699597-.09772136c-1.3524901 0-1.9866942-1.50362304-1.9866942-1.50362304l4.3599612-.89775066-.455786-1.30766601-3.7729252.29522135.065625-3.16720052-.3094116-1.37375651-1.4483642 1.16108399-.4424561 1.4005013-1.1386963 1.02736002-1.8554443.71902344.1463745 1.17599935 2.619104-.09772135.6172852 1.04613281s.6003662-.19569987-1.6434449.44051758c-2.243811.63621745-6.813977 1.84436198-6.813977 1.84436198l1.1707397.98029948h3.9359619l3.8872559.19569987-1.110498 1.1950293-2.3260987 1.2081445.2437866 1.1911719 1.1538208.7172233 1.5814087.0658333.1630371 8.5650196s-2.1463989 1.2765495-5.7896118.9448112-12.3110962-1.3979297-20.7533935-.5552116c-8.4422974.8427181-14.9401978.7696842-21.2176392.7696842s-25.0302978.0943783-25.0302978.0943783-.3381226 1.6162597-1.2027832 2.757028c-.8646607 1.1407682-11.1452271 10.9831087-11.1452271 10.9831087l-9.95039062 10.1594206 6.00135498.2448177s.69803467 8.1075293.69803467 11.9109472c0 3.803418-1.25507812 13.1684668-1.25507812 13.1684668z" fill="#000" transform="translate(1097 34)"/><g transform="translate(1244 45)"><path d="m-.36769262 65.1271635s.83186316-.142609 1.75604038-.3034255c.69100134-.1202415 1.43357198-.2714907 1.91883166-.267788 1.17646085.0089767 12.39400268-.3593527 12.39400268-.3593527l2.8961825.1186255s.9565766-4.3095355.9756936-6.4922473c.0450651-5.1453489-.054525-10.1086775-.2822909-14.8267165-.044459-.9209427.4434999-4.4929044.2822909-5.3530876-.180557-.9634211-.9756936-.7958337-.9756936-.7958337s-3.9088671.1970574-9.16899599-.9891975c-1.51489635-.4461283-1.79070052-1.016505-2.92403456-1.5786316-1.1847697-.5876384-1.41088257-1.1575762-1.41088257-1.1575762l.433013-8.4315351s3.14169439 2.9996115 8.37716972 3.8794447c1.2594527.2116538 2.5182245.3180347 3.5652855.2298641.7337392-.0617866 1.6191205 0 2.2412231-.2298641.060056-1.4852086.060056-2.4368197.060056-2.4368197s-4.1014456.2427619-7.8917164-.5527165c-3.44830663-.7237092-4.8247446-2.4924548-5.01817451-2.4924554-.40604201-.0000011-2.12395606-.7692622-2.12371135-1.4482574.00054717-1.5182326.35685494-8.7026791.35685494-8.7026791v-1.8213141s4.61853905 5.0837345 6.78503092 5.8035241c2.2824951.7583303 7.9430697.5385943 7.9430697.5385943s-.5307847-4.4958906-.5307848-6.9231329c-.0000002-3.27387861.5307838-10.18022966.5307838-10.18022966l11.5359887-.35435564.582932 17.943735h.8775628 4.7716029l.7610621 6.2169758-5.5326657.7126218v4.0602073s.3750362-.1403382.5391987-.1338337c1.9231488.0762002 5.4877465 0 5.4877465 0v6.0877032l-5.487746.6669974.7254599 28.6421905s11.5975084 1.3972189 16.4390944 1.4623948c4.0565774.0546084 10.2553959-1.1030421 10.2553959-1.1030421l.2228167 3.44405-29.8439527-.6070323-.0317688-31.1802546-4.3061946-.5787882.5513834-6.8342187s1.4208194.7188696 2.2217003.7592481c.4602967.0232071 1.5331111-.3773004 1.5331111-.3773004l-.7994423-4.7728292-2.9553681-.2481141s-.061324-6.5666333.5122624-6.7029924c.5735864-.136359 1.7094369.4860168 1.7094369.4860168l.9088324-16.05181047-8.5286155.36695689s-.9965773 4.87051525-1.0405367 7.87708038c-.0083323.5698772.008939 1.2191004.0432282 1.9033349.1644787 3.2821444.7205284 7.3698763.7205284 7.3698763l.3912348 1.1254213s-6.8181688-.6355587-10.2073568-1.6981261c-2.56448698-.8040098-5.87113413-3.9016055-5.87113413-3.9016055l.49698578 5.1864977s3.01971627 3.0034131 5.73100325 3.7603847c2.9834506.8329577 9.5706754 1.009403 9.5706754 1.009403l-.1114083 3.908558v1.0237423s-1.6838936.6785897-3.9171358.8147355c-2.1757615.1326417-4.8779865-.2730894-6.6764513-.5666214-1.82842122-.2984212-4.12559121-3.1188076-4.12559121-3.1188076v3.4292762s-.16445123 1.8087368.29092382 2.2362861c.97284256.9133968-.42256847 1.3887438 5.79867519 2.2690927 6.2212436.8803489 8.6033564.9794801 8.3210303 1.9599278-1.0679537 3.2048437.7113058 13.5515916.6997838 15.101286-.0636206 8.5569369-.6997838 14.2294104-.6997838 14.2294104s-1.8042981-.5110145-4.688073-.5190409c-1.846684-.0051398-3.8937966.7378366-5.5969646.7871006-.1088827.0031494-5.02869061.3718181-5.57455337.437515-2.23559223.2690627-5.21834212.5093567-5.21834212.5093567z" fill="#000"/><g fill="#fefefe"><path d="m32.2632299 19.69686c-1.1916561-.0748399-3.3189908-.6990535-3.3189908-.6990535l-.5476874 4.4934141 2.6633885.5703179s1.0789605-.0336798 1.6184408-.0505198c1.3773212-.0429931 2.7546425-.0859863 4.1319638-.1289794l-.5201966-4.5825324s-2.7307105.4787591-4.0269183.3973531z"/><path d="m28.5112038 30.6053583-.1146521 3.9177186s2.0814416.3419644 4.4933776.2651142c2.411936-.0768501 4.7719463-.5603299 4.7719463-.5603299l.2001934-3.8893997-4.7095154.5639228s-.1759391.0069955-.2626243.0094697c-2.19046.0625211-4.3787255-.3064957-4.3787255-.3064957z"/></g></g><g transform="translate(1297 84)"><path d="m6.10416682 28.7784939 1.91682892.0000002s14.12744176-.9623843 15.97952506-.9623843h7.5046875l.5640625-3.8925258s-1.4520833 1.0584717-4.7604166 1.0584717c-3.3083334 0-9.5895834-.5143171-9.5895834-.5143171l-5.621875.4511021.1333334-4.1742118s.2255208-1.7320905 2.3479166-2.6944754c2.1223959-.9623849 3.0072917 1.2875627 4.4359375.6437813 1.4286459-.6437813 3.8145834-.7029506 3.8145834-2.608503s1.5583333-4.8817139-.1984375-7.2646659c-1.7567709-2.382952-4.8557292-4.36689104-4.8557292-4.91458565 0-.54769462-3.609375-3.3423026-3.609375-3.88949149 0-.5471889-4.1046875 4.01187569-4.1046875 4.01187569s-2.37083333 2.66817831-3.10989583 2.66817802-5.48854167 1.5732945-5.48854167 1.5732945-1.75 4.37397093-1.75 4.37397113-.29375 3.1192799.728125 3.1192801 2.915625.8030832 2.915625.8030832l3.6703125 1.5100795s1.33333369 1.4767008 2.18385417 1.476702c.85052043.0000012.92604163 2.5715855.92604163 2.5715855l.5640625 2.5422538-4.59635413 1.0953892z" fill="#000"/><path d="m1.70885417 10.1068115.16770833 4.2409668 7.27239583 1.9910191 5.39322917.6736189 5.48125.1921735s1.6848958-.7649013 1.6848958-2.1568952-1.2578125-4.6263253-1.2578125-4.6263253l-1.4213541-3.53397044-1.85625-.09608678s-1.9135417-.99222238-1.9135417-2.02793666c0-1.03571429.8270833-2.55236817-.69375-2.55236817s-3.8723958 2.420881-3.8723958 3.50059292c0 1.07971191-.4442709 1.76900809-.99427087 1.76900809-.55 0-4.928125 1.50653948-4.928125 1.50653948z" fill="#fe9901"/><path d="m15.2171875 10.1295689c.1054691.1624947 2.5482815-1.6893005 2.6651042-1.50299938.7612197 1.21394242-.6489584 4.81495878-.6489584 4.81495878s-.4369791 1.0953893-1.2265625.5476946c-.7895833-.5476946-2.7822916 1.5429515-2.7822916-.5476945 0-2.0906459 1.2-4.53327296 1.9927083-3.3119595z" fill="#000"/></g><g fill="#000"><path d="m712.003723 109.540344c.691373-2.192726 2.243591-6.772033 2.243591-6.772033l4.72168-14.9982915s.783936-2.963623 1.264404-6.40625c.480469-3.4426269.310791-14.5217285.310791-14.5217285l1.062501-32.696289h2.503417s.799805 5.8344726.799805 10.8391113 1.556885 25.8127441 2.067872 29.9970703c.510986 4.1843262 1.640379 9.1184082 2.136962 10.7973633.496582 1.6789551 2.125732 8.6704101 3.690917 13.1611328 1.565186 4.4907223 3.344971 8.1134643 3.344971 8.1134643l1.932373 2.42157-3.654784-.310181-4.477295-11.4938963s-1.929932-9.0029297-2.973145-12.6552734c-1.043213-3.6523438-1.268066-5.7045899-2.067871-10.0341797s-.965698-15.5838623-.965698-15.5838623l-.559754-13.0679932-.243103-11.1524048-.836181 1.3013306v16.3486328l-.698486 8.8334961-.000001 14.1610718s-.112182 4.6964111-.54187 7.1774902c-.429687 2.4810791-1.935913 8.4733277-1.935913 8.4733277l-1.321228 5.828186-2.126159 7.2998045s-.279114 1.016358-.529786 2.452881c-.250671 1.436523-.409668 2.42157-.409668 2.42157s-2.743827.082278-2.738342.06488z"/><path d="m719.554443 34.0147705.810242.2166138 3.778931-.0620728 1.080078-.352417s.801697-.0701904.278686-.7669677c-.52301-.6967774.236596-.8093262-1.324401-1.010376s-3.415284.4033203-3.415284.4033203-1.269897.0504761-1.269897.2402954.061645 1.331604.061645 1.331604z"/><path d="m734.552368 109.705566s-.363647-1.819824-1.935913-3.260742-4.886597-2.656738-4.886597-2.656738l-9.15979-4.3900147-1.386474-1.9688721s-.132935-.8265381.858642-1.7020263c.991577-.8754883 4.509156-2.7192383 4.509156-2.7192383s3.31604-2.1860352 4.142089-3.1590576c.896103-1.5305507-1.282146-2.8324642-3.089355-3.8425293-.965812-.5398011-2.011475-1.2924805-2.011475-1.2924805s-2.709716-1.0898438.180298-2.6485596c2.890015-1.5587158 3.833008-4.6549072 3.700806-4.8648681-.132202-.209961-3.578735-2.8041993-3.578735-2.8041993s-.6969-2.2932129-.6969-2.425415c0-.0241092-.171163-.4257302-.163452-.604126.034573-.7998322.326067-2.5119629.566406-2.5119629.293946 0 2.919434-2.0681152 2.919434-2.0681152l.418091 1.3399658-2.541504 1.7045899s-.812989 1.4022216.125 2.9836425c.937988 1.5814209 2.057739 2.4172364 2.966064 2.913086.908326.4958496 1.543335 2.5014648 1.155762 2.9748535s-1.44104 1.868042-1.642822 2.1395264c-.201783.2714843-2.076905 2.3518066-2.340454 2.3518066-.26355 0-.401978.331543-.109742.6263428.292237.2947998 1.858501 1.1175537 2.586304 1.4891357s3.871827 2.7487793 3.871826 3.4304199c0 .6816407-3.947876 4.1135254-6.814575 5.7010498-2.866699 1.5875245-3.811035 1.8834229-3.811035 2.4357911 0 .5523681.703247 2.029541 2.107422 2.5212402s9.255126 4.2938237 9.57312 4.2938237c.317993 0 4.809814 3.061035 4.809814 3.061035.000001 0 .673584 2.579101.673584 2.579101z"/><path d="m724.344116 64.3581543s-1.765137-3.3465576-3.043579-3.067749.293091-1.6875.293091-1.6875.50293.2481689.929932.8521728-.031983-.5350342 2.51831 2.9508057c2.550293 3.4858398-.697754.9522705-.697754.9522705z"/><path d="m721.533569 55.5855713s1.052491-2.3386231 2.044922-3.0435791c.992432-.7049561.907593-1.9055176.907593-1.9055176s-2.146729 1.6956787-2.527222 1.9055176-.425293 3.0435791-.425293 3.0435791z"/><path d="m723.984375 45.9561768-2.028809-3.1990967-.023193-2.4941406 1.819702 3.2607421z"/><path d="m721.704102 33.2553711h1.558593s-1.070312-8.5351563-1.070312-10.3071289c0-.8747106-.373207.1751637-.488281 1.6867676-.118042 1.5505756 0 3.7004394 0 3.7004394z"/></g></g></svg>