<?xml version="1.0" encoding="utf-8"?>
<!-- Generator: Adobe Illustrator 22.0.1, SVG Export Plug-In . SVG Version: 6.00 Build 0)  -->
<svg version="1.1" xmlns="http://www.w3.org/2000/svg" xmlns:xlink="http://www.w3.org/1999/xlink" x="0px" y="0px"
	 viewBox="0 0 1995 115" style="enable-background:new 0 0 1995 115;" xml:space="preserve">
<style type="text/css">
	.st0{fill:#FFFFFF;}
	.st1{fill:#FE9901;}
	.st2{fill:#FEFEFE;}
	.st3{fill:#161514;}
</style>
<g id="Слой_1">
</g>
<g id="Слой_2">
	<g>
		<path class="st0" d="M671.4,111.7l0.1,2.3l1323.7,0.5l-1.7-6.3l-51.9,0.9l0.1-36.2l-4.8-0.7l0.2-6.5l3.9,0.5v-6.8l-3.8-0.6
			l0.5-6.9l2.5,0.5l0.1-20.5l-10.2,0.4l-0.7,19.4l-5.8,1.2l-8.5-5.7l-0.1,7.9l4.8,4.2l10.8,1.5L1930,65l-3.6,0.8l-5.4-0.8l-5.5-3.1
			l-0.2,7.4l2.5,2l4.8,1.4l7.1,1.3l-0.1,18.4l-1,15.1l-6.8,0.1l-20.9,1.9l-6.8-0.8V75.4l2.5-1.7l-26-27.4l-83.6,1.1l-16.2,20.6
			l0.2,20.9l-1,17.1l-15.6,0.1l0.3-52.9l-45-1l0.9,20.3l-28.8,1.3l1.2,29.8l-16.2,1.9l-1.3-17.4l1.1-31.6l-1.1-19.9l-8.2-0.5
			l-0.6-2.2l0.1-6.1l-9.7,0.7l-1-7.4l-13.8,1.5l-1.2,5.6l-8.8,0.5l-0.8,10l-7.2,3l-0.3,33.1l0.7,29.3l-7.1,1.1l-10-1.6l-0.9-10.6
			l-12.4,0.1l-0.9-9.2l-4.8-6.3l-8.5-2.5h-22.2l-1.4-5.1l5.2,0.2L1535,47.1l-20.2,22.6l7.1,0.8l-0.7,31.7l-8.9,3.1l-15.6-0.3
			l-1.9-26.1l-62.4,1.5l0.7,24.7l-6.9,3.9l-24.2-1.3l-21.9-0.3l-18.7,1.9l-1.3-16.6l-32.4-1.1l-0.7-37.8l-41,3l0.1,50.1l-4,1
			l-11.7-1.4l-1.2-3.8l-0.6-19.6l-18.6,0.3l-1.4-30.8l-1.8-0.3l-11.6-0.1l0.3-11l-10.3,0.8l-1.7,9.7l-9.8,0.7l-1.1-11.2l-10.8,1.3
			l-1.2,9.1l-20.5,1.2l-1.7-21.2l-47.1,3.1l0.5,31.1l-20.9-20.5l-36.4,35.4l0.9,1.4l4.2-0.1l-0.6,14.3l-21.2,2.4l-0.9-1.7l0.1-25.8
			l0.9-8.2l-86,0.8l-0.5,30.4L950.3,95l0-72.3L896,26.5l0.7,61.5l-2.7-0.6l-4.4-3.7l-6.8,7.3l-0.8,11.5l-3.8,2.8l-6.4-0.5l-1.5-38.9
			l-22.7,0l1.1,33.2l-12.1,2.3l-1-12.6l-11.3-6.9l-9.7,8.1l-0.6,11.8l-11.9,0.2l-5.5-3.5l-2,3.1l-13.3,0.7L781.1,79l-35-1l-0.7-16.7
			l-29.8,0.8l0.3,13l-0.5,24.9l-14.6,0.5l-1.4-9.9l3.2-2l-1.9-2.4l-1-3l-0.7-9.9c-2.8,1.2-3.8,6-3.8,6l-7.9-8.8l-18.5,18.1l5.3,2.4
			l-0.5,18.9L671.4,111.7z"/>
		<path d="M1370.4,107.6v2.9c0,0,6.8-1.6,11.4-1.6c2.6,0,11.8-1.2,15.7-0.8c1.6,0.1,2.8,0.3,3.8,0.4c2.3,0.3,2.1,0,2.1,0l0.7-0.8
			l-3.4-2.1l-1.6,1l-19.4,0.2h-2.7L1370.4,107.6z"/>
		<g transform="translate(738 75)">
			<path d="M665.3,33.7c0,0,0.2,0,0.5,0c2,0.2,9.4,0.8,12.2,0.7c4.1-0.1,8.9,0.7,8.9,0.7l0-3.6c0,0-2.8,0.2-3.7,0.2s-4-0.1-4-0.1
				l-0.2-2.3l3.3-3.5l3-2.5c0,0,0-1.6,0.4-2.1s1.2-2.3,0.9-3.1c-0.3-0.8-1.7-1.3-2.3-3c-0.5-1.7,0.4-9.1,0.4-9.1s-4.4-1.3-7.4-7.8
				c-0.2-2-0.5-7-0.5-7L674.5-8l-0.4,3c0,0-3.9,4.9-3.9,5.2s0.8,4.8,0.8,4.8l0.8,1.3l-2,1.9c0,0,0.7,3.4,0.2,5.1
				c-0.5,1.8-0.1,1.5-0.8,2.6s-0.9,1.5-0.9,2.1c0,0.5-1.3,2.3-0.7,4.5c0.7,2.2,1.8,2.5,1.8,2.5l4.1,2.6l2.1,1.8l1,1.7l-4.8,1.2h-6.4
				V33.7z"/>
			<g>
				<path class="st1" d="M674.7-2.4l-1.8,2.5l-0.7,3l2.9,0.6L672.9,5c0,0-0.7,4.9-0.7,5.3c0,0.5,1-0.6,1-0.6s0.9,1.1,1.2,1
					c0.4-0.1,0.7,2.6,1.4,4.1c0.6,1.3,1.6,1.4,1.6,1.3c0-0.7,0.4-1.2,0.4-1.9c0-1.2-0.4-3.8-0.4-3.8l-1.3-4l1.7-0.1l1.4,10.5
					c0,0,1.6-0.9,2-2c0.3-0.6-0.7-1.6-0.4-1.9c0.6-0.5,1.7,1.2,1.9,0.6c0.1-0.3,0.4-2,0.4-2.4c0.2-1.8-0.4-3.2-0.4-3.2
					s-1.6,2.8-2.1,2.5c-0.3-0.2,0.5-3.2,0-3.6c-0.1-0.1-0.3-0.4-0.4-0.5c-0.5-0.4-1-0.9-1.4-1.3c-1-1-2.4-2.9-2.4-3.4
					C676.4,0.2,674.7-2.4,674.7-2.4z"/>
				<path class="st1" d="M673.4,15.8c0,0,0.8-1.4,0.4-2.2c-0.4-0.8-1.8-1-2-0.8c-0.3,0.3-0.5,5.2-0.5,5.2l1.8,1.5l-3,1.7
					c0,0-0.1,1.7,0.8,2.6c0.9,0.9,3,1.8,3,1.8l2.6-3.1l-2-1.6l1.5-1.4l0.4-2.3L673.4,15.8z"/>
				<path class="st1" d="M677.8,19.4l0.2,6.3l2.9-1v-1.4c0,0,1.9-1.2,2.3-3.3c0.5-2.1-0.1-3.5-1-4.1c-0.8-0.5-0.9-0.1-0.9-0.1V18
					l-0.3,2.1c0,0-0.1,0.3-1.4,0c-1.3-0.3-0.4-1.8-1-1.2S677.8,19.4,677.8,19.4z"/>
			</g>
		</g>
		<g transform="translate(122 66)">
			<path d="M665.3,37.6c0,0,2.8-1,8.5-0.4c0.3,0,1.2-3,1.2-3l4.2,4c0,0,2.8-1.3,6.5-1.3c0.4,0.1-0.3-1.9-0.3-1.9s-2,0.4-4.4,0
				s-3.3-1.2-3.3-1.2s0.1-3.1,1.7-5.8s4.3-0.2,7.3-12.4c0.1-2.6-4.8-7.5-4.8-7.5l1.4-5.5L679.5-2l-1.8-8.9l-2.4,1.7
				c0,0-5.6,12.8-7.3,14.2c-0.5,0.9-1.7,2.4-1.7,2.4s1.3,1.1,1.3,2.4s-0.2,3.1-0.6,5c-0.4,1.8-0.6,6.7-0.6,6.7s3.4,5.5,4.9,7.1
				c1.5,1.6,1.5,0.7,1.5,6c-0.6,0.6-5.1,1.1-7.4,0.3C664.7,34.6,665.3,37.6,665.3,37.6z"/>
			<g>
				<path class="st1" d="M669,9.7h3.5l0.6-5.2c0,0,0.5-1.3,0.8-2.7c0.1-0.3,0.6-2.4,0.6-2.4l1.4,3.1l3.4-0.6c0,0-2.6,4.7-4.1,9.5
					c-1.5,4.8-1.8,9.2-1.8,9.2l2.7-0.5c0,0,1.7-2.5,3-7.8c1.3-5.2,0.5-1.6,2.1-7.3c0.4-1.1,1.4-2.7,1.4-2.7s-3.1-1.7-5.6-5
					c-0.2-0.8-1.7,0.2-1.7,0.2s-2.6,1.4-2.6,3.6s-1.3,2.8-1.3,2.8s-2.2,0.2-2.2,1.6S669,9.7,669,9.7z"/>
				<path class="st1" d="M670.2,24.2c0,0-1.8-1.3-0.9-6.2c0.9-4.9,3.5-7.4,3.5-7.4s1.1,1.7-0.4,7.6S670.2,24.2,670.2,24.2z"/>
				<path class="st1" d="M673.2,26.7l2.3,2.5c0,0,8.5-8.8,9.1-10.6c0.6-1.8-0.6-6.7-0.6-6.7s-5.3,4.7-4.5,6.7
					c-0.2,1.3-1.2,1.5-1.6,2.3c-0.7,1.4-0.9,3-0.9,3s-1,0.2-0.5-1.3c0.5-1.5-3-1.6-3-1.6L673.2,26.7z"/>
			</g>
		</g>
		<path d="M807.5,101v1.8l8.4,0.7L815.3,91c0,0,2.1-3.8,9.3-7.8c1.2-0.1,10.3,6.3,10.3,6.3l-0.1,12.1c0,0,0.2,0.9,2.4,0.9
			s4.4-1.6,6.3-1.6s3-0.4,3-0.4v-1.3c0,0-6.1,1.8-9.4,0.4c-0.2-0.8-0.2-4.3-0.2-5.3c0-1,1.4-5.2,1.4-5.2s-10.9-7.2-13.5-9.5
			c-0.3,0.3-12.1,10-12.1,10l-0.5,1.5l1.5-0.3l-1.3,8.6l0.2,1.2L807.5,101z"/>
		<g transform="translate(181 54)">
			<path d="M665.4,45.1c-0.2,0.2-0.1,1.4-0.1,1.4s2.9,0.3,3.3-0.2c1.8-24.1,0.4-30.6-0.9-33.3c0-0.4,20.5-0.2,20.5-0.2l1.4,39.8
				l8.5,0l0.3-3.4c0,0-5.4,0.3-6.2,0.1c-1.5-6-0.4-29.3-2.2-38.5c-0.6-0.1-6,0-6.5-0.1c0-3.7-0.7-4.7,2.3-13.8
				c0.3-2-0.8-9.1-0.8-9.1s-4.8,2-9.1,6.6c0.1-0.1-2-0.7-3.8-0.7s1.3,3.9,1.3,3.9L670,2.2l-0.7,6.4c0,0,4.6,0.4,5.5,0.4
				s6.5-4.4,6.5-4.4L681.1,9c0,0,0.4,1.8-15.3,1.8c-0.7,0.1,0.4,1.8,1.1,34.1C666.8,45.6,665.5,44.9,665.4,45.1z"/>
			<g>
				<path class="st0" d="M673.2-1.4c0,0-1.6,2.7-1.8,3.8c-0.1,0.5,0.9,1.2,0.9,1.2l2.5-0.1c0,0,2.8-1.9,4.5-4.9
					c1.3-2.3,2.4-4.1,3-5.4c1.5-3,0-3.9,0-3.9l-5.3,4.6l1.3,4.7L673.2-1.4z"/>
				<path class="st0" d="M671.4,6.3c4.7-2.8,7.2-4.5,9.5-7.7s3-8.9,3-8.9v8.1c0,0.8-2.3,3.9-3.6,5.7S666.7,9.1,671.4,6.3z"/>
			</g>
		</g>
		<path d="M708.9,101.8l-0.7-3.2c0,0,2.8,0.2,3.2,0.3c1.2,0.5,1.7,1.2,2.3,0c0.4-0.8,0.2-9.4,0.4-18.3c0.2-9.8,0.6-19.9,0.6-19.9
			s7.1,0.1,10.7,0c4.2-0.2,12.6-1,12.6-1l-1.6-11.9c0,0-1.5-0.5-2.5-0.6c-1.5-0.1-5,0.1-5,0.1s0.2-0.7,0.7-0.9
			c2-0.9,6.9-2.5,6.9-2.5l-10.2-0.9c0,0,0.3-0.5,1.6-0.7c1.7-0.3,7.3-0.9,7.3-0.9s-0.1-1.8,0-3.2c0.1-0.8,0.6-3.3,0.6-3.3l1.4,0.7
			l1.1,5.5c0,0,2.1-0.2,3.6-0.4c1.8-0.2,6.3-0.8,6.3-0.8l0.1,1.7l-7.3,1.7l3.9,1.4l-6,2.7c0,0-0.1,4.6,0,6.7c0.1,2,0.7,5.7,0.7,5.7
			h7.4c0,0-0.5,5.2-0.4,6.9c0.2,3.3,0.4,9.9,0.4,9.9s2,0,3.3,0c1,0,3.4,0,3.4,0l25.2,0l2.7,1.6l1.8,2.1l0,19.8l4,0.5l0,2.8l-3.8,0.7
			l-0.7,1.7l-2.8-2.1l0-23.2c0,0-1.8-1.2-7.3-1.4c-6.3-0.2-27.9,0-27.9,0l-0.1-15.2c0,0-6.4-0.4-9.9-0.3c-3.2,0-10.3,0.5-10.3,0.5
			s-2.9,0.1-4.2,0c-1.4-0.1-4.2-0.8-4.2-0.8s1.4,1.1,1.6,2c0.3,0.7,0,2.7,0,2.7s-0.7,11-0.9,16.4c-0.1,5,0,14.5,0,14.5l-1.2,2.8
			L708.9,101.8z"/>
		<path d="M676.3,111.9h-5.2c0,0,0.9-4.4,1.3-10.2c0.4-5.8,0-10.2,0-10.2s-4.8-0.6-6.3,0c-0.7,0.3-1.5-2,0-4.2
			c1.5-2.4,6.1-5.2,10.6-8.7c8.4-6.5,10.4-9.2,10.4-9.2l7.1,7.1c0,0,2.6-3.9,3.7-4.3c1.1-0.4,2.3,1.9,2.3,1.9s-0.9,5.7,0,9.4
			s4.5,6,5.1,6.6c0.6,0.6-4,0.6-4,0.6l-0.3,6.9l8,0.7l0,3.1l-10.1,0.2l-0.5-12.6l2.8-0.8c0,0-0.9-0.6-1.9-3.8
			c-1-3.2-1.4-10.4-1.4-10.4s-0.8,0.9-1.1,3.3c-0.3,2.4-1.3,3.9-1.3,3.9l-7.9-9.9l-17.4,16.9l5.4,0.8L676.3,111.9z"/>
		<g transform="translate(213 37)">
			<path d="M665.2,66.7l0.6,2.7l2.8-1.3l3.2-1.4c0,0-1.2-6.9-0.4-11.3s5.1-6.6,5.1-6.6s3.4,0.6,6.2,5.3c0.4,0.6,2.3-2,2.7-3.3
				c0.4-1.3-0.6-24.5-0.3-43.4c0.4-6.9,1.3-16.4,1.3-16.4s2.3-1.2,7.8-1.2s5.8-0.3,11.3-0.3c5.5,0,11.4-1.2,15.7-1.2
				c1.9,0,5-0.5,7.7-0.7c3.6-0.2,6.7,0,6.7,0s0.8,6.2,0.2,13.7c-0.6,7.5-0.1,9.3-0.5,13.9c-0.4,4.5,0.5,5.8,0.5,9.6
				s-0.1,35.4-0.1,35.4s1.5-0.4,1.8-0.4c3.9-1.9,1.2-0.5,9.4-1.3c1,0.1,2.1,0,2.1,0l0.5-2.1h-10.4c0,0-1.6-6.6-0.7-24.5
				c0.4-8.8-0.3-14.4-0.4-20.3c-0.1-6.2,0-12.6,0-16.6c0-7.9,0.1-8.9,0-9.6c-3.2-1.4-8.3-0.6-16,0c-1.8,0.1-3.8-0.1-5.9,0
				c-3.1,0.2-6.5,0.8-10.2,0.8c-8.4,0.1-14.3,0.8-18.5,0.9c-3.2,0.1-5.6-0.4-5.6-0.4l0.4,53.7l-1.4,9.1l-4.5-5.8l-8,10.2l-0.7,11.2
				L665.2,66.7z"/>
			<path d="M691.4-3.8l1.1,12.9l1.7,1.8l11.2-1.4c0,0-1.4-2.5-1.4-4.2s0.3-10.7,0.3-10.7L691.4-3.8z"/>
			<path class="st1" d="M694.4-0.2c0,0-0.1,5.7,1.3,6.3c1.4,0.6,6,0.6,6,0.6l0.4-8.2L694.4-0.2z"/>
		</g>
		<g transform="translate(297 70)">
			<path d="M665,23.4l-0.1,2.6c0,0,1.6,0.1,4.3,0.1c2.7,0,6.7-0.5,6.7-0.5s1.9-3.4,0.9-15c-0.9-11.7,0.7-13.6,1.5-15.1
				c0.4,0,81.8-0.8,81.8-0.8s0.4,3-0.2,5.3s-0.8,7.6-1,10.1c-0.2,2.5-0.2,10.8,0,12.4c0.2,1.5,1,6.4,1,6.4s0.3,1.9,7,0.8
				c0.7-0.2,2.9-0.8,2.9-0.8l4.7-1v-2.3L761,26.9c0,0-0.3,0.1,0.1-13.1c0.4-13.2,0.7-21.4,0.7-21.4L698.3-8c0,0-15.3,0.4-18.3-0.3
				s-3.9-1.2-4.8-1.2s-2.4,1.5-2.4,1.5l-0.5,0.4c0,0,0.5,3.1,0.9,7.5c0.4,4.4,0.6,10.1,0.6,10.1L673.5,21c0,0-0.3,2.3-1.1,2.3
				C671.5,23.3,665,23.4,665,23.4z"/>
			<path d="M735.6-1.3l-0.9,11.2c0,0-1.2-0.4,7.2-0.4c8,0.2,10.8,1,10.8,1s0.6-8.9,0-10.5s-5.5-0.7-9.6-1.3S735.6-1.3,735.6-1.3z"/>
			<g>
				<path class="st1" d="M737.1,0.4c0,0-0.9,5.8-0.9,6.9c0,1.1,7.3-0.1,7.3-0.1l-0.1-6.9L737.1,0.4z"/>
				<path class="st1" d="M745.9,0.4l-0.2,7.7l6.3,0.9c0,0,0-7.2-0.9-8.2C750.1-0.2,745.9,0.4,745.9,0.4z"/>
			</g>
		</g>
		<g transform="translate(406 18)">
			<path d="M665.4,77.6l0,2.5l6.5-0.1l3.3-1.2c0,0-1.1-7.9,0.2-15.7c-0.5,0-5.4-0.5-5.4-0.5s9.3-8,14.4-12.7
				c5.1-4.7,7.9-8.5,11.3-12.1c3.5-3.6,9.4-8.9,9.4-8.9s6.6,5.9,11.7,11.6c5.2,5.7,10.2,9.1,10.2,9.1s1.1-6.4,0.2-18.2
				s-0.1-13.2-0.1-13.2l44.3-3.4c0,0-0.6,7.5,0.1,10.8s1.3,7.4,1.3,7.4l-3,0.5l-0.4,2.3l8.2-0.1c0,0,9.7,0.5,11.4-0.3
				c1.8-0.8,2.5-1,2.5-1l5,0.9l0.7-9.5c0,0,1.5-0.3,2-0.7c0.5-0.4,5.2,0.1,5.6,0.5s1.4,1.1,1.4,1.1l0.1,8.4c0,0,7.9,0.9,9.1,0.4
				c1.2-0.4,3.3,0,3.3-0.8c0-0.7,2-7.2,1.5-7.8s1.5-1.4,1.5-1.4s5-0.8,5-1.2s1.1,0.6,1.1,2.1c0,1.5-0.7,9.1-0.7,9.1s4.3-1.1,8.1-1.1
				s6.5,0.1,6.5,0.1s0,14.8,0.4,17.7c0.4,3,0.7,14,0.7,14l18.9-0.1l0.4,17.3l1.4,5.9l9.3,0.5l-0.2-2.3c0,0-6.1-0.4-6.5-0.4
				c-0.4,0-2.2-1.6-2.2-1.6s-0.8-5-0.4-9.5c-0.1-3.5-0.3-12.1-0.3-12.1l-19.3,0.5c0,0-0.5-26.8-0.5-28.3c0-1.5-1.5-2.7-1.5-2.7
				l-6-0.4l-6.2-0.9c0,0,1-11.3,1-17.6s-0.2-13.5-0.2-13.5l0.4-15.2l0.2-3.5l-7.6-0.9l-6.1,1.3l1,9.2l-0.4,10.3l-0.7,12l-0.7,18.4
				l-0.2,0.7l-7.4-0.2l-0.9-1c0,0,0.7-10.9,0.1-18.6s-0.6-18.9-0.1-25s0.1-6.4,0.1-6.4l-2.7-0.7c0,0,0.3-0.1-3.7,0.6
				c-4,0.7-4.5,0.7-4.5,0.7l-3.5,0.3l0,3c0,0-0.2,1.7-0.2,9.9s0.1,15.4,0.1,15.4l-0.1,9.6c0,0,0.4,7.2,0,8c-0.4,0.8-1.3,2.4-1.6,2.4
				c-0.3,0-2.4,0.9-3.6,0.9c-1.2,0-13.2,1.2-13.2,1.2l-0.5-1.9l-1.5-19.3c0,0-17.1,0.4-25.5,0.8c-8.4,0.4-25.4,1.5-25,1.8
				c0.1,0.1,0.2,2.8,0.9,8.8c0.6,8.5,0.4,20.6,0.4,20.6s-7.3-8-9.8-10.4s-9.7-7.7-9.7-7.7s-9.6,7.7-16.2,15s-20.8,20.1-20.8,20.1
				s-0.4,1.3-0.7,1.9l0.6,1.1l4.2-0.2c0,0,0.6,3.3,0.6,6.7s-0.6,6.5-0.6,6.5L665.4,77.6z"/>
			<g>
				<path class="st2" d="M796.3-14.3l-0.4,5c0,0,3.3,1,4.9,1.1c1.6,0.1,4.8-0.6,4.8-0.6l0.8-6.3c0,0-3.9,0.9-6.4,0.7
					C798.4-14.3,796.3-14.3,796.3-14.3L796.3-14.3z"/>
				<path class="st2" d="M801.2-3.5c-1.6,0.2-4.8,0.2-4.8,0.2l0.2,4.3c0,0,3.1,0.7,4.7,0.7c1.5,0,4.5-0.7,4.5-0.7l0.4-5.5
					C806.3-4.5,802.9-3.7,801.2-3.5L801.2-3.5z"/>
				<path class="st2" d="M801.1,5.9c-1.4,0.2-4.2,0.4-4.2,0.4l-0.4,5.4c0,0,3.3,0.6,4.9,0.4c1.5-0.2,4.3-1.4,4.3-1.4l-0.2-5.9
					C805.5,4.8,802.6,5.6,801.1,5.9z"/>
				<path class="st2" d="M800.9,16.4c-1.4,0.1-4.1-0.5-4.1-0.5l0.6,6.5c0,0,4.4,0.5,5.8,0.3c1.2-0.1,2.1-1.1,2.1-1.1l-0.3-6.1
					C805.2,15.5,802.4,16.3,800.9,16.4z"/>
				<path class="st2" d="M820.9,21.5c0,0,1.2,0.8,2.5,0.7c1.3,0,5.4-0.9,5.4-0.9v-7c0,0-2.7,1.2-4.3,1.6c-1.2,0.3-4.3,0.4-4.3,0.4
					L820.9,21.5z"/>
				<path class="st2" d="M823.3,12.9c1.2,0,4.4-0.8,4.4-0.8l1.6-7.2c0,0-3,1-4.5,1.1c-1.5,0.2-4.5,0-4.5,0l0,6
					C820.4,12.2,822,12.9,823.3,12.9L823.3,12.9z"/>
				<path class="st2" d="M821.1,1.6c0,0,2.4,1.1,3.8,1c1.2-0.1,3.8-1.6,3.8-1.6l0.1-6c0,0-2.1,1.1-3.2,1.3c-1.5,0.2-4.7,0-4.7,0
					L821.1,1.6z"/>
				<path class="st2" d="M821.6-8.8c0,0,2.1,0.7,3.5,0.7c1.2-0.1,4.3-1,4.3-1l-0.1-6c0,0-2.8,0.4-4.1,0.4c-1.5,0-4.3-0.6-4.3-0.6
					L821.6-8.8z"/>
			</g>
			<path d="M698,54.5c0,0,1.6,0.1,5.5,0.1s10-1,10-1s0.6-2.6-0.6-5.5c-0.2-2.1-7.2-13.1-13.2-2.5c-0.6,1.1-0.9,2.4-1.5,3.9
				C697.6,53,698,54.5,698,54.5z"/>
			<path class="st1" d="M700,52.6l0.5-5.6c0,0,3-2.7,3.6-2.7s1,3.5,1,3.5l-3.4,0.6l0.2,1.3l2.8,0.2l0.4,1.8l1.1-0.2l-0.1-2l4.3,0.6
				l-0.1-1.4l-4-0.8l-0.4-3.7l3.8,1.1l0.9,1.3l0.5,1.6l0.5,4.1l-1.1,0.7l-3.8-0.3L700,52.6z"/>
		</g>
		<path d="M1279.1,105.8v2.2l4.3,1.9l4.5-1.1l-0.5-45.7l0.9-5.4c0,0,4.3-1.1,18-1.6c13.7-0.4,19.5-1,19.5-1s0.8,11.4,0.8,16.6
			c0,5.2,0.9,13.1,0,16.7c-0.8,3.6-0.8,4.3-0.8,4.3s9.7-0.1,18-0.1s16.3,1.5,16.3,1.5l0,16.6l10.6-0.1l0.1-3l-7.5,0.3
			c0,0-1-2.7-1-6.6c0-3.8,1.2-9.3,1.2-9.3s-0.3-0.4-1.9-0.9c-1.7-0.6-10.3-0.5-10.3-0.5l-21.4-0.2c0,0-1.2-7.1-1.2-13.4
			s0.2-24,0.2-24s-2.8-0.4-5.2-0.4c-2.4,0-5.1,0.2-5.1,0.2l-0.3-12.2c0,0,0.9-3.3,1.4-3.3c0.4,0,8.1-1.4,8.1-1.4l-7.7-0.4
			c0,0-1.2-0.3-1.9-1.7s-0.5-4.5-0.5-4.5l-2.7,2l0.4,2.7l-7.5,2l-0.3,1.2l7.4-0.7l1.2,3.5l0.2,12.3c0,0-11.3-0.4-16.6-0.1
			c-5.3,0.4-2.8,0.4-7.3,1.1c-4.4,0.6-4.7-0.9-5.1-0.9c-0.5,0-2,1.5-2,1.5s0.6,18.2,0.3,25.9s-0.5,25.8-0.5,25.8l-1.3,0.7
			L1279.1,105.8z"/>
		<g transform="translate(759 58)">
			<path d="M665.5,48.5c0,0,2.5,0.1,4.4-0.6c1.9-0.7,2.4-0.7,2.4-0.7s0.9-2.9,0.9-8.2s-0.4-8.3-0.4-10.9s0.2-6.8,0.2-6.8
				s2.3,0.1,6.2,0.1c3.9,0,6.6-0.5,9.8-0.5c3.2,0,7.9-0.1,10.5-0.1c2.5,0,6.4-0.4,10.3-0.4c4,0,8.3-0.3,8.3-0.3l0-13.2l-12,13.6
				l11.9-16.1L718-3l-3.6-0.2v-0.9l3.8-0.7L718-7.2l-2,0.1l-0.5-1.3l2.2-0.1l0.2-2.8c0,0,0.8-0.5,1.1,0c0.3,0.5,0,2.9,0,2.9h3
				c0,0-0.6,0.8-1,1c-0.6,0.3-1.6,0.3-1.6,0.3V-5h4.4c0,0,0.7,0.6,0.2,0.9c-0.8,0.4-4.2,0.9-4.2,0.9l0,6.9l11.4,15.6h-2.1L719.9,6
				l0.8,13.8l16.1-0.1l2.3,26.3c0,0,19.9,0,15.9,0v2.1c0,0-3.1-0.1-6,0c-5.6,0.2-13,0.8-13,0.8s-1.4-6.3-1.4-12s0.3-14.8,0.3-14.8
				s-9.7,1.2-18.8,1.2c-9.1,0-41.2,0-41.2,0s0.5,14.5,0.5,17.1s0.7,7.8,0.7,7.8l-1.1,1.9c0,0-4,2-5.5,2h-3.5L665.5,48.5z"/>
			<path d="M678.1,28.3c0,0,0.1,4.4,0.4,5.6c0.3,1.3,0.9,4.7,0.9,4.7s6.6,0,8.3,0.2c1.7,0.2,5.5,0.3,6.8,0.8
				c1.2,0.5,1.5,0.3,1.5,0.3s0.4-0.9,0.7-2.5s0.3-4.7,0.3-6.2c0-1.5,0.3-3.6,0.3-3.6s-2.9-0.1-4-0.1s-7.4,1-9.4,1
				C681.6,28.6,678.1,28.3,678.1,28.3z"/>
			<g>
				<path class="st1" d="M679.4,29.8c0,0,0.1,3.1,0.3,4.1c0.3,1.2,0.3,3.7,0.3,3.7s3.4-0.2,4.5-0.4c1.1-0.2,2.6,0,2.6,0l-0.6-7.4
					H679.4z"/>
				<path class="st1" d="M691.3,29.2c-1.2,0.1-3,0.6-3,0.6s0.1,1.9,0.1,2.3c0,1.5-0.1,5.1-0.1,5.1s2.9,0.4,4.2,0.4
					c0.8,0,2.4,0.5,2.4,0.5s0.6-3.2,0.5-4.6c0-0.6,0-1.8-0.2-2.9c-0.1-0.7,0.2-1.6,0.2-1.6S692.5,29.1,691.3,29.2z"/>
			</g>
		</g>
		<path class="st3" d="M1518,101.9c0,0,1.2,0.9,2-4.5s0.4-6.8,0.5-10.8c0.1-5.4,0-15.3,0-15.3s-3.2,0-4.3,0c-0.2,0-4.4,0-4.4,0
			s1.5-2.7,2.2-3.5c1.8-2.1,4.7-4.6,7.2-7.4c1-1.1,3.8-4.7,4.8-5.8c3.7-4.3,5.3-6,6.6-7.6c0.5-0.6,2.3-2,2.3-2s1.9,2,2.5,2.9
			c2,2.7,5.9,8.3,8.6,11.8c4.5,6,9.1,10.9,9.1,10.9l-6.6,0.4l0.3,2.8c0,0,8.9-0.6,15.9-0.6s14-0.2,18.8,9c4.9,9.2-0.5,9.4,3.3,9.4
			s10.5-0.4,10.5-0.4s1.7,3.8,1.8,6.1c0.1,1.2,0.5,4.5,0.5,4.5l3.6,1.4v2.2l-6.5-0.9c0,0-0.2-1.2-0.2-5.8c0-4.6-0.4-4.7-0.4-4.7
			s-0.7-0.3-5-0.3h-5.2l-0.7,2.9c0,0-0.4,0.3-0.8,0c-0.4-0.4-0.6-1.4-0.8-1.8c-0.4-0.8-0.7-1.6-0.7-3.1c0-0.9-0.3-1.7-0.4-3.2
			c-0.1-1,0.2-2.7-0.5-4c-0.7-1.3-1.5-4-3.1-5.6c-2.2-2.2-5.3-2.5-7.8-2.8c-5.6-0.8-22.4,0-22.4,0h-2.1l-0.7-4.7
			c0,0-1.9-3.2-1.7-3.5c0.2-0.2,4.2,1.5,4.2,1.5l2.2,0.1L1534.9,48l-18.6,21.4h6.4c0,0,0.2,19.7,0,28.8c-0.1,2.2-0.8,5.1-0.8,5.1
			l-0.7,1.5c0,0-2.1,0.7-3.8,0.7c-1.2,0-5,0.7-5,0.7l-0.5-2.2L1518,101.9z"/>
		<g transform="translate(937 36)">
			<g>
				<path d="M665.4,69.8l12.8,0.6l1.9-1.1c0,0-2.1-10.7-2.1-17.7c0-3-0.3-13.8-0.1-22.7c0.2-12.1,0.8-22.6,0.8-22.6l8.6-2
					c0,0-1.1-1.7-1.4-4.6c-0.2-1.7,0.3-4.6,0.5-5.7c0-0.4,7.3-0.4,7.3-0.4l0.5,4.3c0,0,2.3-7.9,2.3-10.3c0.1-0.3,12.3-0.4,12.3-0.4
					L709-3c0,0,1.7-0.1,2-3c0-0.5,0-0.8,2.4-0.4c2.4,0.4,6-1.1,6-0.7c0,0.4-0.7,7.3-0.7,7.3l2.1,1.3h7.2c0,0,0.9,10.2,0.9,11v12
					c0,5.7-0.4,9.4-0.4,12.4c0,1.6-1.3,11.7-1.2,19.6c0.1,7.5,1.2,12.9,1.2,12.9l0.7,1.4h9.4l-0.9-3l-7.1-0.6c0,0-0.9-19-0.4-28.3
					s0.1-36.9,0.1-36.9l-1.7-2.5l-6.8-0.3l-1.1-0.7l0.4-6.7c0,0-0.6-1-2.9-1s-6.7,0-6.7,0l-0.6-6.9c0,0-4.6,0.6-6.9,0.6
					c-3,0-9.1-0.6-9.1-0.6l-0.6,3.5l-0.1,2.8c0,0-3.4,0.8-5.2,0.9c-1.5,0.1-4.6-0.5-4.6-0.5l-1,11.9l-6.5,0.2l-1.8,2.5
					c0,0,0.9,9.6,0.9,13s-0.2,20.7-0.2,25.5s0.3,23.5,0.3,23.5s-4.7,0.8-5.8,0.8c-1.1,0-5.3-0.7-5.3-0.7L665.4,69.8z"/>
				<path d="M690.5,12.5c0,0-0.5,6.5,0.6,6.5s9.1,1,9.1,1s0.7-7.7,0.7-8.3s-8-1.9-9.2-0.9C690.5,11.6,690.5,12.5,690.5,12.5z"/>
				<path d="M707.1,34.9l0.7,7.2h9.2l1.1-7.8l-9.7-1.8L707.1,34.9z"/>
			</g>
			<g>
				<path class="st1" d="M692.1,12.7l-0.4,4.5l7.6,1.6l0.7-6.8L692.1,12.7z"/>
				<path class="st1" d="M709.1,35.1l-0.3,5.5l7.5,0.4l0.6-5.6l-6.1-1.4L709.1,35.1z"/>
			</g>
		</g>
		<g transform="translate(1010 44)">
			<path d="M664.6,59.6l0,3.1l8.5,0.8c0,0,2.2-2.8,2.2-6c0-3.2-1.9-12.2-1.9-14.6s0-11.5,0-11.5S679,30,685.6,30
				c6.6,0,13.6,0.5,13.6,0.5l1.6,8.9l1.2-4.7c0,0,0.9-6.7,0.2-7.5c-0.7-0.8-0.2-7.7-0.8-10.4c-0.5-2.7,0.1-6,0.1-6s0.4-1,1-1
				s8.2-0.2,8.2-0.2l9.4-0.3c0,0,5.5,0.6,7,0.6c1.5,0,9.3,0.9,9.3,0.9l6.5-0.4c0,0,1.4,5.6,1.4,6.8c0,1.2-0.2,7.8-0.8,12.7
				s-0.7,19-0.7,19.7c0,0.7,0.4,14.3,0.4,14.3l8.7-0.2V60l-5.9,0.2c0,0-0.9-26.9,0-32.2s-0.3-20.6-0.3-20.6s-9.6-0.1-12.3-0.1
				s-6.4,0.2-7.8,0.2c-1.4,0-8.6-1.1-8.6-1.1l-1-1.4l-3-5.1l0-3.2l1.3-6.3L715-12l-1.6-2l-2.5,2.6l-0.6,1.6l-1.2,1.2l-1.3,1.3
				c0,0,0.6-1.3-0.6-1.3c-1.2,0-1.6,1.3-1.6,1.3l0.8,1.4l-0.8,1.3l-0.6,1.1l-1.3,1.5l-1.6,1.2l-2,2.4c0,0,1.3,0.2,2.9,0.2
				c1.6,0,3.9-1,3.9-1l3-0.8l-0.3,3.2L708.8,6l-1.6,0.8L703,7l-2,0.1l-2.7-0.2l0.4,3.7c0,0,1.1,8.8,1.1,9.9s-0.5,7.4-0.5,7.4h-7.8
				l-8.6,0.3l-9.1,0.3l-3.4-0.3l-0.2,6.4c0,0,0.1,3.6,0.8,9.2s1.3,14.6,1.3,14.6l-0.6,0.8L664.6,59.6z"/>
			<g>
				<path class="st2" d="M711.2,0.9l-2.4,5.9l5.3,0.1l2.5-0.1l-2.4-3.2l-1.3-2.2l-0.1-1.6L711.2,0.9z"/>
				<path class="st2" d="M703.8-0.2c0,0,1.9-0.1,4.1-2.4s5-8.1,5-8.1L712-4.5l-0.3,2.4l-3.4,2H703.8z"/>
			</g>
		</g>
		<path d="M1761.9,103.9l0,0.4c0,1,0,3,0,3l9.1,0.3c0,0,0.9-9.7,0.9-11.5c0-1.8,0.1-4.9,0.4-5.5s1.3-2.7,1.3-2.7l-1.5-15.9
			c0,0-0.7-3.1,0.6-4.3s6.6-6.9,7-7.7c0.4-0.7,6.7-9,7-9.5c0.3-0.5,1.7-1.4,2.1-1.4c0.4,0,12.7-0.3,13-0.3s8.8-0.9,14.1-0.3
			c5.3,0.6,25.7,0.4,26.6,0.4s20.4,1.5,22.8,0.7c2.3-0.7,4.2-1.6,4.2-1.6l1,0.1c0,0,13.1,14.4,14.9,15.9c1.8,1.5,10.2,9.2,10.2,9.2
			s-1.5,1.5-2.2,1.5s-0.4,2.6-0.4,2.6L1893,92l0,17.2l0.2,1.1c0,0,6.3,0.6,8.3,0.6c2.1,0,7.4-0.7,7.7-0.7c0.3,0,0.1-3,0.1-3
			s-3.7,1-6.9,1s-7.5-1.7-7.5-1.7l-0.2-11.9c0,0-0.1-6.2-0.1-8.5s1-10.1,1-10.1l4.7,0.5l0.4-1.9c0,0-1.4-0.5-3.9-2.6
			c-2.5-2.1-12.8-13.6-14.9-16c-2.1-2.4-7.7-7.6-7.7-7.6l0.7-2.4c0,0-1.8-0.8-3.2-0.8s-10.2,0-10.2,0l-0.8-8.5l0.4-2.5l1.8-1.3
			l1.1-0.3l-2.1-1.3l-1.6-0.8l0.5-1.4l2.9-0.5h3.8l0.9-0.4l-0.1-1.2l-3.4,0.2c0,0-1.3-0.1-2.7-0.1c-1.4,0-2-1.8-2-1.8l4.4-1.1
			l-0.5-1.5l-3.8,0.3l0.1-3.7l-0.3-1.6l-1.4,1.4l-0.4,1.6l-1.1,1.2l-1.9,0.8l0.1,1.4l2.6-0.1l0.6,1.2c0,0,0.6-0.2-1.6,0.5
			c-2.2,0.7-6.8,2.2-6.8,2.2l1.2,1.2h3.9l3.9,0.2l-1.1,1.4l-2.3,1.4l0.2,1.4l1.2,0.8l1.6,0.1l0.2,10.1c0,0-2.1,1.5-5.8,1.1
			c-3.6-0.4-12.3-1.6-20.8-0.7s-14.9,0.9-21.2,0.9c-6.3,0-25,0.1-25,0.1s-0.3,1.9-1.2,3.2s-11.1,12.9-11.1,12.9l-10,12l6,0.3
			c0,0,0.7,9.6,0.7,14c0,4.5-1.3,15.5-1.3,15.5L1761.9,103.9z"/>
		<g transform="translate(1244 45)">
			<path d="M664.8,62.5c0,0,0.8-0.2,1.8-0.4c0.7-0.1,1.4-0.3,1.9-0.3c1.2,0,12.4-0.4,12.4-0.4l2.9,0.1c0,0,1-5.1,1-7.6
				c0-6.1-0.1-11.9-0.3-17.5c0-1.1,0.4-5.3,0.3-6.3c-0.2-1.1-1-0.9-1-0.9s-3.9,0.2-9.2-1.2c-1.5-0.5-1.8-1.2-2.9-1.9
				c-1.2-0.7-1.4-1.4-1.4-1.4l0.4-9.9c0,0,3.1,3.5,8.4,4.6c1.3,0.2,2.5,0.4,3.6,0.3c0.7-0.1,1.6,0,2.2-0.3c0.1-1.7,0.1-2.9,0.1-2.9
				s-4.1,0.3-7.9-0.7c-3.4-0.9-4.8-2.9-5-2.9c-0.4,0-2.1-0.9-2.1-1.7c0-1.8,0.4-10.3,0.4-10.3v-2.1c0,0,4.6,6,6.8,6.8
				c2.3,0.9,7.9,0.6,7.9,0.6s-0.5-5.3-0.5-8.2c0-3.9,0.5-12,0.5-12l11.5-0.4l0.6,21.1h0.9h4.8l0.8,7.3l-5.5,0.8v4.8
				c0,0,0.4-0.2,0.5-0.2c1.9,0.1,5.5,0,5.5,0v7.2l-5.5,0.8l0.7,33.7c0,0,11.6,1.6,16.4,1.7c4.1,0.1,10.3-1.3,10.3-1.3l0.2,4.1
				l-29.9-0.7l0-36.7l-4.3-0.7l0.6-8.1c0,0,1.4,0.8,2.2,0.9c0.5,0,1.5-0.4,1.5-0.4l-0.8-5.6l-3-0.3c0,0-0.1-7.7,0.5-7.9
				c0.6-0.2,1.7,0.6,1.7,0.6l0.9-18.9l-8.5,0.4c0,0-1,5.7-1,9.3c0,0.7,0,1.4,0,2.2c0.2,3.9,0.7,8.7,0.7,8.7l0.4,1.3
				c0,0-6.8-0.7-10.2-2c-2.6-0.9-5.9-4.6-5.9-4.6l0.5,6.1c0,0,3,3.5,5.7,4.4c3,1,9.6,1.2,9.6,1.2l-0.1,4.6v1.2c0,0-1.7,0.8-3.9,1
				c-2.2,0.2-4.9-0.3-6.7-0.7c-1.8-0.4-4.1-3.7-4.1-3.7v4c0,0-0.2,2.1,0.3,2.6c1,1.1-0.4,1.6,5.8,2.7c6.2,1,8.6,1.2,8.3,2.3
				c-1.1,3.8,0.7,16,0.7,17.8c-0.1,10.1-0.7,16.8-0.7,16.8s-1.8-0.6-4.7-0.6c-1.8,0-3.9,0.9-5.6,0.9c-0.1,0-5,0.4-5.6,0.5
				c-2.2,0.3-5.2,0.6-5.2,0.6L664.8,62.5z"/>
			<g>
				<path class="st2" d="M697.4,9c-1.2-0.1-3.3-0.8-3.3-0.8l-0.5,5.3l2.7,0.7c0,0,1.1,0,1.6-0.1c1.4-0.1,2.8-0.1,4.1-0.2l-0.5-5.4
					C701.5,8.5,698.7,9.1,697.4,9z"/>
				<path class="st2" d="M693.7,21.8l-0.1,4.6c0,0,2.1,0.4,4.5,0.3c2.4-0.1,4.8-0.7,4.8-0.7l0.2-4.6l-4.7,0.7c0,0-0.2,0-0.3,0
					C695.9,22.3,693.7,21.8,693.7,21.8z"/>
			</g>
		</g>
		<g transform="translate(1297 84)">
			<path d="M671.3,26.6h1.9c0,0,14.1-1.1,16-1.1h7.5l0.6-4.6c0,0-1.5,1.2-4.8,1.2c-3.3,0-9.6-0.6-9.6-0.6l-5.6,0.5l0.1-4.9
				c0,0,0.2-2,2.3-3.2s3,1.5,4.4,0.8s3.8-0.8,3.8-3.1s1.6-5.8-0.2-8.6S683-2,683-2.7s-3.6-3.9-3.6-4.6s-4.1,4.7-4.1,4.7
				s-2.4,3.1-3.1,3.1s-5.5,1.9-5.5,1.9l-1.8,5.2c0,0-0.3,3.7,0.7,3.7s2.9,0.9,2.9,0.9l3.7,1.8c0,0,1.3,1.7,2.2,1.7
				c0.9,0,0.9,3,0.9,3l0.6,3l-4.6,1.3V26.6z"/>
			<path class="st1" d="M666.9,4.6l0.2,5l7.3,2.3l5.4,0.8l5.5,0.2c0,0,1.7-0.9,1.7-2.5S685.6,5,685.6,5l-1.4-4.2l-1.9-0.1
				c0,0-1.9-1.2-1.9-2.4s0.8-3-0.7-3s-3.9,2.9-3.9,4.1s-0.4,2.1-1,2.1c-0.6,0-4.9,1.8-4.9,1.8L666.9,4.6z"/>
			<path d="M680.4,4.7c0.1,0.2,2.5-2,2.7-1.8c0.8,1.4-0.6,5.7-0.6,5.7s-0.4,1.3-1.2,0.6c-0.8-0.6-2.8,1.8-2.8-0.6
				S679.6,3.2,680.4,4.7z"/>
		</g>
		<g>
			<path d="M1377,106.8c0.7-2.6,2.2-8,2.2-8l4.7-17.7c0,0,0.8-3.5,1.3-7.5c0.5-4.1,0.3-17.1,0.3-17.1l1.1-38.5h2.5
				c0,0,0.8,6.9,0.8,12.8s1.6,30.4,2.1,35.3c0.5,4.9,1.6,10.7,2.1,12.7c0.5,2,2.1,10.2,3.7,15.5c1.6,5.3,3.3,9.6,3.3,9.6l1.9,2.9
				l-3.7-0.4l-4.5-13.5c0,0-1.9-10.6-3-14.9c-1-4.3-1.3-6.7-2.1-11.8s-1-18.4-1-18.4l-0.6-15.4l-0.2-13.1l-0.8,1.5V40l-0.7,10.4
				v16.7c0,0-0.1,5.5-0.5,8.5s-1.9,10-1.9,10l-1.3,6.9l-2.1,8.6c0,0-0.3,1.2-0.5,2.9c-0.3,1.7-0.4,2.9-0.4,2.9
				S1377,106.8,1377,106.8z"/>
			<path d="M1384.6,17.8l0.8,0.3l3.8-0.1l1.1-0.4c0,0,0.8-0.1,0.3-0.9c-0.5-0.8,0.2-1-1.3-1.2s-3.4,0.5-3.4,0.5s-1.3,0.1-1.3,0.3
				C1384.5,16.5,1384.6,17.8,1384.6,17.8z"/>
			<path d="M1399.6,107c0,0-0.4-2.1-1.9-3.8c-1.6-1.7-4.9-3.1-4.9-3.1l-9.2-5.2l-1.4-2.3c0,0-0.1-1,0.9-2c1-1,4.5-3.2,4.5-3.2
				s3.3-2.6,4.1-3.7c0.9-1.8-1.3-3.3-3.1-4.5c-1-0.6-2-1.5-2-1.5s-2.7-1.3,0.2-3.1c2.9-1.8,3.8-5.5,3.7-5.7
				c-0.1-0.2-3.6-3.3-3.6-3.3s-0.7-2.7-0.7-2.9c0,0-0.2-0.5-0.2-0.7c0-0.9,0.3-3,0.6-3c0.3,0,2.9-2.4,2.9-2.4l0.4,1.6l-2.5,2
				c0,0-0.8,1.7,0.1,3.5c0.9,1.9,2.1,2.8,3,3.4c0.9,0.6,1.5,2.9,1.2,3.5c-0.4,0.6-1.4,2.2-1.6,2.5c-0.2,0.3-2.1,2.8-2.3,2.8
				c-0.3,0-0.4,0.4-0.1,0.7c0.3,0.3,1.9,1.3,2.6,1.8c0.7,0.4,3.9,3.2,3.9,4c0,0.8-3.9,4.8-6.8,6.7c-2.9,1.9-3.8,2.2-3.8,2.9
				s0.7,2.4,2.1,3c1.4,0.6,9.3,5.1,9.6,5.1c0.3,0,4.8,3.6,4.8,3.6l0.7,3L1399.6,107z"/>
			<path d="M1389.4,53.6c0,0-1.8-3.9-3-3.6s0.3-2,0.3-2s0.5,0.3,0.9,1c0.4,0.7,0-0.6,2.5,3.5S1389.4,53.6,1389.4,53.6z"/>
			<path d="M1386.6,43.3c0,0,1.1-2.8,2-3.6s0.9-2.2,0.9-2.2s-2.1,2-2.5,2.2S1386.6,43.3,1386.6,43.3z"/>
			<path d="M1389,31.9l-2-3.8l0-2.9l1.8,3.8L1389,31.9z"/>
			<path d="M1386.7,17h1.6c0,0-1.1-10.1-1.1-12.1c0-1-0.4,0.2-0.5,2c-0.1,1.8,0,4.4,0,4.4V17z"/>
		</g>
	</g>
</g>
<g id="Слой_3">
	<g>
		<path class="st0" d="M-658.6,112.7l0.1,2.3l1323.7,0.5l-1.7-6.3l-51.9,0.9l0.1-36.2l-4.8-0.7l0.2-6.5l3.9,0.5v-6.8l-3.8-0.6
			l0.5-6.9l2.5,0.5l0.1-20.5l-10.2,0.4l-0.7,19.4l-5.8,1.2l-8.5-5.7l-0.1,7.9l4.8,4.2l10.8,1.5L600,66l-3.6,0.8l-5.4-0.8l-5.5-3.1
			l-0.2,7.4l2.5,2l4.8,1.4l7.1,1.3l-0.1,18.4l-1,15.1l-6.8,0.1l-20.9,1.9l-6.8-0.8V76.4l2.5-1.7l-26-27.4l-83.6,1.1l-16.2,20.6
			l0.2,20.9l-1,17.1l-15.6,0.1l0.3-52.9l-45-1l0.9,20.3l-28.8,1.3l1.2,29.8l-16.2,1.9L335.8,89l1.1-31.6l-1.1-19.9l-8.2-0.5
			l-0.6-2.2l0.1-6.1l-9.7,0.7l-1-7.4l-13.8,1.5l-1.2,5.6l-8.8,0.5l-0.8,10l-7.2,3l-0.3,33.1l0.7,29.3l-7.1,1.1l-10-1.6l-0.9-10.6
			l-12.4,0.1l-0.9-9.2l-4.8-6.3l-8.5-2.5h-22.2l-1.4-5.1l5.2,0.2L205,48.1l-20.2,22.6l7.1,0.8l-0.7,31.7l-8.9,3.1l-15.6-0.3
			l-1.9-26.1l-62.4,1.5l0.7,24.7l-6.9,3.9l-24.2-1.3l-21.9-0.3l-18.7,1.9l-1.3-16.6l-32.4-1.1l-0.7-37.8l-41,3l0.1,50.1l-4,1
			l-11.7-1.4l-1.2-3.8l-0.6-19.6l-18.6,0.3l-1.4-30.8l-1.8-0.3L-94.6,53l0.3-11l-10.3,0.8l-1.7,9.7l-9.8,0.7l-1.1-11.2l-10.8,1.3
			l-1.2,9.1l-20.5,1.2l-1.7-21.2l-47.1,3.1l0.5,31.1l-20.9-20.5l-36.4,35.4l0.9,1.4l4.2-0.1l-0.6,14.3l-21.2,2.4l-0.9-1.7l0.1-25.8
			l0.9-8.2l-86,0.8l-0.5,30.4l-21.5,0.8l0-72.3l-54.2,3.8l0.7,61.5l-2.7-0.6l-4.4-3.7l-6.8,7.3l-0.8,11.5l-3.8,2.8l-6.4-0.5
			l-1.5-38.9l-22.7,0l1.1,33.2l-12.1,2.3l-1-12.6l-11.3-6.9l-9.7,8.1l-0.6,11.8l-11.9,0.2l-5.5-3.5l-2,3.1l-13.3,0.7l-0.4-23.4
			l-35-1l-0.7-16.7l-29.8,0.8l0.3,13l-0.5,24.9l-14.6,0.5l-1.4-9.9l3.2-2l-1.9-2.4l-1-3l-0.7-9.9c-2.8,1.2-3.8,6-3.8,6l-7.9-8.8
			l-18.5,18.1l5.3,2.4l-0.5,18.9L-658.6,112.7z"/>
		<path d="M40.4,108.6v2.9c0,0,6.8-1.6,11.4-1.6c2.6,0,11.8-1.2,15.7-0.8c1.6,0.1,2.8,0.3,3.8,0.4c2.3,0.3,2.1,0,2.1,0l0.7-0.8
			l-3.4-2.1l-1.6,1l-19.4,0.2h-2.7L40.4,108.6z"/>
		<g transform="translate(738 75)">
			<path d="M-664.7,34.7c0,0,0.2,0,0.5,0c2,0.2,9.4,0.8,12.2,0.7c4.1-0.1,8.9,0.7,8.9,0.7l0-3.6c0,0-2.8,0.2-3.7,0.2s-4-0.1-4-0.1
				l-0.2-2.3l3.3-3.5l3-2.5c0,0,0-1.6,0.4-2.1s1.2-2.3,0.9-3.1c-0.3-0.8-1.7-1.3-2.3-3c-0.5-1.7,0.4-9.1,0.4-9.1s-4.4-1.3-7.4-7.8
				c-0.2-2-0.5-7-0.5-7l-2.1,0.7l-0.4,3c0,0-3.9,4.9-3.9,5.2s0.8,4.8,0.8,4.8l0.8,1.3l-2,1.9c0,0,0.7,3.4,0.2,5.1
				c-0.5,1.8-0.1,1.5-0.8,2.6s-0.9,1.5-0.9,2.1c0,0.5-1.3,2.3-0.7,4.5c0.7,2.2,1.8,2.5,1.8,2.5l4.1,2.6l2.1,1.8l1,1.7l-4.8,1.2h-6.4
				V34.7z"/>
			<g>
				<path class="st1" d="M-655.3-1.4l-1.8,2.5l-0.7,3l2.9,0.6l-2.2,1.3c0,0-0.7,4.9-0.7,5.3c0,0.5,1-0.6,1-0.6s0.9,1.1,1.2,1
					c0.4-0.1,0.7,2.6,1.4,4.1c0.6,1.3,1.6,1.4,1.6,1.3c0-0.7,0.4-1.2,0.4-1.9c0-1.2-0.4-3.8-0.4-3.8l-1.3-4l1.7-0.1l1.4,10.5
					c0,0,1.6-0.9,2-2c0.3-0.6-0.7-1.6-0.4-1.9c0.6-0.5,1.7,1.2,1.9,0.6c0.1-0.3,0.4-2,0.4-2.4c0.2-1.8-0.4-3.2-0.4-3.2
					s-1.6,2.8-2.1,2.5c-0.3-0.2,0.5-3.2,0-3.6c-0.1-0.1-0.3-0.4-0.4-0.5c-0.5-0.4-1-0.9-1.4-1.3c-1-1-2.4-2.9-2.4-3.4
					C-653.6,1.2-655.3-1.4-655.3-1.4z"/>
				<path class="st1" d="M-656.6,16.8c0,0,0.8-1.4,0.4-2.2c-0.4-0.8-1.8-1-2-0.8c-0.3,0.3-0.5,5.2-0.5,5.2l1.8,1.5l-3,1.7
					c0,0-0.1,1.7,0.8,2.6c0.9,0.9,3,1.8,3,1.8l2.6-3.1l-2-1.6l1.5-1.4l0.4-2.3L-656.6,16.8z"/>
				<path class="st1" d="M-652.2,20.4l0.2,6.3l2.9-1v-1.4c0,0,1.9-1.2,2.3-3.3c0.5-2.1-0.1-3.5-1-4.1s-0.9-0.1-0.9-0.1V19l-0.3,2.1
					c0,0-0.1,0.3-1.4,0c-1.3-0.3-0.4-1.8-1-1.2S-652.2,20.4-652.2,20.4z"/>
			</g>
		</g>
		<g transform="translate(122 66)">
			<path d="M-664.7,38.6c0,0,2.8-1,8.5-0.4c0.3,0,1.2-3,1.2-3l4.2,4c0,0,2.8-1.3,6.5-1.3c0.4,0.1-0.3-1.9-0.3-1.9s-2,0.4-4.4,0
				s-3.3-1.2-3.3-1.2s0.1-3.1,1.7-5.8s4.3-0.2,7.3-12.4c0.1-2.6-4.8-7.5-4.8-7.5l1.4-5.5l-3.9-4.5l-1.8-8.9l-2.4,1.7
				c0,0-5.6,12.8-7.3,14.2c-0.5,0.9-1.7,2.4-1.7,2.4s1.3,1.1,1.3,2.4s-0.2,3.1-0.6,5c-0.4,1.8-0.6,6.7-0.6,6.7s3.4,5.5,4.9,7.1
				c1.5,1.6,1.5,0.7,1.5,6c-0.6,0.6-5.1,1.1-7.4,0.3C-665.3,35.6-664.7,38.6-664.7,38.6z"/>
			<g>
				<path class="st1" d="M-661,10.7h3.5l0.6-5.2c0,0,0.5-1.3,0.8-2.7c0.1-0.3,0.6-2.4,0.6-2.4l1.4,3.1l3.4-0.6c0,0-2.6,4.7-4.1,9.5
					c-1.5,4.8-1.8,9.2-1.8,9.2l2.7-0.5c0,0,1.7-2.5,3-7.8c1.3-5.2,0.5-1.6,2.1-7.3c0.4-1.1,1.4-2.7,1.4-2.7s-3.1-1.7-5.6-5
					c-0.2-0.8-1.7,0.2-1.7,0.2s-2.6,1.4-2.6,3.6s-1.3,2.8-1.3,2.8s-2.2,0.2-2.2,1.6S-661,10.7-661,10.7z"/>
				<path class="st1" d="M-659.8,25.2c0,0-1.8-1.3-0.9-6.2c0.9-4.9,3.5-7.4,3.5-7.4s1.1,1.7-0.4,7.6S-659.8,25.2-659.8,25.2z"/>
				<path class="st1" d="M-656.8,27.7l2.3,2.5c0,0,8.5-8.8,9.1-10.6c0.6-1.8-0.6-6.7-0.6-6.7s-5.3,4.7-4.5,6.7
					c-0.2,1.3-1.2,1.5-1.6,2.3c-0.7,1.4-0.9,3-0.9,3s-1,0.2-0.5-1.3c0.5-1.5-3-1.6-3-1.6L-656.8,27.7z"/>
			</g>
		</g>
		<path d="M-522.5,102v1.8l8.4,0.7l-0.6-12.5c0,0,2.1-3.8,9.3-7.8c1.2-0.1,10.3,6.3,10.3,6.3l-0.1,12.1c0,0,0.2,0.9,2.4,0.9
			c2.2,0,4.4-1.6,6.3-1.6s3-0.4,3-0.4v-1.3c0,0-6.1,1.8-9.4,0.4c-0.2-0.8-0.2-4.3-0.2-5.3c0-1,1.4-5.2,1.4-5.2s-10.9-7.2-13.5-9.5
			c-0.3,0.3-12.1,10-12.1,10l-0.5,1.5l1.5-0.3l-1.3,8.6l0.2,1.2L-522.5,102z"/>
		<g transform="translate(181 54)">
			<path d="M-664.6,46.1c-0.2,0.2-0.1,1.4-0.1,1.4s2.9,0.3,3.3-0.2c1.8-24.1,0.4-30.6-0.9-33.3c0-0.4,20.5-0.2,20.5-0.2l1.4,39.8
				l8.5,0l0.3-3.4c0,0-5.4,0.3-6.2,0.1c-1.5-6-0.4-29.3-2.2-38.5c-0.6-0.1-6,0-6.5-0.1c0-3.7-0.7-4.7,2.3-13.8
				c0.3-2-0.8-9.1-0.8-9.1s-4.8,2-9.1,6.6c0.1-0.1-2-0.7-3.8-0.7s1.3,3.9,1.3,3.9l-3.2,4.7l-0.7,6.4c0,0,4.6,0.4,5.5,0.4
				s6.5-4.4,6.5-4.4l-0.2,4.4c0,0,0.4,1.8-15.3,1.8c-0.7,0.1,0.4,1.8,1.1,34.1C-663.2,46.6-664.5,45.9-664.6,46.1z"/>
			<g>
				<path class="st0" d="M-656.8-0.4c0,0-1.6,2.7-1.8,3.8c-0.1,0.5,0.9,1.2,0.9,1.2l2.5-0.1c0,0,2.8-1.9,4.5-4.9
					c1.3-2.3,2.4-4.1,3-5.4c1.5-3,0-3.9,0-3.9l-5.3,4.6l1.3,4.7L-656.8-0.4z"/>
				<path class="st0" d="M-658.6,7.3c4.7-2.8,7.2-4.5,9.5-7.7s3-8.9,3-8.9v8.1c0,0.8-2.3,3.9-3.6,5.7S-663.3,10.1-658.6,7.3z"/>
			</g>
		</g>
		<path d="M-621.1,102.8l-0.7-3.2c0,0,2.8,0.2,3.2,0.3c1.2,0.5,1.7,1.2,2.3,0c0.4-0.8,0.2-9.4,0.4-18.3c0.2-9.8,0.6-19.9,0.6-19.9
			s7.1,0.1,10.7,0c4.2-0.2,12.6-1,12.6-1l-1.6-11.9c0,0-1.5-0.5-2.5-0.6c-1.5-0.1-5,0.1-5,0.1s0.2-0.7,0.7-0.9
			c2-0.9,6.9-2.5,6.9-2.5l-10.2-0.9c0,0,0.3-0.5,1.6-0.7c1.7-0.3,7.3-0.9,7.3-0.9s-0.1-1.8,0-3.2c0.1-0.8,0.6-3.3,0.6-3.3l1.4,0.7
			l1.1,5.5c0,0,2.1-0.2,3.6-0.4c1.8-0.2,6.3-0.8,6.3-0.8l0.1,1.7l-7.3,1.7l3.9,1.4l-6,2.7c0,0-0.1,4.6,0,6.7c0.1,2,0.7,5.7,0.7,5.7
			h7.4c0,0-0.5,5.2-0.4,6.9c0.2,3.3,0.4,9.9,0.4,9.9s2,0,3.3,0c1,0,3.4,0,3.4,0l25.2,0l2.7,1.6l1.8,2.1l0,19.8l4,0.5l0,2.8l-3.8,0.7
			l-0.7,1.7l-2.8-2.1l0-23.2c0,0-1.8-1.2-7.3-1.4c-6.3-0.2-27.9,0-27.9,0l-0.1-15.2c0,0-6.4-0.4-9.9-0.3c-3.2,0-10.3,0.5-10.3,0.5
			s-2.9,0.1-4.2,0c-1.4-0.1-4.2-0.8-4.2-0.8s1.4,1.1,1.6,2c0.3,0.7,0,2.7,0,2.7s-0.7,11-0.9,16.4c-0.1,5,0,14.5,0,14.5l-1.2,2.8
			L-621.1,102.8z"/>
		<path d="M-653.7,112.9h-5.2c0,0,0.9-4.4,1.3-10.2c0.4-5.8,0-10.2,0-10.2s-4.8-0.6-6.3,0c-0.7,0.3-1.5-2,0-4.2
			c1.5-2.4,6.1-5.2,10.6-8.7c8.4-6.5,10.4-9.2,10.4-9.2l7.1,7.1c0,0,2.6-3.9,3.7-4.3c1.1-0.4,2.3,1.9,2.3,1.9s-0.9,5.7,0,9.4
			s4.5,6,5.1,6.6c0.6,0.6-4,0.6-4,0.6l-0.3,6.9l8,0.7l0,3.1l-10.1,0.2l-0.5-12.6l2.8-0.8c0,0-0.9-0.6-1.9-3.8
			c-1-3.2-1.4-10.4-1.4-10.4s-0.8,0.9-1.1,3.3c-0.3,2.4-1.3,3.9-1.3,3.9l-7.9-9.9l-17.4,16.9l5.4,0.8L-653.7,112.9z"/>
		<g transform="translate(213 37)">
			<path d="M-664.8,67.7l0.6,2.7l2.8-1.3l3.2-1.4c0,0-1.2-6.9-0.4-11.3s5.1-6.6,5.1-6.6s3.4,0.6,6.2,5.3c0.4,0.6,2.3-2,2.7-3.3
				c0.4-1.3-0.6-24.5-0.3-43.4c0.4-6.9,1.3-16.4,1.3-16.4s2.3-1.2,7.8-1.2s5.8-0.3,11.3-0.3c5.5,0,11.4-1.2,15.7-1.2
				c1.9,0,5-0.5,7.7-0.7c3.6-0.2,6.7,0,6.7,0s0.8,6.2,0.2,13.7c-0.6,7.5-0.1,9.3-0.5,13.9c-0.4,4.5,0.5,5.8,0.5,9.6
				s-0.1,35.4-0.1,35.4s1.5-0.4,1.8-0.4c3.9-1.9,1.2-0.5,9.4-1.3c1,0.1,2.1,0,2.1,0l0.5-2.1h-10.4c0,0-1.6-6.6-0.7-24.5
				c0.4-8.8-0.3-14.4-0.4-20.3c-0.1-6.2,0-12.6,0-16.6c0-7.9,0.1-8.9,0-9.6c-3.2-1.4-8.3-0.6-16,0c-1.8,0.1-3.8-0.1-5.9,0
				c-3.1,0.2-6.5,0.8-10.2,0.8c-8.4,0.1-14.3,0.8-18.5,0.9c-3.2,0.1-5.6-0.4-5.6-0.4l0.4,53.7l-1.4,9.1l-4.5-5.8l-8,10.2l-0.7,11.2
				L-664.8,67.7z"/>
			<path d="M-638.6-2.8l1.1,12.9l1.7,1.8l11.2-1.4c0,0-1.4-2.5-1.4-4.2s0.3-10.7,0.3-10.7L-638.6-2.8z"/>
			<path class="st1" d="M-635.6,0.8c0,0-0.1,5.7,1.3,6.3c1.4,0.6,6,0.6,6,0.6l0.4-8.2L-635.6,0.8z"/>
		</g>
		<g transform="translate(297 70)">
			<path d="M-665,24.4l-0.1,2.6c0,0,1.6,0.1,4.3,0.1c2.7,0,6.7-0.5,6.7-0.5s1.9-3.4,0.9-15c-0.9-11.7,0.7-13.6,1.5-15.1
				c0.4,0,81.8-0.8,81.8-0.8s0.4,3-0.2,5.3s-0.8,7.6-1,10.1c-0.2,2.5-0.2,10.8,0,12.4c0.2,1.5,1,6.4,1,6.4s0.3,1.9,7,0.8
				c0.7-0.2,2.9-0.8,2.9-0.8l4.7-1v-2.3l-13.7,1.3c0,0-0.3,0.1,0.1-13.1c0.4-13.2,0.7-21.4,0.7-21.4L-631.7-7c0,0-15.3,0.4-18.3-0.3
				s-3.9-1.2-4.8-1.2s-2.4,1.5-2.4,1.5l-0.5,0.4c0,0,0.5,3.1,0.9,7.5c0.4,4.4,0.6,10.1,0.6,10.1l-0.2,10.8c0,0-0.3,2.3-1.1,2.3
				C-658.5,24.3-665,24.4-665,24.4z"/>
			<path d="M-594.4-0.3l-0.9,11.2c0,0-1.2-0.4,7.2-0.4c8,0.2,10.8,1,10.8,1s0.6-8.9,0-10.5s-5.5-0.7-9.6-1.3S-594.4-0.3-594.4-0.3z"
				/>
			<g>
				<path class="st1" d="M-592.9,1.4c0,0-0.9,5.8-0.9,6.9c0,1.1,7.3-0.1,7.3-0.1l-0.1-6.9L-592.9,1.4z"/>
				<path class="st1" d="M-584.1,1.4l-0.2,7.7l6.3,0.9c0,0,0-7.2-0.9-8.2C-579.9,0.8-584.1,1.4-584.1,1.4z"/>
			</g>
		</g>
		<g transform="translate(406 18)">
			<path d="M-664.6,78.6l0,2.5l6.5-0.1l3.3-1.2c0,0-1.1-7.9,0.2-15.7c-0.5,0-5.4-0.5-5.4-0.5s9.3-8,14.4-12.7
				c5.1-4.7,7.9-8.5,11.3-12.1c3.5-3.6,9.4-8.9,9.4-8.9s6.6,5.9,11.7,11.6c5.2,5.7,10.2,9.1,10.2,9.1s1.1-6.4,0.2-18.2
				s-0.1-13.2-0.1-13.2l44.3-3.4c0,0-0.6,7.5,0.1,10.8s1.3,7.4,1.3,7.4l-3,0.5l-0.4,2.3l8.2-0.1c0,0,9.7,0.5,11.4-0.3
				c1.8-0.8,2.5-1,2.5-1l5,0.9l0.7-9.5c0,0,1.5-0.3,2-0.7c0.5-0.4,5.2,0.1,5.6,0.5s1.4,1.1,1.4,1.1l0.1,8.4c0,0,7.9,0.9,9.1,0.4
				c1.2-0.4,3.3,0,3.3-0.8c0-0.7,2-7.2,1.5-7.8c-0.5-0.7,1.5-1.4,1.5-1.4s5-0.8,5-1.2s1.1,0.6,1.1,2.1c0,1.5-0.7,9.1-0.7,9.1
				s4.3-1.1,8.1-1.1c3.8,0,6.5,0.1,6.5,0.1s0,14.8,0.4,17.7s0.7,14,0.7,14l18.9-0.1l0.4,17.3l1.4,5.9l9.3,0.5l-0.2-2.3
				c0,0-6.1-0.4-6.5-0.4s-2.2-1.6-2.2-1.6s-0.8-5-0.4-9.5c-0.1-3.5-0.3-12.1-0.3-12.1l-19.3,0.5c0,0-0.5-26.8-0.5-28.3
				c0-1.5-1.5-2.7-1.5-2.7l-6-0.4l-6.2-0.9c0,0,1-11.3,1-17.6s-0.2-13.5-0.2-13.5l0.4-15.2l0.2-3.5l-7.6-0.9l-6.1,1.3l1,9.2
				l-0.4,10.3l-0.7,12l-0.7,18.4l-0.2,0.7l-7.4-0.2l-0.9-1c0,0,0.7-10.9,0.1-18.6s-0.6-18.9-0.1-25s0.1-6.4,0.1-6.4l-2.7-0.7
				c0,0,0.3-0.1-3.7,0.6c-4,0.7-4.5,0.7-4.5,0.7l-3.5,0.3l0,3c0,0-0.2,1.7-0.2,9.9s0.1,15.4,0.1,15.4l-0.1,9.6c0,0,0.4,7.2,0,8
				c-0.4,0.8-1.3,2.4-1.6,2.4c-0.3,0-2.4,0.9-3.6,0.9c-1.2,0-13.2,1.2-13.2,1.2l-0.5-1.9l-1.5-19.3c0,0-17.1,0.4-25.5,0.8
				c-8.4,0.4-25.4,1.5-25,1.8c0.1,0.1,0.2,2.8,0.9,8.8c0.6,8.5,0.4,20.6,0.4,20.6s-7.3-8-9.8-10.4c-2.5-2.3-9.7-7.7-9.7-7.7
				s-9.6,7.7-16.2,15s-20.8,20.1-20.8,20.1s-0.4,1.3-0.7,1.9l0.6,1.1l4.2-0.2c0,0,0.6,3.3,0.6,6.7s-0.6,6.5-0.6,6.5L-664.6,78.6z"/>
			<g>
				<path class="st2" d="M-533.7-13.3l-0.4,5c0,0,3.3,1,4.9,1.1c1.6,0.1,4.8-0.6,4.8-0.6l0.8-6.3c0,0-3.9,0.9-6.4,0.7
					C-531.6-13.3-533.7-13.3-533.7-13.3L-533.7-13.3z"/>
				<path class="st2" d="M-528.8-2.5c-1.6,0.2-4.8,0.2-4.8,0.2l0.2,4.3c0,0,3.1,0.7,4.7,0.7c1.5,0,4.5-0.7,4.5-0.7l0.4-5.5
					C-523.7-3.5-527.1-2.7-528.8-2.5L-528.8-2.5z"/>
				<path class="st2" d="M-528.9,6.9c-1.4,0.2-4.2,0.4-4.2,0.4l-0.4,5.4c0,0,3.3,0.6,4.9,0.4c1.5-0.2,4.3-1.4,4.3-1.4l-0.2-5.9
					C-524.5,5.8-527.4,6.6-528.9,6.9z"/>
				<path class="st2" d="M-529.1,17.4c-1.4,0.1-4.1-0.5-4.1-0.5l0.6,6.5c0,0,4.4,0.5,5.8,0.3c1.2-0.1,2.1-1.1,2.1-1.1l-0.3-6.1
					C-524.8,16.5-527.6,17.3-529.1,17.4z"/>
				<path class="st2" d="M-509.1,22.5c0,0,1.2,0.8,2.5,0.7c1.3,0,5.4-0.9,5.4-0.9v-7c0,0-2.7,1.2-4.3,1.6c-1.2,0.3-4.3,0.4-4.3,0.4
					L-509.1,22.5z"/>
				<path class="st2" d="M-506.7,13.9c1.2,0,4.4-0.8,4.4-0.8l1.6-7.2c0,0-3,1-4.5,1.1c-1.5,0.2-4.5,0-4.5,0l0,6
					C-509.6,13.2-508,13.9-506.7,13.9L-506.7,13.9z"/>
				<path class="st2" d="M-508.9,2.6c0,0,2.4,1.1,3.8,1c1.2-0.1,3.8-1.6,3.8-1.6l0.1-6c0,0-2.1,1.1-3.2,1.3c-1.5,0.2-4.7,0-4.7,0
					L-508.9,2.6z"/>
				<path class="st2" d="M-508.4-7.8c0,0,2.1,0.7,3.5,0.7c1.2-0.1,4.3-1,4.3-1l-0.1-6c0,0-2.8,0.4-4.1,0.4c-1.5,0-4.3-0.6-4.3-0.6
					L-508.4-7.8z"/>
			</g>
			<path d="M-632,55.5c0,0,1.6,0.1,5.5,0.1s10-1,10-1s0.6-2.6-0.6-5.5c-0.2-2.1-7.2-13.1-13.2-2.5c-0.6,1.1-0.9,2.4-1.5,3.9
				C-632.4,54-632,55.5-632,55.5z"/>
			<path class="st1" d="M-630,53.6l0.5-5.6c0,0,3-2.7,3.6-2.7s1,3.5,1,3.5l-3.4,0.6l0.2,1.3l2.8,0.2l0.4,1.8l1.1-0.2l-0.1-2l4.3,0.6
				l-0.1-1.4l-4-0.8l-0.4-3.7l3.8,1.1l0.9,1.3l0.5,1.6l0.5,4.1l-1.1,0.7l-3.8-0.3L-630,53.6z"/>
		</g>
		<path d="M-50.9,106.8v2.2l4.3,1.9l4.5-1.1l-0.5-45.7l0.9-5.4c0,0,4.3-1.1,18-1.6c13.7-0.4,19.5-1,19.5-1s0.8,11.4,0.8,16.6
			c0,5.2,0.9,13.1,0,16.7c-0.8,3.6-0.8,4.3-0.8,4.3s9.7-0.1,18-0.1S30,95.1,30,95.1l0,16.6l10.6-0.1l0.1-3l-7.5,0.3c0,0-1-2.7-1-6.6
			c0-3.8,1.2-9.3,1.2-9.3s-0.3-0.4-1.9-0.9C29.6,91.6,21,91.6,21,91.6l-21.4-0.2c0,0-1.2-7.1-1.2-13.4s0.2-24,0.2-24
			s-2.8-0.4-5.2-0.4c-2.4,0-5.1,0.2-5.1,0.2l-0.3-12.2c0,0,0.9-3.3,1.4-3.3c0.4,0,8.1-1.4,8.1-1.4l-7.7-0.4c0,0-1.2-0.3-1.9-1.7
			s-0.5-4.5-0.5-4.5l-2.7,2l0.4,2.7l-7.5,2l-0.3,1.2l7.4-0.7l1.2,3.5l0.2,12.3c0,0-11.3-0.4-16.6-0.1c-5.3,0.4-2.8,0.4-7.3,1.1
			s-4.7-0.9-5.1-0.9s-2,1.5-2,1.5s0.6,18.2,0.3,25.9s-0.5,25.8-0.5,25.8l-1.3,0.7L-50.9,106.8z"/>
		<g transform="translate(759 58)">
			<path d="M-664.5,49.5c0,0,2.5,0.1,4.4-0.6c1.9-0.7,2.4-0.7,2.4-0.7s0.9-2.9,0.9-8.2s-0.4-8.3-0.4-10.9s0.2-6.8,0.2-6.8
				s2.3,0.1,6.2,0.1c3.9,0,6.6-0.5,9.8-0.5c3.2,0,7.9-0.1,10.5-0.1c2.5,0,6.4-0.4,10.3-0.4c4,0,8.3-0.3,8.3-0.3l0-13.2l-12,13.6
				l11.9-16.1L-612-2l-3.6-0.2v-0.9l3.8-0.7l-0.2-2.4l-2,0.1l-0.5-1.3l2.2-0.1l0.2-2.8c0,0,0.8-0.5,1.1,0c0.3,0.5,0,2.9,0,2.9h3
				c0,0-0.6,0.8-1,1c-0.6,0.3-1.6,0.3-1.6,0.3V-4h4.4c0,0,0.7,0.6,0.2,0.9c-0.8,0.4-4.2,0.9-4.2,0.9l0,6.9l11.4,15.6h-2.1L-610.1,7
				l0.8,13.8l16.1-0.1l2.3,26.3c0,0,19.9,0,15.9,0v2.1c0,0-3.1-0.1-6,0c-5.6,0.2-13,0.8-13,0.8s-1.4-6.3-1.4-12s0.3-14.8,0.3-14.8
				s-9.7,1.2-18.8,1.2c-9.1,0-41.2,0-41.2,0s0.5,14.5,0.5,17.1s0.7,7.8,0.7,7.8l-1.1,1.9c0,0-4,2-5.5,2h-3.5L-664.5,49.5z"/>
			<path d="M-651.9,29.3c0,0,0.1,4.4,0.4,5.6c0.3,1.3,0.9,4.7,0.9,4.7s6.6,0,8.3,0.2c1.7,0.2,5.5,0.3,6.8,0.8
				c1.2,0.5,1.5,0.3,1.5,0.3s0.4-0.9,0.7-2.5s0.3-4.7,0.3-6.2c0-1.5,0.3-3.6,0.3-3.6s-2.9-0.1-4-0.1s-7.4,1-9.4,1
				C-648.4,29.6-651.9,29.3-651.9,29.3z"/>
			<g>
				<path class="st1" d="M-650.6,30.8c0,0,0.1,3.1,0.3,4.1c0.3,1.2,0.3,3.7,0.3,3.7s3.4-0.2,4.5-0.4c1.1-0.2,2.6,0,2.6,0l-0.6-7.4
					H-650.6z"/>
				<path class="st1" d="M-638.7,30.2c-1.2,0.1-3,0.6-3,0.6s0.1,1.9,0.1,2.3c0,1.5-0.1,5.1-0.1,5.1s2.9,0.4,4.2,0.4
					c0.8,0,2.4,0.5,2.4,0.5s0.6-3.2,0.5-4.6c0-0.6,0-1.8-0.2-2.9c-0.1-0.7,0.2-1.6,0.2-1.6S-637.5,30.1-638.7,30.2z"/>
			</g>
		</g>
		<path class="st3" d="M188,102.9c0,0,1.2,0.9,2-4.5c0.9-5.3,0.4-6.8,0.5-10.8c0.1-5.4,0-15.3,0-15.3s-3.2,0-4.3,0
			c-0.2,0-4.4,0-4.4,0s1.5-2.7,2.2-3.5c1.8-2.1,4.7-4.6,7.2-7.4c1-1.1,3.8-4.7,4.8-5.8c3.7-4.3,5.3-6,6.6-7.6c0.5-0.6,2.3-2,2.3-2
			s1.9,2,2.5,2.9c2,2.7,5.9,8.3,8.6,11.8c4.5,6,9.1,10.9,9.1,10.9l-6.6,0.4l0.3,2.8c0,0,8.9-0.6,15.9-0.6s14-0.2,18.8,9
			s-0.5,9.4,3.3,9.4c3.8,0,10.5-0.4,10.5-0.4s1.7,3.8,1.8,6.1c0.1,1.2,0.5,4.5,0.5,4.5l3.6,1.4v2.2l-6.5-0.9c0,0-0.2-1.2-0.2-5.8
			c0-4.6-0.4-4.7-0.4-4.7s-0.7-0.3-5-0.3h-5.2l-0.7,2.9c0,0-0.4,0.3-0.8,0c-0.4-0.4-0.6-1.4-0.8-1.8c-0.4-0.8-0.7-1.6-0.7-3.1
			c0-0.9-0.3-1.7-0.4-3.2c-0.1-1,0.2-2.7-0.5-4c-0.7-1.3-1.5-4-3.1-5.6c-2.2-2.2-5.3-2.5-7.8-2.8c-5.6-0.8-22.4,0-22.4,0h-2.1
			l-0.7-4.7c0,0-1.9-3.2-1.7-3.5c0.2-0.2,4.2,1.5,4.2,1.5l2.2,0.1L204.9,49l-18.6,21.4h6.4c0,0,0.2,19.7,0,28.8
			c-0.1,2.2-0.8,5.1-0.8,5.1l-0.7,1.5c0,0-2.1,0.7-3.8,0.7c-1.2,0-5,0.7-5,0.7l-0.5-2.2L188,102.9z"/>
		<g transform="translate(937 36)">
			<g>
				<path d="M-664.6,70.8l12.8,0.6l1.9-1.1c0,0-2.1-10.7-2.1-17.7c0-3-0.3-13.8-0.1-22.7c0.2-12.1,0.8-22.6,0.8-22.6l8.6-2
					c0,0-1.1-1.7-1.4-4.6c-0.2-1.7,0.3-4.6,0.5-5.7c0-0.4,7.3-0.4,7.3-0.4l0.5,4.3c0,0,2.3-7.9,2.3-10.3c0.1-0.3,12.3-0.4,12.3-0.4
					L-621-2c0,0,1.7-0.1,2-3c0-0.5,0-0.8,2.4-0.4c2.4,0.4,6-1.1,6-0.7c0,0.4-0.7,7.3-0.7,7.3l2.1,1.3h7.2c0,0,0.9,10.2,0.9,11v12
					c0,5.7-0.4,9.4-0.4,12.4c0,1.6-1.3,11.7-1.2,19.6c0.1,7.5,1.2,12.9,1.2,12.9l0.7,1.4h9.4l-0.9-3l-7.1-0.6c0,0-0.9-19-0.4-28.3
					s0.1-36.9,0.1-36.9l-1.7-2.5l-6.8-0.3l-1.1-0.7l0.4-6.7c0,0-0.6-1-2.9-1s-6.7,0-6.7,0l-0.6-6.9c0,0-4.6,0.6-6.9,0.6
					c-3,0-9.1-0.6-9.1-0.6l-0.6,3.5l-0.1,2.8c0,0-3.4,0.8-5.2,0.9c-1.5,0.1-4.6-0.5-4.6-0.5l-1,11.9l-6.5,0.2l-1.8,2.5
					c0,0,0.9,9.6,0.9,13s-0.2,20.7-0.2,25.5s0.3,23.5,0.3,23.5s-4.7,0.8-5.8,0.8c-1.1,0-5.3-0.7-5.3-0.7L-664.6,70.8z"/>
				<path d="M-639.5,13.5c0,0-0.5,6.5,0.6,6.5s9.1,1,9.1,1s0.7-7.7,0.7-8.3s-8-1.9-9.2-0.9C-639.5,12.6-639.5,13.5-639.5,13.5z"/>
				<path d="M-622.9,35.9l0.7,7.2h9.2l1.1-7.8l-9.7-1.8L-622.9,35.9z"/>
			</g>
			<g>
				<path class="st1" d="M-637.9,13.7l-0.4,4.5l7.6,1.6l0.7-6.8L-637.9,13.7z"/>
				<path class="st1" d="M-620.9,36.1l-0.3,5.5l7.5,0.4l0.6-5.6l-6.1-1.4L-620.9,36.1z"/>
			</g>
		</g>
		<g transform="translate(1010 44)">
			<path d="M-665.4,60.6l0,3.1l8.5,0.8c0,0,2.2-2.8,2.2-6c0-3.2-1.9-12.2-1.9-14.6s0-11.5,0-11.5s5.6-1.3,12.2-1.3
				c6.6,0,13.6,0.5,13.6,0.5l1.6,8.9l1.2-4.7c0,0,0.9-6.7,0.2-7.5c-0.7-0.8-0.2-7.7-0.8-10.4c-0.5-2.7,0.1-6,0.1-6s0.4-1,1-1
				s8.2-0.2,8.2-0.2l9.4-0.3c0,0,5.5,0.6,7,0.6c1.5,0,9.3,0.9,9.3,0.9l6.5-0.4c0,0,1.4,5.6,1.4,6.8c0,1.2-0.2,7.8-0.8,12.7
				s-0.7,19-0.7,19.7c0,0.7,0.4,14.3,0.4,14.3l8.7-0.2V61l-5.9,0.2c0,0-0.9-26.9,0-32.2s-0.3-20.6-0.3-20.6s-9.6-0.1-12.3-0.1
				s-6.4,0.2-7.8,0.2c-1.4,0-8.6-1.1-8.6-1.1l-1-1.4l-3-5.1l0-3.2l1.3-6.3l0.5-2.4l-1.6-2l-2.5,2.6l-0.6,1.6l-1.2,1.2l-1.3,1.3
				c0,0,0.6-1.3-0.6-1.3c-1.2,0-1.6,1.3-1.6,1.3l0.8,1.4l-0.8,1.3l-0.6,1.1l-1.3,1.5l-1.6,1.2l-2,2.4c0,0,1.3,0.2,2.9,0.2
				c1.6,0,3.9-1,3.9-1l3-0.8l-0.3,3.2l-0.8,2.4l-1.6,0.8L-627,8l-2,0.1l-2.7-0.2l0.4,3.7c0,0,1.1,8.8,1.1,9.9s-0.5,7.4-0.5,7.4h-7.8
				l-8.6,0.3l-9.1,0.3l-3.4-0.3l-0.2,6.4c0,0,0.1,3.6,0.8,9.2s1.3,14.6,1.3,14.6l-0.6,0.8L-665.4,60.6z"/>
			<g>
				<path class="st2" d="M-618.8,1.9l-2.4,5.9l5.3,0.1l2.5-0.1l-2.4-3.2l-1.3-2.2l-0.1-1.6L-618.8,1.9z"/>
				<path class="st2" d="M-626.2,0.8c0,0,1.9-0.1,4.1-2.4s5-8.1,5-8.1l-0.9,6.2l-0.3,2.4l-3.4,2H-626.2z"/>
			</g>
		</g>
		<path d="M431.9,104.9l0,0.4c0,1,0,3,0,3l9.1,0.3c0,0,0.9-9.7,0.9-11.5c0-1.8,0.1-4.9,0.4-5.5c0.4-0.6,1.3-2.7,1.3-2.7l-1.5-15.9
			c0,0-0.7-3.1,0.6-4.3c1.3-1.3,6.6-6.9,7-7.7s6.7-9,7-9.5c0.3-0.5,1.7-1.4,2.1-1.4c0.4,0,12.7-0.3,13-0.3c0.4,0,8.8-0.9,14.1-0.3
			c5.3,0.6,25.7,0.4,26.6,0.4s20.4,1.5,22.8,0.7c2.3-0.7,4.2-1.6,4.2-1.6l1,0.1c0,0,13.1,14.4,14.9,15.9c1.8,1.5,10.2,9.2,10.2,9.2
			s-1.5,1.5-2.2,1.5c-0.7,0-0.4,2.6-0.4,2.6L563,93l0,17.2l0.2,1.1c0,0,6.3,0.6,8.3,0.6s7.4-0.7,7.7-0.7s0.1-3,0.1-3s-3.7,1-6.9,1
			s-7.5-1.7-7.5-1.7l-0.2-11.9c0,0-0.1-6.2-0.1-8.5s1-10.1,1-10.1l4.7,0.5l0.4-1.9c0,0-1.4-0.5-3.9-2.6c-2.5-2.1-12.8-13.6-14.9-16
			c-2.1-2.4-7.7-7.6-7.7-7.6l0.7-2.4c0,0-1.8-0.8-3.2-0.8c-1.4,0-10.2,0-10.2,0l-0.8-8.5l0.4-2.5l1.8-1.3l1.1-0.3l-2.1-1.3l-1.6-0.8
			l0.5-1.4l2.9-0.5h3.8l0.9-0.4l-0.1-1.2l-3.4,0.2c0,0-1.3-0.1-2.7-0.1s-2-1.8-2-1.8l4.4-1.1l-0.5-1.5l-3.8,0.3l0.1-3.7l-0.3-1.6
			l-1.4,1.4l-0.4,1.6l-1.1,1.2l-1.9,0.8l0.1,1.4l2.6-0.1l0.6,1.2c0,0,0.6-0.2-1.6,0.5c-2.2,0.7-6.8,2.2-6.8,2.2l1.2,1.2h3.9l3.9,0.2
			l-1.1,1.4l-2.3,1.4l0.2,1.4l1.2,0.8l1.6,0.1l0.2,10.1c0,0-2.1,1.5-5.8,1.1c-3.6-0.4-12.3-1.6-20.8-0.7s-14.9,0.9-21.2,0.9
			c-6.3,0-25,0.1-25,0.1s-0.3,1.9-1.2,3.2s-11.1,12.9-11.1,12.9l-10,12l6,0.3c0,0,0.7,9.6,0.7,14c0,4.5-1.3,15.5-1.3,15.5
			L431.9,104.9z"/>
		<g transform="translate(1244 45)">
			<path d="M-665.2,63.5c0,0,0.8-0.2,1.8-0.4c0.7-0.1,1.4-0.3,1.9-0.3c1.2,0,12.4-0.4,12.4-0.4l2.9,0.1c0,0,1-5.1,1-7.6
				c0-6.1-0.1-11.9-0.3-17.5c0-1.1,0.4-5.3,0.3-6.3c-0.2-1.1-1-0.9-1-0.9s-3.9,0.2-9.2-1.2c-1.5-0.5-1.8-1.2-2.9-1.9
				c-1.2-0.7-1.4-1.4-1.4-1.4l0.4-9.9c0,0,3.1,3.5,8.4,4.6c1.3,0.2,2.5,0.4,3.6,0.3c0.7-0.1,1.6,0,2.2-0.3c0.1-1.7,0.1-2.9,0.1-2.9
				s-4.1,0.3-7.9-0.7c-3.4-0.9-4.8-2.9-5-2.9c-0.4,0-2.1-0.9-2.1-1.7c0-1.8,0.4-10.3,0.4-10.3v-2.1c0,0,4.6,6,6.8,6.8
				c2.3,0.9,7.9,0.6,7.9,0.6s-0.5-5.3-0.5-8.2c0-3.9,0.5-12,0.5-12l11.5-0.4l0.6,21.1h0.9h4.8l0.8,7.3l-5.5,0.8v4.8
				c0,0,0.4-0.2,0.5-0.2c1.9,0.1,5.5,0,5.5,0v7.2l-5.5,0.8l0.7,33.7c0,0,11.6,1.6,16.4,1.7c4.1,0.1,10.3-1.3,10.3-1.3l0.2,4.1
				l-29.9-0.7l0-36.7l-4.3-0.7l0.6-8.1c0,0,1.4,0.8,2.2,0.9c0.5,0,1.5-0.4,1.5-0.4l-0.8-5.6l-3-0.3c0,0-0.1-7.7,0.5-7.9
				c0.6-0.2,1.7,0.6,1.7,0.6l0.9-18.9l-8.5,0.4c0,0-1,5.7-1,9.3c0,0.7,0,1.4,0,2.2c0.2,3.9,0.7,8.7,0.7,8.7l0.4,1.3
				c0,0-6.8-0.7-10.2-2c-2.6-0.9-5.9-4.6-5.9-4.6l0.5,6.1c0,0,3,3.5,5.7,4.4c3,1,9.6,1.2,9.6,1.2l-0.1,4.6v1.2c0,0-1.7,0.8-3.9,1
				c-2.2,0.2-4.9-0.3-6.7-0.7c-1.8-0.4-4.1-3.7-4.1-3.7v4c0,0-0.2,2.1,0.3,2.6c1,1.1-0.4,1.6,5.8,2.7c6.2,1,8.6,1.2,8.3,2.3
				c-1.1,3.8,0.7,16,0.7,17.8c-0.1,10.1-0.7,16.8-0.7,16.8s-1.8-0.6-4.7-0.6c-1.8,0-3.9,0.9-5.6,0.9c-0.1,0-5,0.4-5.6,0.5
				c-2.2,0.3-5.2,0.6-5.2,0.6L-665.2,63.5z"/>
			<g>
				<path class="st2" d="M-632.6,10c-1.2-0.1-3.3-0.8-3.3-0.8l-0.5,5.3l2.7,0.7c0,0,1.1,0,1.6-0.1c1.4-0.1,2.8-0.1,4.1-0.2l-0.5-5.4
					C-628.5,9.5-631.3,10.1-632.6,10z"/>
				<path class="st2" d="M-636.3,22.8l-0.1,4.6c0,0,2.1,0.4,4.5,0.3c2.4-0.1,4.8-0.7,4.8-0.7l0.2-4.6l-4.7,0.7c0,0-0.2,0-0.3,0
					C-634.1,23.3-636.3,22.8-636.3,22.8z"/>
			</g>
		</g>
		<g transform="translate(1297 84)">
			<path d="M-658.7,27.6h1.9c0,0,14.1-1.1,16-1.1h7.5l0.6-4.6c0,0-1.5,1.2-4.8,1.2c-3.3,0-9.6-0.6-9.6-0.6l-5.6,0.5l0.1-4.9
				c0,0,0.2-2,2.3-3.2s3,1.5,4.4,0.8s3.8-0.8,3.8-3.1s1.6-5.8-0.2-8.6S-647-1-647-1.7s-3.6-3.9-3.6-4.6s-4.1,4.7-4.1,4.7
				s-2.4,3.1-3.1,3.1s-5.5,1.9-5.5,1.9l-1.8,5.2c0,0-0.3,3.7,0.7,3.7s2.9,0.9,2.9,0.9l3.7,1.8c0,0,1.3,1.7,2.2,1.7
				c0.9,0,0.9,3,0.9,3l0.6,3l-4.6,1.3V27.6z"/>
			<path class="st1" d="M-663.1,5.6l0.2,5l7.3,2.3l5.4,0.8l5.5,0.2c0,0,1.7-0.9,1.7-2.5s-1.3-5.4-1.3-5.4l-1.4-4.2l-1.9-0.1
				c0,0-1.9-1.2-1.9-2.4s0.8-3-0.7-3s-3.9,2.9-3.9,4.1s-0.4,2.1-1,2.1c-0.6,0-4.9,1.8-4.9,1.8L-663.1,5.6z"/>
			<path d="M-649.6,5.7c0.1,0.2,2.5-2,2.7-1.8c0.8,1.4-0.6,5.7-0.6,5.7s-0.4,1.3-1.2,0.6c-0.8-0.6-2.8,1.8-2.8-0.6
				S-650.4,4.2-649.6,5.7z"/>
		</g>
		<g>
			<path d="M47,107.8c0.7-2.6,2.2-8,2.2-8L54,82.2c0,0,0.8-3.5,1.3-7.5c0.5-4.1,0.3-17.1,0.3-17.1L56.6,19h2.5c0,0,0.8,6.9,0.8,12.8
				s1.6,30.4,2.1,35.3c0.5,4.9,1.6,10.7,2.1,12.7c0.5,2,2.1,10.2,3.7,15.5c1.6,5.3,3.3,9.6,3.3,9.6l1.9,2.9l-3.7-0.4L65,93.8
				c0,0-1.9-10.6-3-14.9c-1-4.3-1.3-6.7-2.1-11.8c-0.8-5.1-1-18.4-1-18.4l-0.6-15.4l-0.2-13.1l-0.8,1.5V41l-0.7,10.4v16.7
				c0,0-0.1,5.5-0.5,8.5s-1.9,10-1.9,10l-1.3,6.9l-2.1,8.6c0,0-0.3,1.2-0.5,2.9c-0.3,1.7-0.4,2.9-0.4,2.9S47,107.8,47,107.8z"/>
			<path d="M54.6,18.8l0.8,0.3l3.8-0.1l1.1-0.4c0,0,0.8-0.1,0.3-0.9c-0.5-0.8,0.2-1-1.3-1.2c-1.6-0.2-3.4,0.5-3.4,0.5
				s-1.3,0.1-1.3,0.3C54.5,17.5,54.6,18.8,54.6,18.8z"/>
			<path d="M69.6,108c0,0-0.4-2.1-1.9-3.8c-1.6-1.7-4.9-3.1-4.9-3.1l-9.2-5.2l-1.4-2.3c0,0-0.1-1,0.9-2c1-1,4.5-3.2,4.5-3.2
				s3.3-2.6,4.1-3.7c0.9-1.8-1.3-3.3-3.1-4.5c-1-0.6-2-1.5-2-1.5s-2.7-1.3,0.2-3.1c2.9-1.8,3.8-5.5,3.7-5.7
				c-0.1-0.2-3.6-3.3-3.6-3.3s-0.7-2.7-0.7-2.9c0,0-0.2-0.5-0.2-0.7c0-0.9,0.3-3,0.6-3c0.3,0,2.9-2.4,2.9-2.4L60,59l-2.5,2
				c0,0-0.8,1.7,0.1,3.5c0.9,1.9,2.1,2.8,3,3.4c0.9,0.6,1.5,2.9,1.2,3.5C61.3,72,60.2,73.7,60,74c-0.2,0.3-2.1,2.8-2.3,2.8
				s-0.4,0.4-0.1,0.7c0.3,0.3,1.9,1.3,2.6,1.8c0.7,0.4,3.9,3.2,3.9,4c0,0.8-3.9,4.8-6.8,6.7s-3.8,2.2-3.8,2.9s0.7,2.4,2.1,3
				c1.4,0.6,9.3,5.1,9.6,5.1c0.3,0,4.8,3.6,4.8,3.6l0.7,3L69.6,108z"/>
			<path d="M59.4,54.6c0,0-1.8-3.9-3-3.6c-1.3,0.3,0.3-2,0.3-2s0.5,0.3,0.9,1s0-0.6,2.5,3.5C62.6,57.6,59.4,54.6,59.4,54.6z"/>
			<path d="M56.6,44.3c0,0,1.1-2.8,2-3.6s0.9-2.2,0.9-2.2s-2.1,2-2.5,2.2S56.6,44.3,56.6,44.3z"/>
			<path d="M59,32.9l-2-3.8l0-2.9l1.8,3.8L59,32.9z"/>
			<path d="M56.7,18h1.6c0,0-1.1-10.1-1.1-12.1c0-1-0.4,0.2-0.5,2c-0.1,1.8,0,4.4,0,4.4V18z"/>
		</g>
	</g>
</g>
</svg>
