<?xml version="1.0" encoding="utf-8"?>
<!-- Generator: Adobe Illustrator 22.0.1, SVG Export Plug-In . SVG Version: 6.00 Build 0)  -->
<svg version="1.1" xmlns="http://www.w3.org/2000/svg" xmlns:xlink="http://www.w3.org/1999/xlink" x="0px" y="0px"
	 viewBox="0 0 2657.8 115" style="enable-background:new 0 0 2657.8 115;" xml:space="preserve">
<style type="text/css">
	.st0{fill:#FFFFFF;}
	.st1{fill:#FE9901;}
	.st2{fill:#FEFEFE;}
	.st3{fill:#161514;}
</style>
<g id="Слой_1">
</g>
<g id="Слой_2">
	<g>
		<path class="st0" d="M1334.2,112.7l0.1,2.3l1323.7,0.5l-1.7-6.3l-51.9,0.9l0.1-36.2l-4.8-0.7l0.2-6.5l3.9,0.5v-6.8l-3.8-0.6
			l0.5-6.9l2.5,0.5L2603,33l-10.2,0.4l-0.7,19.4l-5.8,1.2l-8.5-5.7l-0.1,7.9l4.8,4.2l10.8,1.5l-0.6,4.1l-3.6,0.8l-5.4-0.8l-5.5-3.1
			l-0.2,7.4l2.5,2l4.8,1.4l7.1,1.3l-0.1,18.4l-1,15.1l-6.8,0.1l-20.9,1.9l-6.8-0.8V76.4l2.5-1.7l-26-27.4l-83.6,1.1l-16.2,20.6
			l0.2,20.9l-1,17.1l-15.6,0.1l0.3-52.9l-45-1l0.9,20.3l-28.8,1.3l1.2,29.8l-16.2,1.9l-1.3-17.4l1.1-31.6l-1.1-19.9l-8.2-0.5
			l-0.6-2.2l0.1-6.1l-9.7,0.7l-1-7.4l-13.8,1.5l-1.2,5.6l-8.8,0.5l-0.8,10l-7.2,3l-0.3,33.1l0.7,29.3l-7.1,1.1l-10-1.6l-0.9-10.6
			l-12.4,0.1l-0.9-9.2l-4.8-6.3l-8.5-2.5H2211l-1.4-5.1l5.2,0.2l-17.1-22.9l-20.2,22.6l7.1,0.8l-0.7,31.7l-8.9,3.1l-15.6-0.3
			l-1.9-26.1l-62.4,1.5l0.7,24.7l-6.9,3.9l-24.2-1.3l-21.9-0.3l-18.7,1.9l-1.3-16.6l-32.4-1.1l-0.7-37.8l-41,3l0.1,50.1l-4,1
			l-11.7-1.4l-1.2-3.8l-0.6-19.6l-18.6,0.3l-1.4-30.8l-1.8-0.3l-11.6-0.1l0.3-11l-10.3,0.8l-1.7,9.7l-9.8,0.7l-1.1-11.2l-10.8,1.3
			l-1.2,9.1l-20.5,1.2l-1.7-21.2l-47.1,3.1l0.5,31.1l-20.9-20.5l-36.4,35.4l0.9,1.4l4.2-0.1l-0.6,14.3l-21.2,2.4l-0.9-1.7l0.1-25.8
			l0.9-8.2l-86,0.8l-0.5,30.4l-21.5,0.8l0-72.3l-54.2,3.8l0.7,61.5l-2.7-0.6l-4.4-3.7l-6.8,7.3l-0.8,11.5l-3.8,2.8l-6.4-0.5
			l-1.5-38.9l-22.7,0l1.1,33.2l-12.1,2.3l-1-12.6l-11.3-6.9l-9.7,8.1l-0.6,11.8l-11.9,0.2l-5.5-3.5l-2,3.1l-13.3,0.7l-0.4-23.4
			l-35-1l-0.7-16.7l-29.8,0.8l0.3,13l-0.5,24.9l-14.6,0.5l-1.4-9.9l3.2-2l-1.9-2.4l-1-3l-0.7-9.9c-2.8,1.2-3.8,6-3.8,6l-7.9-8.8
			l-18.5,18.1l5.3,2.4l-0.5,18.9L1334.2,112.7z"/>
		<path d="M2033.2,108.6v2.9c0,0,6.8-1.6,11.4-1.6c2.6,0,11.8-1.2,15.7-0.8c1.6,0.1,2.8,0.3,3.8,0.4c2.3,0.3,2.1,0,2.1,0l0.7-0.8
			l-3.4-2.1l-1.6,1l-19.4,0.2h-2.7L2033.2,108.6z"/>
		<g transform="translate(738 75)">
			<path d="M1328.1,34.7c0,0,0.2,0,0.5,0c2,0.2,9.4,0.8,12.2,0.7c4.1-0.1,8.9,0.7,8.9,0.7l0-3.6c0,0-2.8,0.2-3.7,0.2s-4-0.1-4-0.1
				l-0.2-2.3l3.3-3.5l3-2.5c0,0,0-1.6,0.4-2.1s1.2-2.3,0.9-3.1c-0.3-0.8-1.7-1.3-2.3-3c-0.5-1.7,0.4-9.1,0.4-9.1s-4.4-1.3-7.4-7.8
				c-0.2-2-0.5-7-0.5-7l-2.1,0.7l-0.4,3c0,0-3.9,4.9-3.9,5.2s0.8,4.8,0.8,4.8l0.8,1.3l-2,1.9c0,0,0.7,3.4,0.2,5.1
				c-0.5,1.8-0.1,1.5-0.8,2.6c-0.7,1.1-0.9,1.5-0.9,2.1c0,0.5-1.3,2.3-0.7,4.5c0.7,2.2,1.8,2.5,1.8,2.5l4.1,2.6l2.1,1.8l1,1.7
				l-4.8,1.2h-6.4V34.7z"/>
			<g>
				<path class="st1" d="M1337.5-1.4l-1.8,2.5l-0.7,3l2.9,0.6l-2.2,1.3c0,0-0.7,4.9-0.7,5.3c0,0.5,1-0.6,1-0.6s0.9,1.1,1.2,1
					c0.4-0.1,0.7,2.6,1.4,4.1c0.6,1.3,1.6,1.4,1.6,1.3c0-0.7,0.4-1.2,0.4-1.9c0-1.2-0.4-3.8-0.4-3.8l-1.3-4l1.7-0.1l1.4,10.5
					c0,0,1.6-0.9,2-2c0.3-0.6-0.7-1.6-0.4-1.9c0.6-0.5,1.7,1.2,1.9,0.6c0.1-0.3,0.4-2,0.4-2.4c0.2-1.8-0.4-3.2-0.4-3.2
					s-1.6,2.8-2.1,2.5c-0.3-0.2,0.5-3.2,0-3.6c-0.1-0.1-0.3-0.4-0.4-0.5c-0.5-0.4-1-0.9-1.4-1.3c-1-1-2.4-2.9-2.4-3.4
					C1339.2,1.2,1337.5-1.4,1337.5-1.4z"/>
				<path class="st1" d="M1336.2,16.8c0,0,0.8-1.4,0.4-2.2c-0.4-0.8-1.8-1-2-0.8c-0.3,0.3-0.5,5.2-0.5,5.2l1.8,1.5l-3,1.7
					c0,0-0.1,1.7,0.8,2.6c0.9,0.9,3,1.8,3,1.8l2.6-3.1l-2-1.6l1.5-1.4l0.4-2.3L1336.2,16.8z"/>
				<path class="st1" d="M1340.5,20.4l0.2,6.3l2.9-1v-1.4c0,0,1.9-1.2,2.3-3.3c0.5-2.1-0.1-3.5-1-4.1s-0.9-0.1-0.9-0.1V19l-0.3,2.1
					c0,0-0.1,0.3-1.4,0c-1.3-0.3-0.4-1.8-1-1.2S1340.5,20.4,1340.5,20.4z"/>
			</g>
		</g>
		<g transform="translate(122 66)">
			<path d="M1328.1,38.6c0,0,2.8-1,8.5-0.4c0.3,0,1.2-3,1.2-3l4.2,4c0,0,2.8-1.3,6.5-1.3c0.4,0.1-0.3-1.9-0.3-1.9s-2,0.4-4.4,0
				c-2.3-0.4-3.3-1.2-3.3-1.2s0.1-3.1,1.7-5.8c1.6-2.7,4.3-0.2,7.3-12.4c0.1-2.6-4.8-7.5-4.8-7.5l1.4-5.5l-3.9-4.5l-1.8-8.9
				l-2.4,1.7c0,0-5.6,12.8-7.3,14.2c-0.5,0.9-1.7,2.4-1.7,2.4s1.3,1.1,1.3,2.4s-0.2,3.1-0.6,5c-0.4,1.8-0.6,6.7-0.6,6.7
				s3.4,5.5,4.9,7.1c1.5,1.6,1.5,0.7,1.5,6c-0.6,0.6-5.1,1.1-7.4,0.3C1327.5,35.6,1328.1,38.6,1328.1,38.6z"/>
			<g>
				<path class="st1" d="M1331.8,10.7h3.5l0.6-5.2c0,0,0.5-1.3,0.8-2.7c0.1-0.3,0.6-2.4,0.6-2.4l1.4,3.1l3.4-0.6
					c0,0-2.6,4.7-4.1,9.5c-1.5,4.8-1.8,9.2-1.8,9.2l2.7-0.5c0,0,1.7-2.5,3-7.8c1.3-5.2,0.5-1.6,2.1-7.3c0.4-1.1,1.4-2.7,1.4-2.7
					s-3.1-1.7-5.6-5c-0.2-0.8-1.7,0.2-1.7,0.2s-2.6,1.4-2.6,3.6s-1.3,2.8-1.3,2.8s-2.2,0.2-2.2,1.6S1331.8,10.7,1331.8,10.7z"/>
				<path class="st1" d="M1333,25.2c0,0-1.8-1.3-0.9-6.2c0.9-4.9,3.5-7.4,3.5-7.4s1.1,1.7-0.4,7.6C1333.7,25.2,1333,25.2,1333,25.2z
					"/>
				<path class="st1" d="M1336,27.7l2.3,2.5c0,0,8.5-8.8,9.1-10.6c0.6-1.8-0.6-6.7-0.6-6.7s-5.3,4.7-4.5,6.7
					c-0.2,1.3-1.2,1.5-1.6,2.3c-0.7,1.4-0.9,3-0.9,3s-1,0.2-0.5-1.3c0.5-1.5-3-1.6-3-1.6L1336,27.7z"/>
			</g>
		</g>
		<path d="M1470.3,102v1.8l8.4,0.7l-0.6-12.5c0,0,2.1-3.8,9.3-7.8c1.2-0.1,10.3,6.3,10.3,6.3l-0.1,12.1c0,0,0.2,0.9,2.4,0.9
			s4.4-1.6,6.3-1.6s3-0.4,3-0.4v-1.3c0,0-6.1,1.8-9.4,0.4c-0.2-0.8-0.2-4.3-0.2-5.3c0-1,1.4-5.2,1.4-5.2s-10.9-7.2-13.5-9.5
			c-0.3,0.3-12.1,10-12.1,10l-0.5,1.5l1.5-0.3l-1.3,8.6l0.2,1.2L1470.3,102z"/>
		<g transform="translate(181 54)">
			<path d="M1328.1,46.1c-0.2,0.2-0.1,1.4-0.1,1.4s2.9,0.3,3.3-0.2c1.8-24.1,0.4-30.6-0.9-33.3c0-0.4,20.5-0.2,20.5-0.2l1.4,39.8
				l8.5,0l0.3-3.4c0,0-5.4,0.3-6.2,0.1c-1.5-6-0.4-29.3-2.2-38.5c-0.6-0.1-6,0-6.5-0.1c0-3.7-0.7-4.7,2.3-13.8
				c0.3-2-0.8-9.1-0.8-9.1s-4.8,2-9.1,6.6c0.1-0.1-2-0.7-3.8-0.7c-1.8,0,1.3,3.9,1.3,3.9l-3.2,4.7l-0.7,6.4c0,0,4.6,0.4,5.5,0.4
				s6.5-4.4,6.5-4.4l-0.2,4.4c0,0,0.4,1.8-15.3,1.8c-0.7,0.1,0.4,1.8,1.1,34.1C1329.6,46.6,1328.3,45.9,1328.1,46.1z"/>
			<g>
				<path class="st0" d="M1336-0.4c0,0-1.6,2.7-1.8,3.8c-0.1,0.5,0.9,1.2,0.9,1.2l2.5-0.1c0,0,2.8-1.9,4.5-4.9
					c1.3-2.3,2.4-4.1,3-5.4c1.5-3,0-3.9,0-3.9l-5.3,4.6l1.3,4.7L1336-0.4z"/>
				<path class="st0" d="M1334.2,7.3c4.7-2.8,7.2-4.5,9.5-7.7c2.4-3.2,3-8.9,3-8.9v8.1c0,0.8-2.3,3.9-3.6,5.7
					C1341.7,6.4,1329.5,10.1,1334.2,7.3z"/>
			</g>
		</g>
		<path d="M1371.7,102.8l-0.7-3.2c0,0,2.8,0.2,3.2,0.3c1.2,0.5,1.7,1.2,2.3,0c0.4-0.8,0.2-9.4,0.4-18.3c0.2-9.8,0.6-19.9,0.6-19.9
			s7.1,0.1,10.7,0c4.2-0.2,12.6-1,12.6-1l-1.6-11.9c0,0-1.5-0.5-2.5-0.6c-1.5-0.1-5,0.1-5,0.1s0.2-0.7,0.7-0.9
			c2-0.9,6.9-2.5,6.9-2.5l-10.2-0.9c0,0,0.3-0.5,1.6-0.7c1.7-0.3,7.3-0.9,7.3-0.9s-0.1-1.8,0-3.2c0.1-0.8,0.6-3.3,0.6-3.3l1.4,0.7
			l1.1,5.5c0,0,2.1-0.2,3.6-0.4c1.8-0.2,6.3-0.8,6.3-0.8l0.1,1.7l-7.3,1.7l3.9,1.4l-6,2.7c0,0-0.1,4.6,0,6.7c0.1,2,0.7,5.7,0.7,5.7
			h7.4c0,0-0.5,5.2-0.4,6.9c0.2,3.3,0.4,9.9,0.4,9.9s2,0,3.3,0c1,0,3.4,0,3.4,0l25.2,0l2.7,1.6l1.8,2.1l0,19.8l4,0.5l0,2.8l-3.8,0.7
			l-0.7,1.7l-2.8-2.1l0-23.2c0,0-1.8-1.2-7.3-1.4c-6.3-0.2-27.9,0-27.9,0l-0.1-15.2c0,0-6.4-0.4-9.9-0.3c-3.2,0-10.3,0.5-10.3,0.5
			s-2.9,0.1-4.2,0c-1.4-0.1-4.2-0.8-4.2-0.8s1.4,1.1,1.6,2c0.3,0.7,0,2.7,0,2.7s-0.7,11-0.9,16.4c-0.1,5,0,14.5,0,14.5l-1.2,2.8
			L1371.7,102.8z"/>
		<path d="M1339.1,112.9h-5.2c0,0,0.9-4.4,1.3-10.2c0.4-5.8,0-10.2,0-10.2s-4.8-0.6-6.3,0c-0.7,0.3-1.5-2,0-4.2
			c1.5-2.4,6.1-5.2,10.6-8.7c8.4-6.5,10.4-9.2,10.4-9.2l7.1,7.1c0,0,2.6-3.9,3.7-4.3c1.1-0.4,2.3,1.9,2.3,1.9s-0.9,5.7,0,9.4
			s4.5,6,5.1,6.6c0.6,0.6-4,0.6-4,0.6l-0.3,6.9l8,0.7l0,3.1l-10.1,0.2l-0.5-12.6l2.8-0.8c0,0-0.9-0.6-1.9-3.8
			c-1-3.2-1.4-10.4-1.4-10.4s-0.8,0.9-1.1,3.3c-0.3,2.4-1.3,3.9-1.3,3.9l-7.9-9.9l-17.4,16.9l5.4,0.8L1339.1,112.9z"/>
		<g transform="translate(213 37)">
			<path d="M1328,67.7l0.6,2.7l2.8-1.3l3.2-1.4c0,0-1.2-6.9-0.4-11.3c0.8-4.5,5.1-6.6,5.1-6.6s3.4,0.6,6.2,5.3
				c0.4,0.6,2.3-2,2.7-3.3c0.4-1.3-0.6-24.5-0.3-43.4c0.4-6.9,1.3-16.4,1.3-16.4s2.3-1.2,7.8-1.2c5.4,0,5.8-0.3,11.3-0.3
				s11.4-1.2,15.7-1.2c1.9,0,5-0.5,7.7-0.7c3.6-0.2,6.7,0,6.7,0s0.8,6.2,0.2,13.7c-0.6,7.5-0.1,9.3-0.5,13.9s0.5,5.8,0.5,9.6
				s-0.1,35.4-0.1,35.4s1.5-0.4,1.8-0.4c3.9-1.9,1.2-0.5,9.4-1.3c1,0.1,2.1,0,2.1,0l0.5-2.1h-10.4c0,0-1.6-6.6-0.7-24.5
				c0.4-8.8-0.3-14.4-0.4-20.3c-0.1-6.2,0-12.6,0-16.6c0-7.9,0.1-8.9,0-9.6c-3.2-1.4-8.3-0.6-16,0c-1.8,0.1-3.8-0.1-5.9,0
				c-3.1,0.2-6.5,0.8-10.2,0.8c-8.4,0.1-14.3,0.8-18.5,0.9c-3.2,0.1-5.6-0.4-5.6-0.4l0.4,53.7l-1.4,9.1l-4.5-5.8l-8,10.2l-0.7,11.2
				L1328,67.7z"/>
			<path d="M1354.2-2.8l1.1,12.9l1.7,1.8l11.2-1.4c0,0-1.4-2.5-1.4-4.2s0.3-10.7,0.3-10.7L1354.2-2.8z"/>
			<path class="st1" d="M1357.2,0.8c0,0-0.1,5.7,1.3,6.3c1.4,0.6,6,0.6,6,0.6l0.4-8.2L1357.2,0.8z"/>
		</g>
		<g transform="translate(297 70)">
			<path d="M1327.8,24.4l-0.1,2.6c0,0,1.6,0.1,4.3,0.1c2.7,0,6.7-0.5,6.7-0.5s1.9-3.4,0.9-15c-0.9-11.7,0.7-13.6,1.5-15.1
				c0.4,0,81.8-0.8,81.8-0.8s0.4,3-0.2,5.3s-0.8,7.6-1,10.1s-0.2,10.8,0,12.4s1,6.4,1,6.4s0.3,1.9,7,0.8c0.7-0.2,2.9-0.8,2.9-0.8
				l4.7-1v-2.3l-13.7,1.3c0,0-0.3,0.1,0.1-13.1s0.7-21.4,0.7-21.4L1361.1-7c0,0-15.3,0.4-18.3-0.3s-3.9-1.2-4.8-1.2
				s-2.4,1.5-2.4,1.5l-0.5,0.4c0,0,0.5,3.1,0.9,7.5c0.4,4.4,0.6,10.1,0.6,10.1l-0.2,10.8c0,0-0.3,2.3-1.1,2.3
				S1327.8,24.4,1327.8,24.4z"/>
			<path d="M1398.4-0.3l-0.9,11.2c0,0-1.2-0.4,7.2-0.4c8,0.2,10.8,1,10.8,1s0.6-8.9,0-10.5c-0.6-1.6-5.5-0.7-9.6-1.3
				S1398.4-0.3,1398.4-0.3z"/>
			<g>
				<path class="st1" d="M1399.9,1.4c0,0-0.9,5.8-0.9,6.9c0,1.1,7.3-0.1,7.3-0.1l-0.1-6.9L1399.9,1.4z"/>
				<path class="st1" d="M1408.7,1.4l-0.2,7.7l6.3,0.9c0,0,0-7.2-0.9-8.2C1412.9,0.8,1408.7,1.4,1408.7,1.4z"/>
			</g>
		</g>
		<g transform="translate(406 18)">
			<path d="M1328.2,78.6l0,2.5l6.5-0.1l3.3-1.2c0,0-1.1-7.9,0.2-15.7c-0.5,0-5.4-0.5-5.4-0.5s9.3-8,14.4-12.7s7.9-8.5,11.3-12.1
				c3.5-3.6,9.4-8.9,9.4-8.9s6.6,5.9,11.7,11.6c5.2,5.7,10.2,9.1,10.2,9.1s1.1-6.4,0.2-18.2s-0.1-13.2-0.1-13.2l44.3-3.4
				c0,0-0.6,7.5,0.1,10.8s1.3,7.4,1.3,7.4l-3,0.5l-0.4,2.3l8.2-0.1c0,0,9.7,0.5,11.4-0.3c1.8-0.8,2.5-1,2.5-1l5,0.9l0.7-9.5
				c0,0,1.5-0.3,2-0.7c0.5-0.4,5.2,0.1,5.6,0.5s1.4,1.1,1.4,1.1l0.1,8.4c0,0,7.9,0.9,9.1,0.4c1.2-0.4,3.3,0,3.3-0.8
				c0-0.7,2-7.2,1.5-7.8c-0.5-0.7,1.5-1.4,1.5-1.4s5-0.8,5-1.2s1.1,0.6,1.1,2.1c0,1.5-0.7,9.1-0.7,9.1s4.3-1.1,8.1-1.1
				s6.5,0.1,6.5,0.1s0,14.8,0.4,17.7s0.7,14,0.7,14l18.9-0.1l0.4,17.3l1.4,5.9l9.3,0.5l-0.2-2.3c0,0-6.1-0.4-6.5-0.4
				c-0.4,0-2.2-1.6-2.2-1.6s-0.8-5-0.4-9.5c-0.1-3.5-0.3-12.1-0.3-12.1l-19.3,0.5c0,0-0.5-26.8-0.5-28.3c0-1.5-1.5-2.7-1.5-2.7
				l-6-0.4l-6.2-0.9c0,0,1-11.3,1-17.6s-0.2-13.5-0.2-13.5l0.4-15.2l0.2-3.5l-7.6-0.9l-6.1,1.3l1,9.2l-0.4,10.3l-0.7,12l-0.7,18.4
				l-0.2,0.7l-7.4-0.2l-0.9-1c0,0,0.7-10.9,0.1-18.6c-0.6-7.8-0.6-18.9-0.1-25c0.5-6.1,0.1-6.4,0.1-6.4l-2.7-0.7
				c0,0,0.3-0.1-3.7,0.6c-4,0.7-4.5,0.7-4.5,0.7l-3.5,0.3l0,3c0,0-0.2,1.7-0.2,9.9s0.1,15.4,0.1,15.4L1457,22c0,0,0.4,7.2,0,8
				c-0.4,0.8-1.3,2.4-1.6,2.4c-0.3,0-2.4,0.9-3.6,0.9s-13.2,1.2-13.2,1.2l-0.5-1.9l-1.5-19.3c0,0-17.1,0.4-25.5,0.8
				c-8.4,0.4-25.4,1.5-25,1.8c0.1,0.1,0.2,2.8,0.9,8.8c0.6,8.5,0.4,20.6,0.4,20.6s-7.3-8-9.8-10.4c-2.5-2.3-9.7-7.7-9.7-7.7
				s-9.6,7.7-16.2,15c-6.6,7.3-20.8,20.1-20.8,20.1s-0.4,1.3-0.7,1.9l0.6,1.1l4.2-0.2c0,0,0.6,3.3,0.6,6.7s-0.6,6.5-0.6,6.5
				L1328.2,78.6z"/>
			<g>
				<path class="st2" d="M1459.1-13.3l-0.4,5c0,0,3.3,1,4.9,1.1c1.6,0.1,4.8-0.6,4.8-0.6l0.8-6.3c0,0-3.9,0.9-6.4,0.7
					C1461.2-13.3,1459.1-13.3,1459.1-13.3L1459.1-13.3z"/>
				<path class="st2" d="M1464-2.5c-1.6,0.2-4.8,0.2-4.8,0.2l0.2,4.3c0,0,3.1,0.7,4.7,0.7c1.5,0,4.5-0.7,4.5-0.7l0.4-5.5
					C1469.1-3.5,1465.7-2.7,1464-2.5L1464-2.5z"/>
				<path class="st2" d="M1463.9,6.9c-1.4,0.2-4.2,0.4-4.2,0.4l-0.4,5.4c0,0,3.3,0.6,4.9,0.4c1.5-0.2,4.3-1.4,4.3-1.4l-0.2-5.9
					C1468.3,5.8,1465.4,6.6,1463.9,6.9z"/>
				<path class="st2" d="M1463.7,17.4c-1.4,0.1-4.1-0.5-4.1-0.5l0.6,6.5c0,0,4.4,0.5,5.8,0.3c1.2-0.1,2.1-1.1,2.1-1.1l-0.3-6.1
					C1468,16.5,1465.2,17.3,1463.7,17.4z"/>
				<path class="st2" d="M1483.7,22.5c0,0,1.2,0.8,2.5,0.7c1.3,0,5.4-0.9,5.4-0.9v-7c0,0-2.7,1.2-4.3,1.6c-1.2,0.3-4.3,0.4-4.3,0.4
					L1483.7,22.5z"/>
				<path class="st2" d="M1486.1,13.9c1.2,0,4.4-0.8,4.4-0.8l1.6-7.2c0,0-3,1-4.5,1.1c-1.5,0.2-4.5,0-4.5,0l0,6
					C1483.2,13.2,1484.8,13.9,1486.1,13.9L1486.1,13.9z"/>
				<path class="st2" d="M1483.9,2.6c0,0,2.4,1.1,3.8,1c1.2-0.1,3.8-1.6,3.8-1.6l0.1-6c0,0-2.1,1.1-3.2,1.3c-1.5,0.2-4.7,0-4.7,0
					L1483.9,2.6z"/>
				<path class="st2" d="M1484.4-7.8c0,0,2.1,0.7,3.5,0.7c1.2-0.1,4.3-1,4.3-1l-0.1-6c0,0-2.8,0.4-4.1,0.4c-1.5,0-4.3-0.6-4.3-0.6
					L1484.4-7.8z"/>
			</g>
			<path d="M1360.8,55.5c0,0,1.6,0.1,5.5,0.1s10-1,10-1s0.6-2.6-0.6-5.5c-0.2-2.1-7.2-13.1-13.2-2.5c-0.6,1.1-0.9,2.4-1.5,3.9
				C1360.4,54,1360.8,55.5,1360.8,55.5z"/>
			<path class="st1" d="M1362.8,53.6l0.5-5.6c0,0,3-2.7,3.6-2.7s1,3.5,1,3.5l-3.4,0.6l0.2,1.3l2.8,0.2l0.4,1.8l1.1-0.2l-0.1-2
				l4.3,0.6l-0.1-1.4l-4-0.8l-0.4-3.7l3.8,1.1l0.9,1.3l0.5,1.6l0.5,4.1l-1.1,0.7l-3.8-0.3L1362.8,53.6z"/>
		</g>
		<path d="M1941.9,106.8v2.2l4.3,1.9l4.5-1.1l-0.5-45.7l0.9-5.4c0,0,4.3-1.1,18-1.6c13.7-0.4,19.5-1,19.5-1s0.8,11.4,0.8,16.6
			c0,5.2,0.9,13.1,0,16.7c-0.8,3.6-0.8,4.3-0.8,4.3s9.7-0.1,18-0.1s16.3,1.5,16.3,1.5l0,16.6l10.6-0.1l0.1-3l-7.5,0.3
			c0,0-1-2.7-1-6.6c0-3.8,1.2-9.3,1.2-9.3s-0.3-0.4-1.9-0.9c-1.7-0.6-10.3-0.5-10.3-0.5l-21.4-0.2c0,0-1.2-7.1-1.2-13.4
			s0.2-24,0.2-24s-2.8-0.4-5.2-0.4c-2.4,0-5.1,0.2-5.1,0.2l-0.3-12.2c0,0,0.9-3.3,1.4-3.3c0.4,0,8.1-1.4,8.1-1.4l-7.7-0.4
			c0,0-1.2-0.3-1.9-1.7c-0.6-1.3-0.5-4.5-0.5-4.5l-2.7,2l0.4,2.7l-7.5,2l-0.3,1.2l7.4-0.7l1.2,3.5l0.2,12.3c0,0-11.3-0.4-16.6-0.1
			c-5.3,0.4-2.8,0.4-7.3,1.1s-4.7-0.9-5.1-0.9c-0.5,0-2,1.5-2,1.5s0.6,18.2,0.3,25.9s-0.5,25.8-0.5,25.8l-1.3,0.7L1941.9,106.8z"/>
		<g transform="translate(759 58)">
			<path d="M1328.3,49.5c0,0,2.5,0.1,4.4-0.6c1.9-0.7,2.4-0.7,2.4-0.7s0.9-2.9,0.9-8.2s-0.4-8.3-0.4-10.9s0.2-6.8,0.2-6.8
				s2.3,0.1,6.2,0.1c3.9,0,6.6-0.5,9.8-0.5s7.9-0.1,10.5-0.1s6.4-0.4,10.3-0.4c4,0,8.3-0.3,8.3-0.3l0-13.2l-12,13.6l11.9-16.1
				l0.2-7.3l-3.6-0.2v-0.9l3.8-0.7l-0.2-2.4l-2,0.1l-0.5-1.3l2.2-0.1l0.2-2.8c0,0,0.8-0.5,1.1,0c0.3,0.5,0,2.9,0,2.9h3
				c0,0-0.6,0.8-1,1c-0.6,0.3-1.6,0.3-1.6,0.3V-4h4.4c0,0,0.7,0.6,0.2,0.9c-0.8,0.4-4.2,0.9-4.2,0.9l0,6.9l11.4,15.6h-2.1L1382.7,7
				l0.8,13.8l16.1-0.1l2.3,26.3c0,0,19.9,0,15.9,0v2.1c0,0-3.1-0.1-6,0c-5.6,0.2-13,0.8-13,0.8s-1.4-6.3-1.4-12s0.3-14.8,0.3-14.8
				s-9.7,1.2-18.8,1.2s-41.2,0-41.2,0s0.5,14.5,0.5,17.1s0.7,7.8,0.7,7.8l-1.1,1.9c0,0-4,2-5.5,2h-3.5L1328.3,49.5z"/>
			<path d="M1340.9,29.3c0,0,0.1,4.4,0.4,5.6s0.9,4.7,0.9,4.7s6.6,0,8.3,0.2c1.7,0.2,5.5,0.3,6.8,0.8s1.5,0.3,1.5,0.3
				s0.4-0.9,0.7-2.5s0.3-4.7,0.3-6.2c0-1.5,0.3-3.6,0.3-3.6s-2.9-0.1-4-0.1s-7.4,1-9.4,1S1340.9,29.3,1340.9,29.3z"/>
			<g>
				<path class="st1" d="M1342.2,30.8c0,0,0.1,3.1,0.3,4.1c0.3,1.2,0.3,3.7,0.3,3.7s3.4-0.2,4.5-0.4c1.1-0.2,2.6,0,2.6,0l-0.6-7.4
					H1342.2z"/>
				<path class="st1" d="M1354.1,30.2c-1.2,0.1-3,0.6-3,0.6s0.1,1.9,0.1,2.3c0,1.5-0.1,5.1-0.1,5.1s2.9,0.4,4.2,0.4
					c0.8,0,2.4,0.5,2.4,0.5s0.6-3.2,0.5-4.6c0-0.6,0-1.8-0.2-2.9c-0.1-0.7,0.2-1.6,0.2-1.6S1355.3,30.1,1354.1,30.2z"/>
			</g>
		</g>
		<path class="st3" d="M2180.8,102.9c0,0,1.2,0.9,2-4.5c0.9-5.3,0.4-6.8,0.5-10.8c0.1-5.4,0-15.3,0-15.3s-3.2,0-4.3,0
			c-0.2,0-4.4,0-4.4,0s1.5-2.7,2.2-3.5c1.8-2.1,4.7-4.6,7.2-7.4c1-1.1,3.8-4.7,4.8-5.8c3.7-4.3,5.3-6,6.6-7.6c0.5-0.6,2.3-2,2.3-2
			s1.9,2,2.5,2.9c2,2.7,5.9,8.3,8.6,11.8c4.5,6,9.1,10.9,9.1,10.9l-6.6,0.4l0.3,2.8c0,0,8.9-0.6,15.9-0.6s14-0.2,18.8,9
			c4.9,9.2-0.5,9.4,3.3,9.4s10.5-0.4,10.5-0.4s1.7,3.8,1.8,6.1c0.1,1.2,0.5,4.5,0.5,4.5l3.6,1.4v2.2l-6.5-0.9c0,0-0.2-1.2-0.2-5.8
			c0-4.6-0.4-4.7-0.4-4.7s-0.7-0.3-5-0.3h-5.2l-0.7,2.9c0,0-0.4,0.3-0.8,0c-0.4-0.4-0.6-1.4-0.8-1.8c-0.4-0.8-0.7-1.6-0.7-3.1
			c0-0.9-0.3-1.7-0.4-3.2c-0.1-1,0.2-2.7-0.5-4c-0.7-1.3-1.5-4-3.1-5.6c-2.2-2.2-5.3-2.5-7.8-2.8c-5.6-0.8-22.4,0-22.4,0h-2.1
			l-0.7-4.7c0,0-1.9-3.2-1.7-3.5c0.2-0.2,4.2,1.5,4.2,1.5l2.2,0.1L2197.7,49l-18.6,21.4h6.4c0,0,0.2,19.7,0,28.8
			c-0.1,2.2-0.8,5.1-0.8,5.1l-0.7,1.5c0,0-2.1,0.7-3.8,0.7c-1.2,0-5,0.7-5,0.7l-0.5-2.2L2180.8,102.9z"/>
		<g transform="translate(937 36)">
			<g>
				<path d="M1328.2,70.8l12.8,0.6l1.9-1.1c0,0-2.1-10.7-2.1-17.7c0-3-0.3-13.8-0.1-22.7c0.2-12.1,0.8-22.6,0.8-22.6l8.6-2
					c0,0-1.1-1.7-1.4-4.6c-0.2-1.7,0.3-4.6,0.5-5.7c0-0.4,7.3-0.4,7.3-0.4l0.5,4.3c0,0,2.3-7.9,2.3-10.3c0.1-0.3,12.3-0.4,12.3-0.4
					l0.1,9.9c0,0,1.7-0.1,2-3c0-0.5,0-0.8,2.4-0.4c2.4,0.4,6-1.1,6-0.7c0,0.4-0.7,7.3-0.7,7.3l2.1,1.3h7.2c0,0,0.9,10.2,0.9,11v12
					c0,5.7-0.4,9.4-0.4,12.4c0,1.6-1.3,11.7-1.2,19.6c0.1,7.5,1.2,12.9,1.2,12.9l0.7,1.4h9.4l-0.9-3l-7.1-0.6c0,0-0.9-19-0.4-28.3
					c0.4-9.3,0.1-36.9,0.1-36.9l-1.7-2.5l-6.8-0.3l-1.1-0.7l0.4-6.7c0,0-0.6-1-2.9-1c-2.3,0-6.7,0-6.7,0l-0.6-6.9
					c0,0-4.6,0.6-6.9,0.6c-3,0-9.1-0.6-9.1-0.6l-0.6,3.5l-0.1,2.8c0,0-3.4,0.8-5.2,0.9c-1.5,0.1-4.6-0.5-4.6-0.5l-1,11.9l-6.5,0.2
					l-1.8,2.5c0,0,0.9,9.6,0.9,13s-0.2,20.7-0.2,25.5s0.3,23.5,0.3,23.5s-4.7,0.8-5.8,0.8s-5.3-0.7-5.3-0.7L1328.2,70.8z"/>
				<path d="M1353.3,13.5c0,0-0.5,6.5,0.6,6.5s9.1,1,9.1,1s0.7-7.7,0.7-8.3s-8-1.9-9.2-0.9C1353.3,12.6,1353.3,13.5,1353.3,13.5z"/>
				<path d="M1369.9,35.9l0.7,7.2h9.2l1.1-7.8l-9.7-1.8L1369.9,35.9z"/>
			</g>
			<g>
				<path class="st1" d="M1354.9,13.7l-0.4,4.5l7.6,1.6l0.7-6.8L1354.9,13.7z"/>
				<path class="st1" d="M1371.9,36.1l-0.3,5.5l7.5,0.4l0.6-5.6l-6.1-1.4L1371.9,36.1z"/>
			</g>
		</g>
		<g transform="translate(1010 44)">
			<path d="M1327.4,60.6l0,3.1l8.5,0.8c0,0,2.2-2.8,2.2-6c0-3.2-1.9-12.2-1.9-14.6s0-11.5,0-11.5s5.6-1.3,12.2-1.3
				c6.6,0,13.6,0.5,13.6,0.5l1.6,8.9l1.2-4.7c0,0,0.9-6.7,0.2-7.5c-0.7-0.8-0.2-7.7-0.8-10.4c-0.5-2.7,0.1-6,0.1-6s0.4-1,1-1
				s8.2-0.2,8.2-0.2l9.4-0.3c0,0,5.5,0.6,7,0.6s9.3,0.9,9.3,0.9l6.5-0.4c0,0,1.4,5.6,1.4,6.8c0,1.2-0.2,7.8-0.8,12.7
				s-0.7,19-0.7,19.7c0,0.7,0.4,14.3,0.4,14.3l8.7-0.2V61l-5.9,0.2c0,0-0.9-26.9,0-32.2s-0.3-20.6-0.3-20.6s-9.6-0.1-12.3-0.1
				s-6.4,0.2-7.8,0.2c-1.4,0-8.6-1.1-8.6-1.1l-1-1.4l-3-5.1l0-3.2l1.3-6.3l0.5-2.4l-1.6-2l-2.5,2.6l-0.6,1.6l-1.2,1.2l-1.3,1.3
				c0,0,0.6-1.3-0.6-1.3c-1.2,0-1.6,1.3-1.6,1.3l0.8,1.4l-0.8,1.3l-0.6,1.1l-1.3,1.5l-1.6,1.2l-2,2.4c0,0,1.3,0.2,2.9,0.2
				c1.6,0,3.9-1,3.9-1l3-0.8l-0.3,3.2l-0.8,2.4l-1.6,0.8l-4.2,0.2l-2,0.1l-2.7-0.2l0.4,3.7c0,0,1.1,8.8,1.1,9.9s-0.5,7.4-0.5,7.4
				h-7.8l-8.6,0.3l-9.1,0.3l-3.4-0.3l-0.2,6.4c0,0,0.1,3.6,0.8,9.2c0.7,5.6,1.3,14.6,1.3,14.6l-0.6,0.8L1327.4,60.6z"/>
			<g>
				<path class="st2" d="M1374,1.9l-2.4,5.9l5.3,0.1l2.5-0.1l-2.4-3.2l-1.3-2.2l-0.1-1.6L1374,1.9z"/>
				<path class="st2" d="M1366.6,0.8c0,0,1.9-0.1,4.1-2.4c2.2-2.3,5-8.1,5-8.1l-0.9,6.2l-0.3,2.4l-3.4,2H1366.6z"/>
			</g>
		</g>
		<path d="M2424.7,104.9l0,0.4c0,1,0,3,0,3l9.1,0.3c0,0,0.9-9.7,0.9-11.5c0-1.8,0.1-4.9,0.4-5.5c0.4-0.6,1.3-2.7,1.3-2.7l-1.5-15.9
			c0,0-0.7-3.1,0.6-4.3s6.6-6.9,7-7.7c0.4-0.7,6.7-9,7-9.5s1.7-1.4,2.1-1.4s12.7-0.3,13-0.3c0.4,0,8.8-0.9,14.1-0.3
			c5.3,0.6,25.7,0.4,26.6,0.4s20.4,1.5,22.8,0.7s4.2-1.6,4.2-1.6l1,0.1c0,0,13.1,14.4,14.9,15.9c1.8,1.5,10.2,9.2,10.2,9.2
			s-1.5,1.5-2.2,1.5c-0.7,0-0.4,2.6-0.4,2.6l0.1,14.5l0,17.2l0.2,1.1c0,0,6.3,0.6,8.3,0.6s7.4-0.7,7.7-0.7c0.3,0,0.1-3,0.1-3
			s-3.7,1-6.9,1c-3.2,0-7.5-1.7-7.5-1.7l-0.2-11.9c0,0-0.1-6.2-0.1-8.5s1-10.1,1-10.1l4.7,0.5l0.4-1.9c0,0-1.4-0.5-3.9-2.6
			c-2.5-2.1-12.8-13.6-14.9-16c-2.1-2.4-7.7-7.6-7.7-7.6l0.7-2.4c0,0-1.8-0.8-3.2-0.8s-10.2,0-10.2,0l-0.8-8.5l0.4-2.5l1.8-1.3
			l1.1-0.3l-2.1-1.3l-1.6-0.8l0.5-1.4l2.9-0.5h3.8l0.9-0.4l-0.1-1.2l-3.4,0.2c0,0-1.3-0.1-2.7-0.1c-1.4,0-2-1.8-2-1.8l4.4-1.1
			l-0.5-1.5l-3.8,0.3l0.1-3.7l-0.3-1.6l-1.4,1.4l-0.4,1.6l-1.1,1.2l-1.9,0.8l0.1,1.4l2.6-0.1l0.6,1.2c0,0,0.6-0.2-1.6,0.5
			c-2.2,0.7-6.8,2.2-6.8,2.2l1.2,1.2h3.9l3.9,0.2l-1.1,1.4l-2.3,1.4l0.2,1.4l1.2,0.8l1.6,0.1l0.2,10.1c0,0-2.1,1.5-5.8,1.1
			c-3.6-0.4-12.3-1.6-20.8-0.7s-14.9,0.9-21.2,0.9s-25,0.1-25,0.1s-0.3,1.9-1.2,3.2c-0.9,1.3-11.1,12.9-11.1,12.9l-10,12l6,0.3
			c0,0,0.7,9.6,0.7,14c0,4.5-1.3,15.5-1.3,15.5L2424.7,104.9z"/>
		<g transform="translate(1244 45)">
			<path d="M1327.6,63.5c0,0,0.8-0.2,1.8-0.4c0.7-0.1,1.4-0.3,1.9-0.3c1.2,0,12.4-0.4,12.4-0.4l2.9,0.1c0,0,1-5.1,1-7.6
				c0-6.1-0.1-11.9-0.3-17.5c0-1.1,0.4-5.3,0.3-6.3c-0.2-1.1-1-0.9-1-0.9s-3.9,0.2-9.2-1.2c-1.5-0.5-1.8-1.2-2.9-1.9
				c-1.2-0.7-1.4-1.4-1.4-1.4l0.4-9.9c0,0,3.1,3.5,8.4,4.6c1.3,0.2,2.5,0.4,3.6,0.3c0.7-0.1,1.6,0,2.2-0.3c0.1-1.7,0.1-2.9,0.1-2.9
				s-4.1,0.3-7.9-0.7c-3.4-0.9-4.8-2.9-5-2.9c-0.4,0-2.1-0.9-2.1-1.7c0-1.8,0.4-10.3,0.4-10.3v-2.1c0,0,4.6,6,6.8,6.8
				c2.3,0.9,7.9,0.6,7.9,0.6s-0.5-5.3-0.5-8.2c0-3.9,0.5-12,0.5-12l11.5-0.4l0.6,21.1h0.9h4.8l0.8,7.3l-5.5,0.8v4.8
				c0,0,0.4-0.2,0.5-0.2c1.9,0.1,5.5,0,5.5,0v7.2l-5.5,0.8l0.7,33.7c0,0,11.6,1.6,16.4,1.7c4.1,0.1,10.3-1.3,10.3-1.3l0.2,4.1
				l-29.9-0.7l0-36.7l-4.3-0.7l0.6-8.1c0,0,1.4,0.8,2.2,0.9c0.5,0,1.5-0.4,1.5-0.4l-0.8-5.6l-3-0.3c0,0-0.1-7.7,0.5-7.9
				c0.6-0.2,1.7,0.6,1.7,0.6l0.9-18.9l-8.5,0.4c0,0-1,5.7-1,9.3c0,0.7,0,1.4,0,2.2c0.2,3.9,0.7,8.7,0.7,8.7l0.4,1.3
				c0,0-6.8-0.7-10.2-2c-2.6-0.9-5.9-4.6-5.9-4.6l0.5,6.1c0,0,3,3.5,5.7,4.4c3,1,9.6,1.2,9.6,1.2l-0.1,4.6v1.2c0,0-1.7,0.8-3.9,1
				c-2.2,0.2-4.9-0.3-6.7-0.7c-1.8-0.4-4.1-3.7-4.1-3.7v4c0,0-0.2,2.1,0.3,2.6c1,1.1-0.4,1.6,5.8,2.7c6.2,1,8.6,1.2,8.3,2.3
				c-1.1,3.8,0.7,16,0.7,17.8c-0.1,10.1-0.7,16.8-0.7,16.8s-1.8-0.6-4.7-0.6c-1.8,0-3.9,0.9-5.6,0.9c-0.1,0-5,0.4-5.6,0.5
				c-2.2,0.3-5.2,0.6-5.2,0.6L1327.6,63.5z"/>
			<g>
				<path class="st2" d="M1360.2,10c-1.2-0.1-3.3-0.8-3.3-0.8l-0.5,5.3l2.7,0.7c0,0,1.1,0,1.6-0.1c1.4-0.1,2.8-0.1,4.1-0.2l-0.5-5.4
					C1364.3,9.5,1361.5,10.1,1360.2,10z"/>
				<path class="st2" d="M1356.5,22.8l-0.1,4.6c0,0,2.1,0.4,4.5,0.3c2.4-0.1,4.8-0.7,4.8-0.7l0.2-4.6l-4.7,0.7c0,0-0.2,0-0.3,0
					C1358.7,23.3,1356.5,22.8,1356.5,22.8z"/>
			</g>
		</g>
		<g transform="translate(1297 84)">
			<path d="M1334.1,27.6h1.9c0,0,14.1-1.1,16-1.1h7.5l0.6-4.6c0,0-1.5,1.2-4.8,1.2s-9.6-0.6-9.6-0.6l-5.6,0.5l0.1-4.9
				c0,0,0.2-2,2.3-3.2c2.1-1.1,3,1.5,4.4,0.8c1.4-0.8,3.8-0.8,3.8-3.1s1.6-5.8-0.2-8.6c-1.8-2.8-4.9-5.1-4.9-5.8s-3.6-3.9-3.6-4.6
				s-4.1,4.7-4.1,4.7s-2.4,3.1-3.1,3.1s-5.5,1.9-5.5,1.9l-1.8,5.2c0,0-0.3,3.7,0.7,3.7c1,0,2.9,0.9,2.9,0.9l3.7,1.8
				c0,0,1.3,1.7,2.2,1.7c0.9,0,0.9,3,0.9,3l0.6,3l-4.6,1.3V27.6z"/>
			<path class="st1" d="M1329.7,5.6l0.2,5l7.3,2.3l5.4,0.8l5.5,0.2c0,0,1.7-0.9,1.7-2.5s-1.3-5.4-1.3-5.4l-1.4-4.2l-1.9-0.1
				c0,0-1.9-1.2-1.9-2.4s0.8-3-0.7-3s-3.9,2.9-3.9,4.1s-0.4,2.1-1,2.1c-0.6,0-4.9,1.8-4.9,1.8L1329.7,5.6z"/>
			<path d="M1343.2,5.7c0.1,0.2,2.5-2,2.7-1.8c0.8,1.4-0.6,5.7-0.6,5.7s-0.4,1.3-1.2,0.6c-0.8-0.6-2.8,1.8-2.8-0.6
				S1342.4,4.2,1343.2,5.7z"/>
		</g>
		<g>
			<path d="M2039.8,107.8c0.7-2.6,2.2-8,2.2-8l4.7-17.7c0,0,0.8-3.5,1.3-7.5c0.5-4.1,0.3-17.1,0.3-17.1l1.1-38.5h2.5
				c0,0,0.8,6.9,0.8,12.8s1.6,30.4,2.1,35.3c0.5,4.9,1.6,10.7,2.1,12.7c0.5,2,2.1,10.2,3.7,15.5c1.6,5.3,3.3,9.6,3.3,9.6l1.9,2.9
				l-3.7-0.4l-4.5-13.5c0,0-1.9-10.6-3-14.9c-1-4.3-1.3-6.7-2.1-11.8s-1-18.4-1-18.4l-0.6-15.4l-0.2-13.1l-0.8,1.5V41l-0.7,10.4
				v16.7c0,0-0.1,5.5-0.5,8.5c-0.4,2.9-1.9,10-1.9,10l-1.3,6.9l-2.1,8.6c0,0-0.3,1.2-0.5,2.9c-0.3,1.7-0.4,2.9-0.4,2.9
				S2039.8,107.8,2039.8,107.8z"/>
			<path d="M2047.4,18.8l0.8,0.3l3.8-0.1l1.1-0.4c0,0,0.8-0.1,0.3-0.9c-0.5-0.8,0.2-1-1.3-1.2c-1.6-0.2-3.4,0.5-3.4,0.5
				s-1.3,0.1-1.3,0.3C2047.3,17.5,2047.4,18.8,2047.4,18.8z"/>
			<path d="M2062.4,108c0,0-0.4-2.1-1.9-3.8c-1.6-1.7-4.9-3.1-4.9-3.1l-9.2-5.2l-1.4-2.3c0,0-0.1-1,0.9-2c1-1,4.5-3.2,4.5-3.2
				s3.3-2.6,4.1-3.7c0.9-1.8-1.3-3.3-3.1-4.5c-1-0.6-2-1.5-2-1.5s-2.7-1.3,0.2-3.1c2.9-1.8,3.8-5.5,3.7-5.7
				c-0.1-0.2-3.6-3.3-3.6-3.3s-0.7-2.7-0.7-2.9c0,0-0.2-0.5-0.2-0.7c0-0.9,0.3-3,0.6-3c0.3,0,2.9-2.4,2.9-2.4l0.4,1.6l-2.5,2
				c0,0-0.8,1.7,0.1,3.5s2.1,2.8,3,3.4c0.9,0.6,1.5,2.9,1.2,3.5c-0.4,0.6-1.4,2.2-1.6,2.5c-0.2,0.3-2.1,2.8-2.3,2.8
				c-0.3,0-0.4,0.4-0.1,0.7c0.3,0.3,1.9,1.3,2.6,1.8c0.7,0.4,3.9,3.2,3.9,4c0,0.8-3.9,4.8-6.8,6.7c-2.9,1.9-3.8,2.2-3.8,2.9
				s0.7,2.4,2.1,3c1.4,0.6,9.3,5.1,9.6,5.1s4.8,3.6,4.8,3.6l0.7,3L2062.4,108z"/>
			<path d="M2052.2,54.6c0,0-1.8-3.9-3-3.6s0.3-2,0.3-2s0.5,0.3,0.9,1c0.4,0.7,0-0.6,2.5,3.5C2055.4,57.6,2052.2,54.6,2052.2,54.6z"
				/>
			<path d="M2049.3,44.3c0,0,1.1-2.8,2-3.6s0.9-2.2,0.9-2.2s-2.1,2-2.5,2.2S2049.3,44.3,2049.3,44.3z"/>
			<path d="M2051.8,32.9l-2-3.8l0-2.9l1.8,3.8L2051.8,32.9z"/>
			<path d="M2049.5,18h1.6c0,0-1.1-10.1-1.1-12.1c0-1-0.4,0.2-0.5,2c-0.1,1.8,0,4.4,0,4.4V18z"/>
		</g>
	</g>
</g>
<g id="Слой_3">
	<g>
		<path class="st0" d="M4.2,112.7l0.1,2.3l1323.7,0.5l-1.7-6.3l-51.9,0.9l0.1-36.2l-4.8-0.7l0.2-6.5l3.9,0.5v-6.8l-3.8-0.6l0.5-6.9
			l2.5,0.5L1273,33l-10.2,0.4l-0.7,19.4l-5.8,1.2l-8.5-5.7l-0.1,7.9l4.8,4.2l10.8,1.5l-0.6,4.1l-3.6,0.8l-5.4-0.8l-5.5-3.1l-0.2,7.4
			l2.5,2l4.8,1.4l7.1,1.3l-0.1,18.4l-1,15.1l-6.8,0.1l-20.9,1.9l-6.8-0.8V76.4l2.5-1.7l-26-27.4l-83.6,1.1l-16.2,20.6l0.2,20.9
			l-1,17.1l-15.6,0.1l0.3-52.9l-45-1l0.9,20.3l-28.8,1.3l1.2,29.8l-16.2,1.9L998.6,89l1.1-31.6l-1.1-19.9l-8.2-0.5l-0.6-2.2l0.1-6.1
			l-9.7,0.7l-1-7.4l-13.8,1.5l-1.2,5.6l-8.8,0.5l-0.8,10l-7.2,3L947,75.6l0.7,29.3l-7.1,1.1l-10-1.6l-0.9-10.6l-12.4,0.1l-0.9-9.2
			l-4.8-6.3l-8.5-2.5H881l-1.4-5.1l5.2,0.2l-17.1-22.9l-20.2,22.6l7.1,0.8l-0.7,31.7l-8.9,3.1l-15.6-0.3l-1.9-26.1l-62.4,1.5
			L766,106l-6.9,3.9l-24.2-1.3l-21.9-0.3l-18.7,1.9l-1.3-16.6l-32.4-1.1L660,54.7l-41,3l0.1,50.1l-4,1l-11.7-1.4l-1.2-3.8l-0.6-19.6
			L583,84.3l-1.4-30.8l-1.8-0.3L568.2,53l0.3-11l-10.3,0.8l-1.7,9.7l-9.8,0.7l-1.1-11.2l-10.8,1.3l-1.2,9.1l-20.5,1.2l-1.7-21.2
			l-47.1,3.1l0.5,31.1l-20.9-20.5l-36.4,35.4l0.9,1.4l4.2-0.1l-0.6,14.3L391,99.6l-0.9-1.7l0.1-25.8l0.9-8.2l-86,0.8l-0.5,30.4
			L283.1,96l0-72.3l-54.2,3.8l0.7,61.5l-2.7-0.6l-4.4-3.7l-6.8,7.3l-0.8,11.5l-3.8,2.8l-6.4-0.5l-1.5-38.9l-22.7,0l1.1,33.2
			l-12.1,2.3l-1-12.6l-11.3-6.9l-9.7,8.1l-0.6,11.8l-11.9,0.2l-5.5-3.5l-2,3.1l-13.3,0.7L113.8,80l-35-1l-0.7-16.7l-29.8,0.8l0.3,13
			L48.1,101l-14.6,0.5L32,91.5l3.2-2l-1.9-2.4l-1-3l-0.7-9.9c-2.8,1.2-3.8,6-3.8,6l-7.9-8.8L1.6,89.5l5.3,2.4l-0.5,18.9L4.2,112.7z"
			/>
		<path d="M703.2,108.6v2.9c0,0,6.8-1.6,11.4-1.6c2.6,0,11.8-1.2,15.7-0.8c1.6,0.1,2.8,0.3,3.8,0.4c2.3,0.3,2.1,0,2.1,0l0.7-0.8
			l-3.4-2.1l-1.6,1l-19.4,0.2h-2.7L703.2,108.6z"/>
		<g transform="translate(738 75)">
			<path d="M-1.9,34.7c0,0,0.2,0,0.5,0c2,0.2,9.4,0.8,12.2,0.7c4.1-0.1,8.9,0.7,8.9,0.7l0-3.6c0,0-2.8,0.2-3.7,0.2s-4-0.1-4-0.1
				l-0.2-2.3l3.3-3.5l3-2.5c0,0,0-1.6,0.4-2.1c0.4-0.5,1.2-2.3,0.9-3.1c-0.3-0.8-1.7-1.3-2.3-3c-0.5-1.7,0.4-9.1,0.4-9.1
				s-4.4-1.3-7.4-7.8c-0.2-2-0.5-7-0.5-7L7.3-7l-0.4,3c0,0-3.9,4.9-3.9,5.2s0.8,4.8,0.8,4.8l0.8,1.3l-2,1.9c0,0,0.7,3.4,0.2,5.1
				S2.6,16,1.9,17.1s-0.9,1.5-0.9,2.1c0,0.5-1.3,2.3-0.7,4.5s1.8,2.5,1.8,2.5l4.1,2.6l2.1,1.8l1,1.7l-4.8,1.2h-6.4L-1.9,34.7z"/>
			<g>
				<path class="st1" d="M7.5-1.4L5.7,1.2L5,4.1l2.9,0.6L5.7,6c0,0-0.7,4.9-0.7,5.3c0,0.5,1-0.6,1-0.6s0.9,1.1,1.2,1
					c0.4-0.1,0.7,2.6,1.4,4.1c0.6,1.3,1.6,1.4,1.6,1.3c0-0.7,0.4-1.2,0.4-1.9c0-1.2-0.4-3.8-0.4-3.8l-1.3-4l1.7-0.1l1.4,10.5
					c0,0,1.6-0.9,2-2c0.3-0.6-0.7-1.6-0.4-1.9c0.6-0.5,1.7,1.2,1.9,0.6c0.1-0.3,0.4-2,0.4-2.4c0.2-1.8-0.4-3.2-0.4-3.2
					s-1.6,2.8-2.1,2.5c-0.3-0.2,0.5-3.2,0-3.6c-0.1-0.1-0.3-0.4-0.4-0.5c-0.5-0.4-1-0.9-1.4-1.3c-1-1-2.4-2.9-2.4-3.4
					C9.2,1.2,7.5-1.4,7.5-1.4z"/>
				<path class="st1" d="M6.2,16.8c0,0,0.8-1.4,0.4-2.2c-0.4-0.8-1.8-1-2-0.8C4.3,14.1,4.1,19,4.1,19l1.8,1.5l-3,1.7
					c0,0-0.1,1.7,0.8,2.6c0.9,0.9,3,1.8,3,1.8l2.6-3.1l-2-1.6l1.5-1.4l0.4-2.3L6.2,16.8z"/>
				<path class="st1" d="M10.5,20.4l0.2,6.3l2.9-1v-1.4c0,0,1.9-1.2,2.3-3.3c0.5-2.1-0.1-3.5-1-4.1s-0.9-0.1-0.9-0.1V19l-0.3,2.1
					c0,0-0.1,0.3-1.4,0c-1.3-0.3-0.4-1.8-1-1.2C10.8,20.4,10.5,20.4,10.5,20.4z"/>
			</g>
		</g>
		<g transform="translate(122 66)">
			<path d="M-1.9,38.6c0,0,2.8-1,8.5-0.4c0.3,0,1.2-3,1.2-3l4.2,4c0,0,2.8-1.3,6.5-1.3C19,38,18.3,36,18.3,36s-2,0.4-4.4,0
				s-3.3-1.2-3.3-1.2s0.1-3.1,1.7-5.8s4.3-0.2,7.3-12.4c0.1-2.6-4.8-7.5-4.8-7.5l1.4-5.5L12.3-1l-1.8-8.9L8.1-8.1
				c0,0-5.6,12.8-7.3,14.2C0.3,7-0.9,8.5-0.9,8.5s1.3,1.1,1.3,2.4s-0.2,3.1-0.6,5s-0.6,6.7-0.6,6.7s3.4,5.5,4.9,7.1
				c1.5,1.6,1.5,0.7,1.5,6C5,36.3,0.4,36.8-1.8,36C-2.5,35.6-1.9,38.6-1.9,38.6z"/>
			<g>
				<path class="st1" d="M1.8,10.7h3.5l0.6-5.2c0,0,0.5-1.3,0.8-2.7c0.1-0.3,0.6-2.4,0.6-2.4l1.4,3.1l3.4-0.6c0,0-2.6,4.7-4.1,9.5
					s-1.8,9.2-1.8,9.2L9,21c0,0,1.7-2.5,3-7.8s0.5-1.6,2.1-7.3c0.4-1.1,1.4-2.7,1.4-2.7s-3.1-1.7-5.6-5C9.6-2.5,8.2-1.5,8.2-1.5
					S5.5-0.1,5.5,2.1S4.2,4.9,4.2,4.9S2.1,5.1,2.1,6.6S1.8,10.7,1.8,10.7z"/>
				<path class="st1" d="M3,25.2c0,0-1.8-1.3-0.9-6.2s3.5-7.4,3.5-7.4s1.1,1.7-0.4,7.6S3,25.2,3,25.2z"/>
				<path class="st1" d="M6,27.7l2.3,2.5c0,0,8.5-8.8,9.1-10.6c0.6-1.8-0.6-6.7-0.6-6.7s-5.3,4.7-4.5,6.7c-0.2,1.3-1.2,1.5-1.6,2.3
					c-0.7,1.4-0.9,3-0.9,3s-1,0.2-0.5-1.3c0.5-1.5-3-1.6-3-1.6L6,27.7z"/>
			</g>
		</g>
		<path d="M140.3,102v1.8l8.4,0.7L148.1,92c0,0,2.1-3.8,9.3-7.8c1.2-0.1,10.3,6.3,10.3,6.3l-0.1,12.1c0,0,0.2,0.9,2.4,0.9
			s4.4-1.6,6.3-1.6s3-0.4,3-0.4v-1.3c0,0-6.1,1.8-9.4,0.4c-0.2-0.8-0.2-4.3-0.2-5.3c0-1,1.4-5.2,1.4-5.2s-10.9-7.2-13.5-9.5
			c-0.3,0.3-12.1,10-12.1,10l-0.5,1.5l1.5-0.3l-1.3,8.6l0.2,1.2L140.3,102z"/>
		<g transform="translate(181 54)">
			<path d="M-1.9,46.1C-2,46.3-2,47.5-2,47.5s2.9,0.3,3.3-0.2C3.1,23.2,1.6,16.7,0.4,14c0-0.4,20.5-0.2,20.5-0.2l1.4,39.8l8.5,0
				l0.3-3.4c0,0-5.4,0.3-6.2,0.1c-1.5-6-0.4-29.3-2.2-38.5c-0.6-0.1-6,0-6.5-0.1c0-3.7-0.7-4.7,2.3-13.8c0.3-2-0.8-9.1-0.8-9.1
				s-4.8,2-9.1,6.6c0.1-0.1-2-0.7-3.8-0.7S6-1.5,6-1.5L2.8,3.2L2,9.5c0,0,4.6,0.4,5.5,0.4s6.5-4.4,6.5-4.4L13.9,10
				c0,0,0.4,1.8-15.3,1.8c-0.7,0.1,0.4,1.8,1.1,34.1C-0.4,46.6-1.7,45.9-1.9,46.1z"/>
			<g>
				<path class="st0" d="M6-0.4c0,0-1.6,2.7-1.8,3.8C4.2,3.9,5.1,4.6,5.1,4.6l2.5-0.1c0,0,2.8-1.9,4.5-4.9c1.3-2.3,2.4-4.1,3-5.4
					c1.5-3,0-3.9,0-3.9L9.9-5.2l1.3,4.7L6-0.4z"/>
				<path class="st0" d="M4.2,7.3c4.7-2.8,7.2-4.5,9.5-7.7s3-8.9,3-8.9v8.1c0,0.8-2.3,3.9-3.6,5.7S-0.5,10.1,4.2,7.3z"/>
			</g>
		</g>
		<path d="M41.7,102.8L41,99.6c0,0,2.8,0.2,3.2,0.3c1.2,0.5,1.7,1.2,2.3,0c0.4-0.8,0.2-9.4,0.4-18.3c0.2-9.8,0.6-19.9,0.6-19.9
			s7.1,0.1,10.7,0c4.2-0.2,12.6-1,12.6-1l-1.6-11.9c0,0-1.5-0.5-2.5-0.6c-1.5-0.1-5,0.1-5,0.1s0.2-0.7,0.7-0.9
			c2-0.9,6.9-2.5,6.9-2.5L59,44.1c0,0,0.3-0.5,1.6-0.7c1.7-0.3,7.3-0.9,7.3-0.9s-0.1-1.8,0-3.2c0.1-0.8,0.6-3.3,0.6-3.3l1.4,0.7
			l1.1,5.5c0,0,2.1-0.2,3.6-0.4c1.8-0.2,6.3-0.8,6.3-0.8l0.1,1.7l-7.3,1.7l3.9,1.4l-6,2.7c0,0-0.1,4.6,0,6.7c0.1,2,0.7,5.7,0.7,5.7
			h7.4c0,0-0.5,5.2-0.4,6.9c0.2,3.3,0.4,9.9,0.4,9.9s2,0,3.3,0c1,0,3.4,0,3.4,0l25.2,0l2.7,1.6l1.8,2.1l0,19.8l4,0.5l0,2.8l-3.8,0.7
			l-0.7,1.7l-2.8-2.1l0-23.2c0,0-1.8-1.2-7.3-1.4c-6.3-0.2-27.9,0-27.9,0l-0.1-15.2c0,0-6.4-0.4-9.9-0.3c-3.2,0-10.3,0.5-10.3,0.5
			s-2.9,0.1-4.2,0c-1.4-0.1-4.2-0.8-4.2-0.8s1.4,1.1,1.6,2c0.3,0.7,0,2.7,0,2.7s-0.7,11-0.9,16.4c-0.1,5,0,14.5,0,14.5l-1.2,2.8
			L41.7,102.8z"/>
		<path d="M9.1,112.9H3.9c0,0,0.9-4.4,1.3-10.2s0-10.2,0-10.2s-4.8-0.6-6.3,0c-0.7,0.3-1.5-2,0-4.2C0.4,86,5,83.1,9.4,79.7
			c8.4-6.5,10.4-9.2,10.4-9.2l7.1,7.1c0,0,2.6-3.9,3.7-4.3c1.1-0.4,2.3,1.9,2.3,1.9s-0.9,5.7,0,9.4c0.9,3.7,4.5,6,5.1,6.6
			c0.6,0.6-4,0.6-4,0.6l-0.3,6.9l8,0.7l0,3.1l-10.1,0.2L31,90.2l2.8-0.8c0,0-0.9-0.6-1.9-3.8s-1.4-10.4-1.4-10.4s-0.8,0.9-1.1,3.3
			c-0.3,2.4-1.3,3.9-1.3,3.9l-7.9-9.9L2.9,89.3l5.4,0.8L9.1,112.9z"/>
		<g transform="translate(213 37)">
			<path d="M-2,67.7l0.6,2.7l2.8-1.3l3.2-1.4c0,0-1.2-6.9-0.4-11.3s5.1-6.6,5.1-6.6s3.4,0.6,6.2,5.3c0.4,0.6,2.3-2,2.7-3.3
				c0.4-1.3-0.6-24.5-0.3-43.4c0.4-6.9,1.3-16.4,1.3-16.4s2.3-1.2,7.8-1.2s5.8-0.3,11.3-0.3s11.4-1.2,15.7-1.2c1.9,0,5-0.5,7.7-0.7
				c3.6-0.2,6.7,0,6.7,0s0.8,6.2,0.2,13.7s-0.1,9.3-0.5,13.9c-0.4,4.5,0.5,5.8,0.5,9.6s-0.1,35.4-0.1,35.4s1.5-0.4,1.8-0.4
				c3.9-1.9,1.2-0.5,9.4-1.3c1,0.1,2.1,0,2.1,0l0.5-2.1H72.1c0,0-1.6-6.6-0.7-24.5c0.4-8.8-0.3-14.4-0.4-20.3
				c-0.1-6.2,0-12.6,0-16.6c0-7.9,0.1-8.9,0-9.6c-3.2-1.4-8.3-0.6-16,0c-1.8,0.1-3.8-0.1-5.9,0c-3.1,0.2-6.5,0.8-10.2,0.8
				c-8.4,0.1-14.3,0.8-18.5,0.9c-3.2,0.1-5.6-0.4-5.6-0.4l0.4,53.7l-1.4,9.1l-4.5-5.8l-8,10.2L0.6,65.9L-2,67.7z"/>
			<path d="M24.2-2.8l1.1,12.9l1.7,1.8l11.2-1.4c0,0-1.4-2.5-1.4-4.2s0.3-10.7,0.3-10.7L24.2-2.8z"/>
			<path class="st1" d="M27.2,0.8c0,0-0.1,5.7,1.3,6.3s6,0.6,6,0.6l0.4-8.2L27.2,0.8z"/>
		</g>
		<g transform="translate(297 70)">
			<path d="M-2.2,24.4L-2.3,27c0,0,1.6,0.1,4.3,0.1s6.7-0.5,6.7-0.5s1.9-3.4,0.9-15s0.7-13.6,1.5-15.1C11.6-3.5,93-4.3,93-4.3
				s0.4,3-0.2,5.3c-0.6,2.3-0.8,7.6-1,10.1c-0.2,2.5-0.2,10.8,0,12.4c0.2,1.5,1,6.4,1,6.4s0.3,1.9,7,0.8c0.7-0.2,2.9-0.8,2.9-0.8
				l4.7-1v-2.3l-13.7,1.3c0,0-0.3,0.1,0.1-13.1s0.7-21.4,0.7-21.4L31.1-7c0,0-15.3,0.4-18.3-0.3S8.9-8.5,7.9-8.5S5.5-6.9,5.5-6.9
				L4.9-6.5c0,0,0.5,3.1,0.9,7.5c0.4,4.4,0.6,10.1,0.6,10.1L6.3,22c0,0-0.3,2.3-1.1,2.3S-2.2,24.4-2.2,24.4z"/>
			<path d="M68.4-0.3l-0.9,11.2c0,0-1.2-0.4,7.2-0.4c8,0.2,10.8,1,10.8,1S86,2.6,85.4,1S80,0.3,75.8-0.3C71.7-0.9,68.4-0.3,68.4-0.3
				z"/>
			<g>
				<path class="st1" d="M69.9,1.4c0,0-0.9,5.8-0.9,6.9c0,1.1,7.3-0.1,7.3-0.1l-0.1-6.9L69.9,1.4z"/>
				<path class="st1" d="M78.7,1.4l-0.2,7.7l6.3,0.9c0,0,0-7.2-0.9-8.2C82.9,0.8,78.7,1.4,78.7,1.4z"/>
			</g>
		</g>
		<g transform="translate(406 18)">
			<path d="M-1.8,78.6l0,2.5L4.7,81L8,79.8c0,0-1.1-7.9,0.2-15.7c-0.5,0-5.4-0.5-5.4-0.5s9.3-8,14.4-12.7s7.9-8.5,11.3-12.1
				c3.5-3.6,9.4-8.9,9.4-8.9s6.6,5.9,11.7,11.6S60,50.7,60,50.7s1.1-6.4,0.2-18.2s-0.1-13.2-0.1-13.2l44.3-3.4c0,0-0.6,7.5,0.1,10.8
				s1.3,7.4,1.3,7.4l-3,0.5l-0.4,2.3l8.2-0.1c0,0,9.7,0.5,11.4-0.3c1.8-0.8,2.5-1,2.5-1l5,0.9l0.7-9.5c0,0,1.5-0.3,2-0.7
				c0.5-0.4,5.2,0.1,5.6,0.5c0.4,0.4,1.4,1.1,1.4,1.1l0.1,8.4c0,0,7.9,0.9,9.1,0.4c1.2-0.4,3.3,0,3.3-0.8c0-0.7,2-7.2,1.5-7.8
				s1.5-1.4,1.5-1.4s5-0.8,5-1.2s1.1,0.6,1.1,2.1c0,1.5-0.7,9.1-0.7,9.1s4.3-1.1,8.1-1.1s6.5,0.1,6.5,0.1s0,14.8,0.4,17.7
				c0.4,3,0.7,14,0.7,14l18.9-0.1l0.4,17.3l1.4,5.9L206,91l-0.2-2.3c0,0-6.1-0.4-6.5-0.4s-2.2-1.6-2.2-1.6s-0.8-5-0.4-9.5
				c-0.1-3.5-0.3-12.1-0.3-12.1L177,65.5c0,0-0.5-26.8-0.5-28.3c0-1.5-1.5-2.7-1.5-2.7l-6-0.4l-6.2-0.9c0,0,1-11.3,1-17.6
				s-0.2-13.5-0.2-13.5l0.4-15.2l0.2-3.5l-7.6-0.9l-6.1,1.3l1,9.2l-0.4,10.3l-0.7,12l-0.7,18.4l-0.2,0.7l-7.4-0.2l-0.9-1
				c0,0,0.7-10.9,0.1-18.6c-0.6-7.8-0.6-18.9-0.1-25c0.5-6.1,0.1-6.4,0.1-6.4l-2.7-0.7c0,0,0.3-0.1-3.7,0.6c-4,0.7-4.5,0.7-4.5,0.7
				l-3.5,0.3l0,3c0,0-0.2,1.7-0.2,9.9s0.1,15.4,0.1,15.4L127,22c0,0,0.4,7.2,0,8c-0.4,0.8-1.3,2.4-1.6,2.4s-2.4,0.9-3.6,0.9
				s-13.2,1.2-13.2,1.2l-0.5-1.9l-1.5-19.3c0,0-17.1,0.4-25.5,0.8c-8.4,0.4-25.4,1.5-25,1.8c0.1,0.1,0.2,2.8,0.9,8.8
				c0.6,8.5,0.4,20.6,0.4,20.6s-7.3-8-9.8-10.4c-2.5-2.3-9.7-7.7-9.7-7.7s-9.6,7.7-16.2,15S0.9,62.5,0.9,62.5s-0.4,1.3-0.7,1.9
				l0.6,1.1L5,65.2c0,0,0.6,3.3,0.6,6.7s-0.6,6.5-0.6,6.5L-1.8,78.6z"/>
			<g>
				<path class="st2" d="M129.1-13.3l-0.4,5c0,0,3.3,1,4.9,1.1c1.6,0.1,4.8-0.6,4.8-0.6l0.8-6.3c0,0-3.9,0.9-6.4,0.7
					C131.2-13.3,129.1-13.3,129.1-13.3L129.1-13.3z"/>
				<path class="st2" d="M134-2.5c-1.6,0.2-4.8,0.2-4.8,0.2l0.2,4.3c0,0,3.1,0.7,4.7,0.7c1.5,0,4.5-0.7,4.5-0.7l0.4-5.5
					C139.1-3.5,135.7-2.7,134-2.5L134-2.5z"/>
				<path class="st2" d="M133.9,6.9c-1.4,0.2-4.2,0.4-4.2,0.4l-0.4,5.4c0,0,3.3,0.6,4.9,0.4c1.5-0.2,4.3-1.4,4.3-1.4l-0.2-5.9
					C138.3,5.8,135.4,6.6,133.9,6.9z"/>
				<path class="st2" d="M133.7,17.4c-1.4,0.1-4.1-0.5-4.1-0.5l0.6,6.5c0,0,4.4,0.5,5.8,0.3c1.2-0.1,2.1-1.1,2.1-1.1l-0.3-6.1
					C138,16.5,135.2,17.3,133.7,17.4z"/>
				<path class="st2" d="M153.7,22.5c0,0,1.2,0.8,2.5,0.7c1.3,0,5.4-0.9,5.4-0.9v-7c0,0-2.7,1.2-4.3,1.6c-1.2,0.3-4.3,0.4-4.3,0.4
					L153.7,22.5z"/>
				<path class="st2" d="M156.1,13.9c1.2,0,4.4-0.8,4.4-0.8l1.6-7.2c0,0-3,1-4.5,1.1c-1.5,0.2-4.5,0-4.5,0l0,6
					C153.2,13.2,154.8,13.9,156.1,13.9L156.1,13.9z"/>
				<path class="st2" d="M153.9,2.6c0,0,2.4,1.1,3.8,1c1.2-0.1,3.8-1.6,3.8-1.6l0.1-6c0,0-2.1,1.1-3.2,1.3c-1.5,0.2-4.7,0-4.7,0
					L153.9,2.6z"/>
				<path class="st2" d="M154.4-7.8c0,0,2.1,0.7,3.5,0.7c1.2-0.1,4.3-1,4.3-1l-0.1-6c0,0-2.8,0.4-4.1,0.4c-1.5,0-4.3-0.6-4.3-0.6
					L154.4-7.8z"/>
			</g>
			<path d="M30.8,55.5c0,0,1.6,0.1,5.5,0.1s10-1,10-1s0.6-2.6-0.6-5.5C45.6,47,38.6,36,32.6,46.7c-0.6,1.1-0.9,2.4-1.5,3.9
				C30.4,54,30.8,55.5,30.8,55.5z"/>
			<path class="st1" d="M32.8,53.6l0.5-5.6c0,0,3-2.7,3.6-2.7c0.6,0,1,3.5,1,3.5l-3.4,0.6l0.2,1.3l2.8,0.2l0.4,1.8l1.1-0.2l-0.1-2
				l4.3,0.6L43,49.7l-4-0.8l-0.4-3.7l3.8,1.1l0.9,1.3l0.5,1.6l0.5,4.1L43.2,54l-3.8-0.3L32.8,53.6z"/>
		</g>
		<path d="M611.9,106.8v2.2l4.3,1.9l4.5-1.1l-0.5-45.7l0.9-5.4c0,0,4.3-1.1,18-1.6c13.7-0.4,19.5-1,19.5-1s0.8,11.4,0.8,16.6
			c0,5.2,0.9,13.1,0,16.7c-0.8,3.6-0.8,4.3-0.8,4.3s9.7-0.1,18-0.1s16.3,1.5,16.3,1.5l0,16.6l10.6-0.1l0.1-3l-7.5,0.3
			c0,0-1-2.7-1-6.6c0-3.8,1.2-9.3,1.2-9.3s-0.3-0.4-1.9-0.9c-1.7-0.6-10.3-0.5-10.3-0.5l-21.4-0.2c0,0-1.2-7.1-1.2-13.4
			s0.2-24,0.2-24s-2.8-0.4-5.2-0.4s-5.1,0.2-5.1,0.2l-0.3-12.2c0,0,0.9-3.3,1.4-3.3s8.1-1.4,8.1-1.4l-7.7-0.4c0,0-1.2-0.3-1.9-1.7
			c-0.6-1.3-0.5-4.5-0.5-4.5l-2.7,2l0.4,2.7l-7.5,2l-0.3,1.2l7.4-0.7l1.2,3.5l0.2,12.3c0,0-11.3-0.4-16.6-0.1
			c-5.3,0.4-2.8,0.4-7.3,1.1c-4.4,0.6-4.7-0.9-5.1-0.9s-2,1.5-2,1.5s0.6,18.2,0.3,25.9s-0.5,25.8-0.5,25.8l-1.3,0.7L611.9,106.8z"/>
		<g transform="translate(759 58)">
			<path d="M-1.7,49.5c0,0,2.5,0.1,4.4-0.6c1.9-0.7,2.4-0.7,2.4-0.7S6,45.4,6,40s-0.4-8.3-0.4-10.9s0.2-6.8,0.2-6.8s2.3,0.1,6.2,0.1
				s6.6-0.5,9.8-0.5s7.9-0.1,10.5-0.1s6.4-0.4,10.3-0.4s8.3-0.3,8.3-0.3l0-13.2l-12,13.6L50.6,5.3L50.8-2l-3.6-0.2v-0.9L51-3.9
				l-0.2-2.4l-2,0.1l-0.5-1.3l2.2-0.1l0.2-2.8c0,0,0.8-0.5,1.1,0c0.3,0.5,0,2.9,0,2.9h3c0,0-0.6,0.8-1,1c-0.6,0.3-1.6,0.3-1.6,0.3
				V-4h4.4c0,0,0.7,0.6,0.2,0.9c-0.8,0.4-4.2,0.9-4.2,0.9l0,6.9l11.4,15.6H62L52.7,7l0.8,13.8l16.1-0.1l2.3,26.3c0,0,19.9,0,15.9,0
				v2.1c0,0-3.1-0.1-6,0c-5.6,0.2-13,0.8-13,0.8s-1.4-6.3-1.4-12s0.3-14.8,0.3-14.8s-9.7,1.2-18.8,1.2s-41.2,0-41.2,0
				s0.5,14.5,0.5,17.1s0.7,7.8,0.7,7.8L7.7,51c0,0-4,2-5.5,2h-3.5L-1.7,49.5z"/>
			<path d="M10.9,29.3c0,0,0.1,4.4,0.4,5.6c0.3,1.3,0.9,4.7,0.9,4.7s6.6,0,8.3,0.2c1.7,0.2,5.5,0.3,6.8,0.8c1.2,0.5,1.5,0.3,1.5,0.3
				s0.4-0.9,0.7-2.5c0.3-1.6,0.3-4.7,0.3-6.2c0-1.5,0.3-3.6,0.3-3.6s-2.9-0.1-4-0.1c-1,0-7.4,1-9.4,1S10.9,29.3,10.9,29.3z"/>
			<g>
				<path class="st1" d="M12.2,30.8c0,0,0.1,3.1,0.3,4.1c0.3,1.2,0.3,3.7,0.3,3.7s3.4-0.2,4.5-0.4c1.1-0.2,2.6,0,2.6,0l-0.6-7.4
					H12.2z"/>
				<path class="st1" d="M24.1,30.2c-1.2,0.1-3,0.6-3,0.6s0.1,1.9,0.1,2.3c0,1.5-0.1,5.1-0.1,5.1s2.9,0.4,4.2,0.4
					c0.8,0,2.4,0.5,2.4,0.5s0.6-3.2,0.5-4.6c0-0.6,0-1.8-0.2-2.9C28,30.9,28.2,30,28.2,30S25.3,30.1,24.1,30.2z"/>
			</g>
		</g>
		<path class="st3" d="M850.8,102.9c0,0,1.2,0.9,2-4.5c0.9-5.3,0.4-6.8,0.5-10.8c0.1-5.4,0-15.3,0-15.3s-3.2,0-4.3,0
			c-0.2,0-4.4,0-4.4,0s1.5-2.7,2.2-3.5c1.8-2.1,4.7-4.6,7.2-7.4c1-1.1,3.8-4.7,4.8-5.8c3.7-4.3,5.3-6,6.6-7.6c0.5-0.6,2.3-2,2.3-2
			s1.9,2,2.5,2.9c2,2.7,5.9,8.3,8.6,11.8c4.5,6,9.1,10.9,9.1,10.9l-6.6,0.4l0.3,2.8c0,0,8.9-0.6,15.9-0.6c7.1,0,14-0.2,18.8,9
			s-0.5,9.4,3.3,9.4s10.5-0.4,10.5-0.4s1.7,3.8,1.8,6.1c0.1,1.2,0.5,4.5,0.5,4.5l3.6,1.4v2.2l-6.5-0.9c0,0-0.2-1.2-0.2-5.8
			c0-4.6-0.4-4.7-0.4-4.7s-0.7-0.3-5-0.3h-5.2l-0.7,2.9c0,0-0.4,0.3-0.8,0c-0.4-0.4-0.6-1.4-0.8-1.8c-0.4-0.8-0.7-1.6-0.7-3.1
			c0-0.9-0.3-1.7-0.4-3.2c-0.1-1,0.2-2.7-0.5-4c-0.7-1.3-1.5-4-3.1-5.6c-2.2-2.2-5.3-2.5-7.8-2.8c-5.6-0.8-22.4,0-22.4,0h-2.1
			l-0.7-4.7c0,0-1.9-3.2-1.7-3.5c0.2-0.2,4.2,1.5,4.2,1.5l2.2,0.1L867.7,49l-18.6,21.4h6.4c0,0,0.2,19.7,0,28.8
			c-0.1,2.2-0.8,5.1-0.8,5.1l-0.7,1.5c0,0-2.1,0.7-3.8,0.7c-1.2,0-5,0.7-5,0.7l-0.5-2.2L850.8,102.9z"/>
		<g transform="translate(937 36)">
			<g>
				<path d="M-1.8,70.8L11,71.4l1.9-1.1c0,0-2.1-10.7-2.1-17.7c0-3-0.3-13.8-0.1-22.7c0.2-12.1,0.8-22.6,0.8-22.6l8.6-2
					c0,0-1.1-1.7-1.4-4.6c-0.2-1.7,0.3-4.6,0.5-5.7c0-0.4,7.3-0.4,7.3-0.4l0.5,4.3c0,0,2.3-7.9,2.3-10.3c0.1-0.3,12.3-0.4,12.3-0.4
					L41.8-2c0,0,1.7-0.1,2-3c0-0.5,0-0.8,2.4-0.4c2.4,0.4,6-1.1,6-0.7c0,0.4-0.7,7.3-0.7,7.3l2.1,1.3h7.2c0,0,0.9,10.2,0.9,11v12
					c0,5.7-0.4,9.4-0.4,12.4c0,1.6-1.3,11.7-1.2,19.6c0.1,7.5,1.2,12.9,1.2,12.9l0.7,1.4h9.4l-0.9-3l-7.1-0.6c0,0-0.9-19-0.4-28.3
					c0.4-9.3,0.1-36.9,0.1-36.9l-1.7-2.5l-6.8-0.3l-1.1-0.7L54-7.1c0,0-0.6-1-2.9-1c-2.3,0-6.7,0-6.7,0L43.9-15c0,0-4.6,0.6-6.9,0.6
					c-3,0-9.1-0.6-9.1-0.6l-0.6,3.5l-0.1,2.8c0,0-3.4,0.8-5.2,0.9c-1.5,0.1-4.6-0.5-4.6-0.5l-1,11.9L10,3.6L8.1,6.1
					c0,0,0.9,9.6,0.9,13S8.9,39.8,8.9,44.6s0.3,23.5,0.3,23.5s-4.7,0.8-5.8,0.8s-5.3-0.7-5.3-0.7L-1.8,70.8z"/>
				<path d="M23.3,13.5c0,0-0.5,6.5,0.6,6.5s9.1,1,9.1,1s0.7-7.7,0.7-8.3s-8-1.9-9.2-0.9C23.3,12.6,23.3,13.5,23.3,13.5z"/>
				<path d="M39.9,35.9l0.7,7.2h9.2l1.1-7.8l-9.7-1.8L39.9,35.9z"/>
			</g>
			<g>
				<path class="st1" d="M24.9,13.7l-0.4,4.5l7.6,1.6l0.7-6.8L24.9,13.7z"/>
				<path class="st1" d="M41.9,36.1l-0.3,5.5l7.5,0.4l0.6-5.6L43.6,35L41.9,36.1z"/>
			</g>
		</g>
		<g transform="translate(1010 44)">
			<path d="M-2.6,60.6l0,3.1l8.5,0.8c0,0,2.2-2.8,2.2-6c0-3.2-1.9-12.2-1.9-14.6s0-11.5,0-11.5S11.8,31,18.4,31S32,31.5,32,31.5
				l1.6,8.9l1.2-4.7c0,0,0.9-6.7,0.2-7.5s-0.2-7.7-0.8-10.4c-0.5-2.7,0.1-6,0.1-6s0.4-1,1-1s8.2-0.2,8.2-0.2l9.4-0.3
				c0,0,5.5,0.6,7,0.6c1.5,0,9.3,0.9,9.3,0.9l6.5-0.4c0,0,1.4,5.6,1.4,6.8c0,1.2-0.2,7.8-0.8,12.7c-0.6,4.9-0.7,19-0.7,19.7
				c0,0.7,0.4,14.3,0.4,14.3l8.7-0.2V61l-5.9,0.2c0,0-0.9-26.9,0-32.2c1-5.3-0.3-20.6-0.3-20.6s-9.6-0.1-12.3-0.1S60,8.5,58.6,8.5
				c-1.4,0-8.6-1.1-8.6-1.1l-1-1.4l-3-5.1l0-3.2l1.3-6.3l0.5-2.4l-1.6-2l-2.5,2.6l-0.6,1.6l-1.2,1.2l-1.3,1.3c0,0,0.6-1.3-0.6-1.3
				c-1.2,0-1.6,1.3-1.6,1.3l0.8,1.4l-0.8,1.3l-0.6,1.1l-1.3,1.5l-1.6,1.2l-2,2.4c0,0,1.3,0.2,2.9,0.2c1.6,0,3.9-1,3.9-1l3-0.8
				l-0.3,3.2L41.6,7L40,7.8L35.8,8l-2,0.1L31,7.9l0.4,3.7c0,0,1.1,8.8,1.1,9.9S32,28.9,32,28.9h-7.8l-8.6,0.3l-9.1,0.3l-3.4-0.3
				l-0.2,6.4c0,0,0.1,3.6,0.8,9.2s1.3,14.6,1.3,14.6l-0.6,0.8L-2.6,60.6z"/>
			<g>
				<path class="st2" d="M44,1.9l-2.4,5.9l5.3,0.1l2.5-0.1l-2.4-3.2l-1.3-2.2l-0.1-1.6L44,1.9z"/>
				<path class="st2" d="M36.6,0.8c0,0,1.9-0.1,4.1-2.4s5-8.1,5-8.1l-0.9,6.2l-0.3,2.4l-3.4,2H36.6z"/>
			</g>
		</g>
		<path d="M1094.7,104.9l0,0.4c0,1,0,3,0,3l9.1,0.3c0,0,0.9-9.7,0.9-11.5c0-1.8,0.1-4.9,0.4-5.5s1.3-2.7,1.3-2.7l-1.5-15.9
			c0,0-0.7-3.1,0.6-4.3s6.6-6.9,7-7.7c0.4-0.7,6.7-9,7-9.5s1.7-1.4,2.1-1.4c0.4,0,12.7-0.3,13-0.3c0.4,0,8.8-0.9,14.1-0.3
			c5.3,0.6,25.7,0.4,26.6,0.4s20.4,1.5,22.8,0.7c2.3-0.7,4.2-1.6,4.2-1.6l1,0.1c0,0,13.1,14.4,14.9,15.9c1.8,1.5,10.2,9.2,10.2,9.2
			s-1.5,1.5-2.2,1.5c-0.7,0-0.4,2.6-0.4,2.6l0.1,14.5l0,17.2l0.2,1.1c0,0,6.3,0.6,8.3,0.6c2.1,0,7.4-0.7,7.7-0.7c0.3,0,0.1-3,0.1-3
			s-3.7,1-6.9,1s-7.5-1.7-7.5-1.7l-0.2-11.9c0,0-0.1-6.2-0.1-8.5s1-10.1,1-10.1l4.7,0.5l0.4-1.9c0,0-1.4-0.5-3.9-2.6
			c-2.5-2.1-12.8-13.6-14.9-16c-2.1-2.4-7.7-7.6-7.7-7.6l0.7-2.4c0,0-1.8-0.8-3.2-0.8c-1.4,0-10.2,0-10.2,0l-0.8-8.5l0.4-2.5
			l1.8-1.3l1.1-0.3l-2.1-1.3l-1.6-0.8l0.5-1.4l2.9-0.5h3.8l0.9-0.4l-0.1-1.2l-3.4,0.2c0,0-1.3-0.1-2.7-0.1c-1.4,0-2-1.8-2-1.8
			l4.4-1.1l-0.5-1.5l-3.8,0.3l0.1-3.7l-0.3-1.6l-1.4,1.4l-0.4,1.6l-1.1,1.2l-1.9,0.8l0.1,1.4l2.6-0.1l0.6,1.2c0,0,0.6-0.2-1.6,0.5
			s-6.8,2.2-6.8,2.2l1.2,1.2h3.9l3.9,0.2l-1.1,1.4l-2.3,1.4l0.2,1.4l1.2,0.8l1.6,0.1l0.2,10.1c0,0-2.1,1.5-5.8,1.1
			c-3.6-0.4-12.3-1.6-20.8-0.7s-14.9,0.9-21.2,0.9c-6.3,0-25,0.1-25,0.1s-0.3,1.9-1.2,3.2c-0.9,1.3-11.1,12.9-11.1,12.9l-10,12
			l6,0.3c0,0,0.7,9.6,0.7,14c0,4.5-1.3,15.5-1.3,15.5L1094.7,104.9z"/>
		<g transform="translate(1244 45)">
			<path d="M-2.4,63.5c0,0,0.8-0.2,1.8-0.4C0,63,0.8,62.8,1.3,62.8c1.2,0,12.4-0.4,12.4-0.4l2.9,0.1c0,0,1-5.1,1-7.6
				c0-6.1-0.1-11.9-0.3-17.5c0-1.1,0.4-5.3,0.3-6.3c-0.2-1.1-1-0.9-1-0.9s-3.9,0.2-9.2-1.2c-1.5-0.5-1.8-1.2-2.9-1.9
				c-1.2-0.7-1.4-1.4-1.4-1.4l0.4-9.9c0,0,3.1,3.5,8.4,4.6c1.3,0.2,2.5,0.4,3.6,0.3c0.7-0.1,1.6,0,2.2-0.3c0.1-1.7,0.1-2.9,0.1-2.9
				s-4.1,0.3-7.9-0.7C6.4,16.1,5,14,4.8,14c-0.4,0-2.1-0.9-2.1-1.7C2.7,10.5,3.1,2,3.1,2v-2.1c0,0,4.6,6,6.8,6.8
				c2.3,0.9,7.9,0.6,7.9,0.6s-0.5-5.3-0.5-8.2c0-3.9,0.5-12,0.5-12l11.5-0.4l0.6,21.1h0.9h4.8l0.8,7.3l-5.5,0.8v4.8
				c0,0,0.4-0.2,0.5-0.2c1.9,0.1,5.5,0,5.5,0v7.2l-5.5,0.8L32,62.4c0,0,11.6,1.6,16.4,1.7c4.1,0.1,10.3-1.3,10.3-1.3l0.2,4.1
				l-29.9-0.7l0-36.7l-4.3-0.7l0.6-8.1c0,0,1.4,0.8,2.2,0.9c0.5,0,1.5-0.4,1.5-0.4l-0.8-5.6l-3-0.3c0,0-0.1-7.7,0.5-7.9
				c0.6-0.2,1.7,0.6,1.7,0.6L28.5-11l-8.5,0.4c0,0-1,5.7-1,9.3c0,0.7,0,1.4,0,2.2c0.2,3.9,0.7,8.7,0.7,8.7L20,11c0,0-6.8-0.7-10.2-2
				C7.3,8,4,4.4,4,4.4l0.5,6.1c0,0,3,3.5,5.7,4.4c3,1,9.6,1.2,9.6,1.2l-0.1,4.6v1.2c0,0-1.7,0.8-3.9,1c-2.2,0.2-4.9-0.3-6.7-0.7
				c-1.8-0.4-4.1-3.7-4.1-3.7v4c0,0-0.2,2.1,0.3,2.6c1,1.1-0.4,1.6,5.8,2.7c6.2,1,8.6,1.2,8.3,2.3C18.3,34,20.1,46.2,20,48
				c-0.1,10.1-0.7,16.8-0.7,16.8s-1.8-0.6-4.7-0.6c-1.8,0-3.9,0.9-5.6,0.9c-0.1,0-5,0.4-5.6,0.5c-2.2,0.3-5.2,0.6-5.2,0.6L-2.4,63.5
				z"/>
			<g>
				<path class="st2" d="M30.2,10c-1.2-0.1-3.3-0.8-3.3-0.8l-0.5,5.3l2.7,0.7c0,0,1.1,0,1.6-0.1c1.4-0.1,2.8-0.1,4.1-0.2l-0.5-5.4
					C34.3,9.5,31.5,10.1,30.2,10z"/>
				<path class="st2" d="M26.5,22.8l-0.1,4.6c0,0,2.1,0.4,4.5,0.3c2.4-0.1,4.8-0.7,4.8-0.7l0.2-4.6l-4.7,0.7c0,0-0.2,0-0.3,0
					C28.7,23.3,26.5,22.8,26.5,22.8z"/>
			</g>
		</g>
		<g transform="translate(1297 84)">
			<path d="M4.1,27.6H6c0,0,14.1-1.1,16-1.1h7.5l0.6-4.6c0,0-1.5,1.2-4.8,1.2s-9.6-0.6-9.6-0.6l-5.6,0.5l0.1-4.9c0,0,0.2-2,2.3-3.2
				s3,1.5,4.4,0.8s3.8-0.8,3.8-3.1s1.6-5.8-0.2-8.6c-1.8-2.8-4.9-5.1-4.9-5.8s-3.6-3.9-3.6-4.6S8-1.5,8-1.5S5.7,1.6,4.9,1.6
				s-5.5,1.9-5.5,1.9l-1.8,5.2c0,0-0.3,3.7,0.7,3.7s2.9,0.9,2.9,0.9L5,15c0,0,1.3,1.7,2.2,1.7c0.9,0,0.9,3,0.9,3l0.6,3l-4.6,1.3
				L4.1,27.6z"/>
			<path class="st1" d="M-0.3,5.6l0.2,5L7.1,13l5.4,0.8L18,14c0,0,1.7-0.9,1.7-2.5S18.4,6,18.4,6L17,1.8l-1.9-0.1
				c0,0-1.9-1.2-1.9-2.4s0.8-3-0.7-3S8.7-0.8,8.7,0.5s-0.4,2.1-1,2.1S2.7,4.3,2.7,4.3L-0.3,5.6z"/>
			<path d="M13.2,5.7c0.1,0.2,2.5-2,2.7-1.8c0.8,1.4-0.6,5.7-0.6,5.7s-0.4,1.3-1.2,0.6c-0.8-0.6-2.8,1.8-2.8-0.6S12.4,4.2,13.2,5.7z
				"/>
		</g>
		<g>
			<path d="M709.8,107.8c0.7-2.6,2.2-8,2.2-8l4.7-17.7c0,0,0.8-3.5,1.3-7.5c0.5-4.1,0.3-17.1,0.3-17.1l1.1-38.5h2.5
				c0,0,0.8,6.9,0.8,12.8s1.6,30.4,2.1,35.3s1.6,10.7,2.1,12.7c0.5,2,2.1,10.2,3.7,15.5s3.3,9.6,3.3,9.6l1.9,2.9l-3.7-0.4l-4.5-13.5
				c0,0-1.9-10.6-3-14.9c-1-4.3-1.3-6.7-2.1-11.8c-0.8-5.1-1-18.4-1-18.4l-0.6-15.4L721,20.2l-0.8,1.5V41l-0.7,10.4v16.7
				c0,0-0.1,5.5-0.5,8.5s-1.9,10-1.9,10l-1.3,6.9l-2.1,8.6c0,0-0.3,1.2-0.5,2.9c-0.3,1.7-0.4,2.9-0.4,2.9S709.8,107.8,709.8,107.8z"
				/>
			<path d="M717.4,18.8l0.8,0.3L722,19l1.1-0.4c0,0,0.8-0.1,0.3-0.9c-0.5-0.8,0.2-1-1.3-1.2c-1.6-0.2-3.4,0.5-3.4,0.5
				s-1.3,0.1-1.3,0.3C717.3,17.5,717.4,18.8,717.4,18.8z"/>
			<path d="M732.4,108c0,0-0.4-2.1-1.9-3.8c-1.6-1.7-4.9-3.1-4.9-3.1l-9.2-5.2l-1.4-2.3c0,0-0.1-1,0.9-2c1-1,4.5-3.2,4.5-3.2
				s3.3-2.6,4.1-3.7c0.9-1.8-1.3-3.3-3.1-4.5c-1-0.6-2-1.5-2-1.5s-2.7-1.3,0.2-3.1c2.9-1.8,3.8-5.5,3.7-5.7
				c-0.1-0.2-3.6-3.3-3.6-3.3s-0.7-2.7-0.7-2.9c0,0-0.2-0.5-0.2-0.7c0-0.9,0.3-3,0.6-3c0.3,0,2.9-2.4,2.9-2.4l0.4,1.6l-2.5,2
				c0,0-0.8,1.7,0.1,3.5c0.9,1.9,2.1,2.8,3,3.4c0.9,0.6,1.5,2.9,1.2,3.5c-0.4,0.6-1.4,2.2-1.6,2.5c-0.2,0.3-2.1,2.8-2.3,2.8
				s-0.4,0.4-0.1,0.7c0.3,0.3,1.9,1.3,2.6,1.8c0.7,0.4,3.9,3.2,3.9,4c0,0.8-3.9,4.8-6.8,6.7s-3.8,2.2-3.8,2.9s0.7,2.4,2.1,3
				c1.4,0.6,9.3,5.1,9.6,5.1c0.3,0,4.8,3.6,4.8,3.6l0.7,3L732.4,108z"/>
			<path d="M722.2,54.6c0,0-1.8-3.9-3-3.6s0.3-2,0.3-2s0.5,0.3,0.9,1c0.4,0.7,0-0.6,2.5,3.5C725.4,57.6,722.2,54.6,722.2,54.6z"/>
			<path d="M719.3,44.3c0,0,1.1-2.8,2-3.6c1-0.8,0.9-2.2,0.9-2.2s-2.1,2-2.5,2.2S719.3,44.3,719.3,44.3z"/>
			<path d="M721.8,32.9l-2-3.8l0-2.9l1.8,3.8L721.8,32.9z"/>
			<path d="M719.5,18h1.6c0,0-1.1-10.1-1.1-12.1c0-1-0.4,0.2-0.5,2c-0.1,1.8,0,4.4,0,4.4V18z"/>
		</g>
	</g>
</g>
</svg>
