<?xml version="1.0" encoding="utf-8"?>
<!-- Generator: Adobe Illustrator 22.0.1, SVG Export Plug-In . SVG Version: 6.00 Build 0)  -->
<svg version="1.1" id="Слой_1" xmlns="http://www.w3.org/2000/svg" xmlns:xlink="http://www.w3.org/1999/xlink" x="0px" y="0px"
	 viewBox="0 0 16.8 21.6" style="enable-background:new 0 0 16.8 21.6;" xml:space="preserve">
<path d="M8.1,21.5L8.4,21L8.1,21.5z M8.8,21.5L8.8,21.5L8.8,21.5L8.8,21.5L8.8,21.5c0.2-0.1,0.2-0.2,0.4-0.3
	c0.2-0.2,0.5-0.4,0.9-0.7c1-0.8,1.9-1.8,2.7-2.7c2-2.3,4-5.6,4-9.3c0-2.2-0.9-4.4-2.5-6c-0.8-0.8-1.7-1.4-2.7-1.8S9.5,0,8.4,0
	C7.3,0,6.2,0.2,5.2,0.6c-1,0.4-1.9,1-2.7,1.8C0.9,4.1,0,6.2,0,8.5c0,3.7,2.1,7,4,9.3c0.8,1,1.8,1.9,2.7,2.7c0.4,0.3,0.7,0.6,0.9,0.7
	c0.1,0.1,0.2,0.2,0.3,0.2l0,0l0,0l0,0C8.3,21.7,8.5,21.7,8.8,21.5z M8.4,21l0.3,0.5L8.4,21z M11.4,8.4c0,0.8-0.3,1.6-0.9,2.1
	c-0.6,0.6-1.3,0.9-2.1,0.9s-1.6-0.3-2.1-0.9C5.7,10,5.4,9.2,5.4,8.4c0-0.8,0.3-1.6,0.9-2.1c0.6-0.6,1.3-0.9,2.1-0.9s1.6,0.3,2.1,0.9
	C11.1,6.8,11.4,7.6,11.4,8.4z"/>
</svg>
